mdl2.ufo
<glyph name="uniE001" format="2">
  <advance width="1024"/>
  <unicode hex="E001"/>
  <outline>
    <contour>
      <point x="873" y="790" type="line"/>
      <point x="918" y="746" type="line"/>
      <point x="384" y="211" type="line"/>
      <point x="106" y="489" type="line"/>
      <point x="150" y="534" type="line"/>
      <point x="384" y="302" type="line"/>
    </contour>
  </outline>
</glyph>
<glyph name="uniE004" format="2">
  <advance width="1024"/>
  <unicode hex="E004"/>
  <outline>
    <contour>
      <point x="256" y="768" type="line"/>
      <point x="768" y="768" type="line"/>
      <point x="768" y="256" type="line"/>
      <point x="256" y="256" type="line"/>
    </contour>
  </outline>
</glyph>
<glyph name="uniE005" format="2">
  <advance width="1024"/>
  <unicode hex="E005"/>
  <outline>
    <contour>
      <point x="0" y="1024" type="line"/>
      <point x="1024" y="1024" type="line"/>
      <point x="1024" y="0" type="line"/>
      <point x="0" y="0" type="line"/>
    </contour>
    <contour>
      <point x="384" y="210" type="line"/>
      <point x="854" y="681" type="line"/>
      <point x="810" y="726" type="line"/>
      <point x="384" y="302" type="line"/>
      <point x="215" y="470" type="line"/>
      <point x="170" y="426" type="line"/>
    </contour>
  </outline>
</glyph>
<glyph name="uniE008" format="2">
  <advance width="1024"/>
  <unicode hex="E008"/>
  <outline>
    <contour>
      <point x="873" y="790" type="line"/>
      <point x="918" y="746" type="line"/>
      <point x="384" y="211" type="line"/>
      <point x="106" y="489" type="line"/>
      <point x="150" y="534" type="line"/>
      <point x="384" y="302" type="line"/>
    </contour>
  </outline>
</glyph>
<glyph name="uniE00C" format="2">
  <advance width="1024"/>
  <unicode hex="E00C"/>
  <outline>
    <contour>
      <point x="752" y="960" type="qcurve" smooth="yes"/>
      <point x="790" y="960"/>
      <point x="825" y="950" type="qcurve" smooth="yes"/>
      <point x="859" y="941"/>
      <point x="889" y="923" type="qcurve" smooth="yes"/>
      <point x="919" y="906"/>
      <point x="944" y="881" type="qcurve" smooth="yes"/>
      <point x="969" y="856"/>
      <point x="987" y="826" type="qcurve" smooth="yes"/>
      <point x="1004" y="796"/>
      <point x="1014" y="761" type="qcurve" smooth="yes"/>
      <point x="1024" y="726"/>
      <point x="1024" y="689" type="qcurve" smooth="yes"/>
      <point x="1024" y="635"/>
      <point x="1003" y="585" type="qcurve" smooth="yes"/>
      <point x="983" y="535"/>
      <point x="945" y="497" type="qcurve" smooth="yes"/>
      <point x="512" y="64" type="line"/>
      <point x="80" y="496" type="line" smooth="yes"/>
      <point x="42" y="534"/>
      <point x="21" y="584" type="qcurve" smooth="yes"/>
      <point x="0" y="634"/>
      <point x="0" y="688" type="qcurve" smooth="yes"/>
      <point x="0" y="726"/>
      <point x="10" y="761" type="qcurve" smooth="yes"/>
      <point x="19" y="795"/>
      <point x="37" y="825" type="qcurve" smooth="yes"/>
      <point x="54" y="855"/>
      <point x="79" y="880" type="qcurve" smooth="yes"/>
      <point x="104" y="905"/>
      <point x="134" y="923" type="qcurve" smooth="yes"/>
      <point x="164" y="940"/>
      <point x="199" y="950" type="qcurve" smooth="yes"/>
      <point x="234" y="960"/>
      <point x="271" y="960" type="qcurve" smooth="yes"/>
      <point x="326" y="960"/>
      <point x="377" y="939" type="qcurve" smooth="yes"/>
      <point x="428" y="917"/>
      <point x="466" y="878" type="qcurve"/>
      <point x="326" y="736" type="line"/>
      <point x="549" y="512" type="line"/>
      <point x="403" y="366" type="line"/>
      <point x="448" y="320" type="line"/>
      <point x="640" y="512" type="line"/>
      <point x="416" y="736" type="line"/>
      <point x="440" y="760"/>
      <point x="464" y="787" type="qcurve" smooth="yes"/>
      <point x="488" y="813"/>
      <point x="513" y="838" type="qcurve" smooth="yes"/>
      <point x="537" y="862"/>
      <point x="564" y="885" type="qcurve" smooth="yes"/>
      <point x="590" y="907"/>
      <point x="619" y="924" type="qcurve" smooth="yes"/>
      <point x="648" y="940"/>
      <point x="681" y="950" type="qcurve" smooth="yes"/>
      <point x="714" y="960"/>
    </contour>
  </outline>
</glyph>
<glyph name="uniE010" format="2">
  <advance width="1024"/>
  <unicode hex="E010"/>
  <outline>
    <contour>
      <point x="977" y="257" type="line"/>
      <point x="512" y="722" type="line"/>
      <point x="47" y="258" type="line"/>
      <point x="2" y="302" type="line"/>
      <point x="512" y="813" type="line"/>
      <point x="1022" y="303" type="line"/>
    </contour>
  </outline>
</glyph>
<glyph name="uniE096" format="2">
  <advance width="1024"/>
  <unicode hex="E096"/>
  <outline>
    <contour>
      <point x="766" y="46" type="line"/>
      <point x="722" y="2" type="line"/>
      <point x="211" y="512" type="line"/>
      <point x="721" y="1022" type="line"/>
      <point x="766" y="978" type="line"/>
      <point x="302" y="512" type="line"/>
    </contour>
  </outline>
</glyph>
<glyph name="uniE0A1" format="2">
  <advance width="1024"/>
  <unicode hex="E0A1"/>
  <outline>
    <contour>
      <point x="512" y="333" type="line"/>
      <point x="969" y="790" type="line"/>
      <point x="1014" y="746" type="line"/>
      <point x="512" y="243" type="line"/>
      <point x="10" y="745" type="line"/>
      <point x="54" y="790" type="line"/>
    </contour>
  </outline>
</glyph>
<glyph name="uniE0B8" format="2">
  <advance width="1024"/>
  <unicode hex="E0B8"/>
  <outline>
    <contour>
      <point x="1024" y="341" type="line"/>
      <point x="0" y="341" type="line"/>
      <point x="0" y="682" type="line"/>
      <point x="1024" y="682" type="line"/>
    </contour>
  </outline>
</glyph>
<glyph name="uniE0D5" format="2">
  <advance width="1024"/>
  <unicode hex="E0D5"/>
  <outline>
    <contour>
      <point x="1024" y="544" type="line"/>
      <point x="1024" y="480" type="line"/>
      <point x="125" y="480" type="line"/>
      <point x="518" y="87" type="line"/>
      <point x="474" y="42" type="line"/>
      <point x="3" y="512" type="line"/>
      <point x="473" y="982" type="line"/>
      <point x="518" y="938" type="line"/>
      <point x="125" y="544" type="line"/>
    </contour>
  </outline>
</glyph>
<glyph name="uniE0E2" format="2">
  <advance width="1024"/>
  <unicode hex="E0E2"/>
  <outline>
    <contour>
      <point x="766" y="46" type="line"/>
      <point x="722" y="2" type="line"/>
      <point x="211" y="512" type="line"/>
      <point x="721" y="1022" type="line"/>
      <point x="766" y="978" type="line"/>
      <point x="302" y="512" type="line"/>
    </contour>
  </outline>
</glyph>
<glyph name="uniE0E7" format="2">
  <advance width="1024"/>
  <unicode hex="E0E7"/>
  <outline>
    <contour>
      <point x="320" y="146" type="line"/>
      <point x="10" y="457" type="line"/>
      <point x="54" y="502" type="line"/>
      <point x="320" y="238" type="line"/>
      <point x="969" y="886" type="line"/>
      <point x="1014" y="842" type="line"/>
    </contour>
  </outline>
</glyph>
<glyph name="uniE101" format="2">
  <advance width="1024"/>
  <unicode hex="E101"/>
  <outline>
    <contour>
      <point x="832" y="896" type="line"/>
      <point x="896" y="896" type="line"/>
      <point x="896" y="128" type="line"/>
      <point x="832" y="128" type="line"/>
    </contour>
    <contour>
      <point x="128" y="128" type="line"/>
      <point x="128" y="896" type="line"/>
      <point x="672" y="512" type="line"/>
    </contour>
    <contour>
      <point x="192" y="772" type="line"/>
      <point x="192" y="252" type="line"/>
      <point x="561" y="512" type="line"/>
    </contour>
  </outline>
</glyph>
<glyph name="uniE102" format="2">
  <advance width="1024"/>
  <unicode hex="E102"/>
  <outline>
    <contour>
      <point x="256" y="960" type="line"/>
      <point x="896" y="512" type="line"/>
      <point x="256" y="64" type="line"/>
    </contour>
    <contour>
      <point x="320" y="837" type="line"/>
      <point x="320" y="187" type="line"/>
      <point x="784" y="512" type="line"/>
    </contour>
  </outline>
</glyph>
<glyph name="uniE106" format="2">
  <advance width="1024"/>
  <unicode hex="E106"/>
  <outline>
    <contour>
      <point x="557" y="512" type="line"/>
      <point x="1014" y="55" type="line"/>
      <point x="970" y="10" type="line"/>
      <point x="512" y="466" type="line"/>
      <point x="55" y="10" type="line"/>
      <point x="10" y="54" type="line"/>
      <point x="466" y="512" type="line"/>
      <point x="10" y="969" type="line"/>
      <point x="54" y="1014" type="line"/>
      <point x="512" y="558" type="line"/>
      <point x="969" y="1014" type="line"/>
      <point x="1014" y="970" type="line"/>
    </contour>
  </outline>
</glyph>
<glyph name="uniE107" format="2">
  <advance width="1024"/>
  <unicode hex="E107"/>
  <outline>
    <contour>
      <point x="896" y="832" type="line"/>
      <point x="832" y="832" type="line"/>
      <point x="832" y="96" type="line" smooth="yes"/>
      <point x="832" y="76"/>
      <point x="825" y="59" type="qcurve" smooth="yes"/>
      <point x="817" y="41"/>
      <point x="804" y="28" type="qcurve" smooth="yes"/>
      <point x="791" y="15"/>
      <point x="774" y="8" type="qcurve" smooth="yes"/>
      <point x="756" y="0"/>
      <point x="736" y="0" type="qcurve" smooth="yes"/>
      <point x="224" y="0" type="line" smooth="yes"/>
      <point x="204" y="0"/>
      <point x="187" y="7" type="qcurve" smooth="yes"/>
      <point x="169" y="15"/>
      <point x="156" y="28" type="qcurve" smooth="yes"/>
      <point x="143" y="41"/>
      <point x="136" y="58" type="qcurve" smooth="yes"/>
      <point x="128" y="76"/>
      <point x="128" y="96" type="qcurve" smooth="yes"/>
      <point x="128" y="832" type="line"/>
      <point x="64" y="832" type="line"/>
      <point x="64" y="896" type="line"/>
      <point x="320" y="896" type="line"/>
      <point x="320" y="960" type="line" smooth="yes"/>
      <point x="320" y="973"/>
      <point x="325" y="985" type="qcurve" smooth="yes"/>
      <point x="330" y="996"/>
      <point x="339" y="1005" type="qcurve" smooth="yes"/>
      <point x="347" y="1014"/>
      <point x="359" y="1019" type="qcurve" smooth="yes"/>
      <point x="370" y="1024"/>
      <point x="384" y="1024" type="qcurve" smooth="yes"/>
      <point x="576" y="1024" type="line" smooth="yes"/>
      <point x="589" y="1024"/>
      <point x="601" y="1019" type="qcurve" smooth="yes"/>
      <point x="612" y="1014"/>
      <point x="621" y="1005" type="qcurve" smooth="yes"/>
      <point x="630" y="997"/>
      <point x="635" y="985" type="qcurve" smooth="yes"/>
      <point x="640" y="974"/>
      <point x="640" y="960" type="qcurve" smooth="yes"/>
      <point x="640" y="896" type="line"/>
      <point x="896" y="896" type="line"/>
    </contour>
    <contour>
      <point x="384" y="896" type="line"/>
      <point x="576" y="896" type="line"/>
      <point x="576" y="960" type="line"/>
      <point x="384" y="960" type="line"/>
    </contour>
    <contour>
      <point x="768" y="832" type="line"/>
      <point x="192" y="832" type="line"/>
      <point x="192" y="96" type="line" smooth="yes"/>
      <point x="192" y="83"/>
      <point x="201" y="74" type="qcurve" smooth="yes"/>
      <point x="211" y="64"/>
      <point x="224" y="64" type="qcurve" smooth="yes"/>
      <point x="736" y="64" type="line" smooth="yes"/>
      <point x="749" y="64"/>
      <point x="758" y="73" type="qcurve" smooth="yes"/>
      <point x="768" y="83"/>
      <point x="768" y="96" type="qcurve" smooth="yes"/>
    </contour>
    <contour>
      <point x="384" y="192" type="line"/>
      <point x="320" y="192" type="line"/>
      <point x="320" y="704" type="line"/>
      <point x="384" y="704" type="line"/>
    </contour>
    <contour>
      <point x="512" y="192" type="line"/>
      <point x="448" y="192" type="line"/>
      <point x="448" y="704" type="line"/>
      <point x="512" y="704" type="line"/>
    </contour>
    <contour>
      <point x="640" y="192" type="line"/>
      <point x="576" y="192" type="line"/>
      <point x="576" y="704" type="line"/>
      <point x="640" y="704" type="line"/>
    </contour>
  </outline>
</glyph>
<glyph name="uniE108" format="2">
  <advance width="1024"/>
  <unicode hex="E108"/>
  <outline>
    <contour>
      <point x="1024" y="480" type="line"/>
      <point x="0" y="480" type="line"/>
      <point x="0" y="544" type="line"/>
      <point x="1024" y="544" type="line"/>
    </contour>
  </outline>
</glyph>
<glyph name="uniE109" format="2">
  <advance width="1024"/>
  <unicode hex="E109"/>
  <outline>
    <contour>
      <point x="1024" y="544" type="line"/>
      <point x="1024" y="480" type="line"/>
      <point x="544" y="480" type="line"/>
      <point x="544" y="0" type="line"/>
      <point x="480" y="0" type="line"/>
      <point x="480" y="480" type="line"/>
      <point x="0" y="480" type="line"/>
      <point x="0" y="544" type="line"/>
      <point x="480" y="544" type="line"/>
      <point x="480" y="1024" type="line"/>
      <point x="544" y="1024" type="line"/>
      <point x="544" y="544" type="line"/>
    </contour>
  </outline>
</glyph>
<glyph name="uniE10A" format="2">
  <advance width="1024"/>
  <unicode hex="E10A"/>
  <outline>
    <contour>
      <point x="902" y="857" type="line"/>
      <point x="558" y="512" type="line"/>
      <point x="902" y="167" type="line"/>
      <point x="858" y="122" type="line"/>
      <point x="512" y="466" type="line"/>
      <point x="167" y="122" type="line"/>
      <point x="122" y="166" type="line"/>
      <point x="466" y="512" type="line"/>
      <point x="122" y="857" type="line"/>
      <point x="166" y="902" type="line"/>
      <point x="512" y="558" type="line"/>
      <point x="857" y="902" type="line"/>
    </contour>
  </outline>
</glyph>
<glyph name="uniE10C" format="2">
  <advance width="1024"/>
  <unicode hex="E10C"/>
  <outline>
    <contour>
      <point x="128" y="576" type="qcurve" smooth="yes"/>
      <point x="141" y="576"/>
      <point x="153" y="571" type="qcurve" smooth="yes"/>
      <point x="164" y="566"/>
      <point x="173" y="557" type="qcurve" smooth="yes"/>
      <point x="182" y="549"/>
      <point x="187" y="537" type="qcurve" smooth="yes"/>
      <point x="192" y="526"/>
      <point x="192" y="512" type="qcurve" smooth="yes"/>
      <point x="192" y="499"/>
      <point x="187" y="487" type="qcurve" smooth="yes"/>
      <point x="182" y="476"/>
      <point x="173" y="467" type="qcurve" smooth="yes"/>
      <point x="165" y="458"/>
      <point x="153" y="453" type="qcurve" smooth="yes"/>
      <point x="142" y="448"/>
      <point x="128" y="448" type="qcurve" smooth="yes"/>
      <point x="115" y="448"/>
      <point x="103" y="453" type="qcurve" smooth="yes"/>
      <point x="92" y="458"/>
      <point x="83" y="467" type="qcurve" smooth="yes"/>
      <point x="74" y="475"/>
      <point x="69" y="487" type="qcurve" smooth="yes"/>
      <point x="64" y="498"/>
      <point x="64" y="512" type="qcurve" smooth="yes"/>
      <point x="64" y="525"/>
      <point x="69" y="537" type="qcurve" smooth="yes"/>
      <point x="74" y="548"/>
      <point x="83" y="557" type="qcurve" smooth="yes"/>
      <point x="91" y="566"/>
      <point x="103" y="571" type="qcurve" smooth="yes"/>
      <point x="114" y="576"/>
    </contour>
    <contour>
      <point x="512" y="576" type="qcurve" smooth="yes"/>
      <point x="525" y="576"/>
      <point x="537" y="571" type="qcurve" smooth="yes"/>
      <point x="548" y="566"/>
      <point x="557" y="557" type="qcurve" smooth="yes"/>
      <point x="566" y="549"/>
      <point x="571" y="537" type="qcurve" smooth="yes"/>
      <point x="576" y="526"/>
      <point x="576" y="512" type="qcurve" smooth="yes"/>
      <point x="576" y="499"/>
      <point x="571" y="487" type="qcurve" smooth="yes"/>
      <point x="566" y="476"/>
      <point x="557" y="467" type="qcurve" smooth="yes"/>
      <point x="549" y="458"/>
      <point x="537" y="453" type="qcurve" smooth="yes"/>
      <point x="526" y="448"/>
      <point x="512" y="448" type="qcurve" smooth="yes"/>
      <point x="499" y="448"/>
      <point x="487" y="453" type="qcurve" smooth="yes"/>
      <point x="476" y="458"/>
      <point x="467" y="467" type="qcurve" smooth="yes"/>
      <point x="458" y="475"/>
      <point x="453" y="487" type="qcurve" smooth="yes"/>
      <point x="448" y="498"/>
      <point x="448" y="512" type="qcurve" smooth="yes"/>
      <point x="448" y="525"/>
      <point x="453" y="537" type="qcurve" smooth="yes"/>
      <point x="458" y="548"/>
      <point x="467" y="557" type="qcurve" smooth="yes"/>
      <point x="475" y="566"/>
      <point x="487" y="571" type="qcurve" smooth="yes"/>
      <point x="498" y="576"/>
    </contour>
    <contour>
      <point x="896" y="576" type="qcurve" smooth="yes"/>
      <point x="909" y="576"/>
      <point x="921" y="571" type="qcurve" smooth="yes"/>
      <point x="932" y="566"/>
      <point x="941" y="557" type="qcurve" smooth="yes"/>
      <point x="950" y="549"/>
      <point x="955" y="537" type="qcurve" smooth="yes"/>
      <point x="960" y="526"/>
      <point x="960" y="512" type="qcurve" smooth="yes"/>
      <point x="960" y="499"/>
      <point x="955" y="487" type="qcurve" smooth="yes"/>
      <point x="950" y="476"/>
      <point x="941" y="467" type="qcurve" smooth="yes"/>
      <point x="933" y="458"/>
      <point x="921" y="453" type="qcurve" smooth="yes"/>
      <point x="910" y="448"/>
      <point x="896" y="448" type="qcurve" smooth="yes"/>
      <point x="883" y="448"/>
      <point x="871" y="453" type="qcurve" smooth="yes"/>
      <point x="860" y="458"/>
      <point x="851" y="467" type="qcurve" smooth="yes"/>
      <point x="842" y="475"/>
      <point x="837" y="487" type="qcurve" smooth="yes"/>
      <point x="832" y="498"/>
      <point x="832" y="512" type="qcurve" smooth="yes"/>
      <point x="832" y="525"/>
      <point x="837" y="537" type="qcurve" smooth="yes"/>
      <point x="842" y="548"/>
      <point x="851" y="557" type="qcurve" smooth="yes"/>
      <point x="859" y="566"/>
      <point x="871" y="571" type="qcurve" smooth="yes"/>
      <point x="882" y="576"/>
    </contour>
  </outline>
</glyph>
<glyph name="uniE10E" format="2">
  <advance width="1024"/>
  <unicode hex="E10E"/>
  <outline>
    <contour>
      <point x="544" y="1022" type="qcurve" smooth="yes"/>
      <point x="592" y="1022"/>
      <point x="636" y="1010" type="qcurve" smooth="yes"/>
      <point x="681" y="997"/>
      <point x="720" y="974" type="qcurve" smooth="yes"/>
      <point x="759" y="951"/>
      <point x="791" y="919" type="qcurve" smooth="yes"/>
      <point x="823" y="887"/>
      <point x="846" y="848" type="qcurve" smooth="yes"/>
      <point x="869" y="809"/>
      <point x="881" y="765" type="qcurve" smooth="yes"/>
      <point x="894" y="720"/>
      <point x="894" y="672" type="qcurve" smooth="yes"/>
      <point x="894" y="604"/>
      <point x="868" y="540" type="qcurve" smooth="yes"/>
      <point x="842" y="476"/>
      <point x="793" y="428" type="qcurve" smooth="yes"/>
      <point x="375" y="10" type="line"/>
      <point x="330" y="54" type="line"/>
      <point x="747" y="473" type="line" smooth="yes"/>
      <point x="787" y="512"/>
      <point x="808" y="564" type="qcurve" smooth="yes"/>
      <point x="830" y="616"/>
      <point x="830" y="672" type="qcurve" smooth="yes"/>
      <point x="830" y="730"/>
      <point x="807" y="782" type="qcurve" smooth="yes"/>
      <point x="785" y="834"/>
      <point x="746" y="873" type="qcurve" smooth="yes"/>
      <point x="707" y="912"/>
      <point x="655" y="935" type="qcurve" smooth="yes"/>
      <point x="603" y="958"/>
      <point x="544" y="958" type="qcurve" smooth="yes"/>
      <point x="490" y="958"/>
      <point x="449" y="942" type="qcurve" smooth="yes"/>
      <point x="408" y="926"/>
      <point x="373" y="899" type="qcurve" smooth="yes"/>
      <point x="338" y="872"/>
      <point x="305" y="838" type="qcurve" smooth="yes"/>
      <point x="273" y="804"/>
      <point x="238" y="768" type="qcurve"/>
      <point x="448" y="768" type="line"/>
      <point x="448" y="704" type="line"/>
      <point x="128" y="704" type="line"/>
      <point x="128" y="1024" type="line"/>
      <point x="192" y="1024" type="line"/>
      <point x="192" y="814" type="line"/>
      <point x="219" y="841"/>
      <point x="245" y="868" type="qcurve" smooth="yes"/>
      <point x="270" y="894"/>
      <point x="295" y="917" type="qcurve" smooth="yes"/>
      <point x="320" y="940"/>
      <point x="347" y="960" type="qcurve" smooth="yes"/>
      <point x="373" y="979"/>
      <point x="403" y="993" type="qcurve" smooth="yes"/>
      <point x="432" y="1006"/>
      <point x="467" y="1014" type="qcurve" smooth="yes"/>
      <point x="502" y="1022"/>
    </contour>
  </outline>
</glyph>
<glyph name="uniE10F" format="2">
  <advance width="1024"/>
  <unicode hex="E10F"/>
  <outline>
    <contour>
      <point x="512" y="941" type="line"/>
      <point x="982" y="471" type="line"/>
      <point x="938" y="426" type="line"/>
      <point x="896" y="466" type="line"/>
      <point x="896" y="64" type="line"/>
      <point x="576" y="64" type="line"/>
      <point x="576" y="384" type="line"/>
      <point x="448" y="384" type="line"/>
      <point x="448" y="64" type="line"/>
      <point x="128" y="64" type="line"/>
      <point x="128" y="466" type="line"/>
      <point x="87" y="426" type="line"/>
      <point x="42" y="470" type="line"/>
    </contour>
    <contour>
      <point x="832" y="128" type="line"/>
      <point x="832" y="530" type="line"/>
      <point x="512" y="850" type="line"/>
      <point x="192" y="531" type="line"/>
      <point x="192" y="128" type="line"/>
      <point x="384" y="128" type="line"/>
      <point x="384" y="448" type="line"/>
      <point x="640" y="448" type="line"/>
      <point x="640" y="128" type="line"/>
    </contour>
  </outline>
</glyph>
<glyph name="uniE111" format="2">
  <advance width="1024"/>
  <unicode hex="E111"/>
  <outline>
    <contour>
      <point x="550" y="982" type="line"/>
      <point x="1021" y="512" type="line"/>
      <point x="551" y="42" type="line"/>
      <point x="506" y="86" type="line"/>
      <point x="899" y="480" type="line"/>
      <point x="0" y="480" type="line"/>
      <point x="0" y="544" type="line"/>
      <point x="899" y="544" type="line"/>
      <point x="506" y="937" type="line"/>
    </contour>
  </outline>
</glyph>
<glyph name="uniE115" format="2">
  <advance width="1024"/>
  <unicode hex="E115"/>
  <outline>
    <contour>
      <point x="891" y="530" type="line" smooth="yes"/>
      <point x="891" y="526"/>
      <point x="892" y="521" type="qcurve" smooth="yes"/>
      <point x="892" y="517"/>
      <point x="892" y="512" type="qcurve" smooth="yes"/>
      <point x="892" y="508"/>
      <point x="892" y="503" type="qcurve" smooth="yes"/>
      <point x="892" y="499"/>
      <point x="892" y="494" type="qcurve"/>
      <point x="1021" y="414" type="line"/>
      <point x="942" y="222" type="line"/>
      <point x="793" y="256" type="line"/>
      <point x="781" y="243"/>
      <point x="768" y="231" type="qcurve"/>
      <point x="802" y="83" type="line"/>
      <point x="611" y="3" type="line"/>
      <point x="530" y="132" type="line" smooth="yes"/>
      <point x="526" y="132"/>
      <point x="521" y="132" type="qcurve" smooth="yes"/>
      <point x="517" y="132"/>
      <point x="512" y="132" type="qcurve" smooth="yes"/>
      <point x="508" y="132"/>
      <point x="503" y="132" type="qcurve" smooth="yes"/>
      <point x="499" y="132"/>
      <point x="494" y="132" type="qcurve"/>
      <point x="414" y="3" type="line"/>
      <point x="222" y="82" type="line"/>
      <point x="256" y="231" type="line"/>
      <point x="243" y="243"/>
      <point x="231" y="256" type="qcurve"/>
      <point x="83" y="222" type="line"/>
      <point x="3" y="413" type="line"/>
      <point x="132" y="494" type="line" smooth="yes"/>
      <point x="132" y="498"/>
      <point x="132" y="503" type="qcurve" smooth="yes"/>
      <point x="132" y="507"/>
      <point x="132" y="512" type="qcurve" smooth="yes"/>
      <point x="132" y="516"/>
      <point x="132" y="521" type="qcurve" smooth="yes"/>
      <point x="132" y="525"/>
      <point x="132" y="530" type="qcurve"/>
      <point x="3" y="610" type="line"/>
      <point x="82" y="802" type="line"/>
      <point x="231" y="768" type="line"/>
      <point x="243" y="781"/>
      <point x="256" y="793" type="qcurve"/>
      <point x="222" y="941" type="line"/>
      <point x="413" y="1021" type="line"/>
      <point x="494" y="892" type="line" smooth="yes"/>
      <point x="498" y="892"/>
      <point x="503" y="892" type="qcurve" smooth="yes"/>
      <point x="507" y="892"/>
      <point x="512" y="892" type="qcurve" smooth="yes"/>
      <point x="516" y="892"/>
      <point x="521" y="892" type="qcurve" smooth="yes"/>
      <point x="525" y="892"/>
      <point x="530" y="892" type="qcurve"/>
      <point x="610" y="1021" type="line"/>
      <point x="802" y="942" type="line"/>
      <point x="768" y="793" type="line"/>
      <point x="781" y="781"/>
      <point x="793" y="768" type="qcurve"/>
      <point x="941" y="802" type="line"/>
      <point x="1021" y="611" type="line"/>
    </contour>
    <contour>
      <point x="833" y="465" type="line"/>
      <point x="834" y="477"/>
      <point x="835" y="489" type="qcurve" smooth="yes"/>
      <point x="836" y="500"/>
      <point x="836" y="512" type="qcurve" smooth="yes"/>
      <point x="836" y="524"/>
      <point x="835" y="536" type="qcurve" smooth="yes"/>
      <point x="834" y="548"/>
      <point x="833" y="559" type="qcurve"/>
      <point x="951" y="633" type="line"/>
      <point x="908" y="737" type="line"/>
      <point x="773" y="706" type="line"/>
      <point x="757" y="724"/>
      <point x="741" y="740" type="qcurve" smooth="yes"/>
      <point x="725" y="756"/>
      <point x="706" y="772" type="qcurve"/>
      <point x="737" y="908" type="line"/>
      <point x="633" y="951" type="line"/>
      <point x="559" y="833" type="line"/>
      <point x="548" y="834"/>
      <point x="536" y="835" type="qcurve" smooth="yes"/>
      <point x="524" y="836"/>
      <point x="512" y="836" type="qcurve" smooth="yes"/>
      <point x="500" y="836"/>
      <point x="488" y="835" type="qcurve" smooth="yes"/>
      <point x="477" y="834"/>
      <point x="465" y="833" type="qcurve"/>
      <point x="391" y="951" type="line"/>
      <point x="287" y="908" type="line"/>
      <point x="318" y="773" type="line"/>
      <point x="300" y="757"/>
      <point x="284" y="741" type="qcurve" smooth="yes"/>
      <point x="268" y="725"/>
      <point x="252" y="706" type="qcurve"/>
      <point x="116" y="737" type="line"/>
      <point x="73" y="633" type="line"/>
      <point x="191" y="559" type="line"/>
      <point x="190" y="547"/>
      <point x="189" y="535" type="qcurve" smooth="yes"/>
      <point x="188" y="524"/>
      <point x="188" y="512" type="qcurve" smooth="yes"/>
      <point x="188" y="500"/>
      <point x="189" y="488" type="qcurve" smooth="yes"/>
      <point x="190" y="476"/>
      <point x="191" y="465" type="qcurve"/>
      <point x="73" y="391" type="line"/>
      <point x="116" y="287" type="line"/>
      <point x="251" y="318" type="line"/>
      <point x="267" y="300"/>
      <point x="283" y="284" type="qcurve" smooth="yes"/>
      <point x="299" y="268"/>
      <point x="318" y="252" type="qcurve"/>
      <point x="287" y="116" type="line"/>
      <point x="391" y="73" type="line"/>
      <point x="465" y="191" type="line"/>
      <point x="476" y="190"/>
      <point x="488" y="189" type="qcurve" smooth="yes"/>
      <point x="500" y="188"/>
      <point x="512" y="188" type="qcurve" smooth="yes"/>
      <point x="524" y="188"/>
      <point x="536" y="189" type="qcurve" smooth="yes"/>
      <point x="547" y="190"/>
      <point x="559" y="191" type="qcurve"/>
      <point x="633" y="73" type="line"/>
      <point x="737" y="116" type="line"/>
      <point x="706" y="251" type="line"/>
      <point x="724" y="267"/>
      <point x="740" y="283" type="qcurve" smooth="yes"/>
      <point x="756" y="299"/>
      <point x="772" y="318" type="qcurve"/>
      <point x="908" y="287" type="line"/>
      <point x="951" y="391" type="line"/>
    </contour>
    <contour>
      <point x="512" y="700" type="qcurve" smooth="yes"/>
      <point x="551" y="700"/>
      <point x="585" y="685" type="qcurve" smooth="yes"/>
      <point x="619" y="671"/>
      <point x="645" y="645" type="qcurve" smooth="yes"/>
      <point x="670" y="620"/>
      <point x="685" y="585" type="qcurve" smooth="yes"/>
      <point x="700" y="551"/>
      <point x="700" y="512" type="qcurve" smooth="yes"/>
      <point x="700" y="473"/>
      <point x="685" y="439" type="qcurve" smooth="yes"/>
      <point x="671" y="405"/>
      <point x="645" y="379" type="qcurve" smooth="yes"/>
      <point x="620" y="354"/>
      <point x="585" y="339" type="qcurve" smooth="yes"/>
      <point x="551" y="324"/>
      <point x="512" y="324" type="qcurve" smooth="yes"/>
      <point x="473" y="324"/>
      <point x="439" y="339" type="qcurve" smooth="yes"/>
      <point x="405" y="353"/>
      <point x="379" y="379" type="qcurve" smooth="yes"/>
      <point x="354" y="404"/>
      <point x="339" y="439" type="qcurve" smooth="yes"/>
      <point x="324" y="473"/>
      <point x="324" y="512" type="qcurve" smooth="yes"/>
      <point x="324" y="551"/>
      <point x="339" y="585" type="qcurve" smooth="yes"/>
      <point x="353" y="619"/>
      <point x="379" y="645" type="qcurve" smooth="yes"/>
      <point x="404" y="670"/>
      <point x="439" y="685" type="qcurve" smooth="yes"/>
      <point x="473" y="700"/>
    </contour>
    <contour>
      <point x="512" y="380" type="qcurve" smooth="yes"/>
      <point x="539" y="380"/>
      <point x="563" y="390" type="qcurve" smooth="yes"/>
      <point x="587" y="400"/>
      <point x="605" y="418" type="qcurve" smooth="yes"/>
      <point x="623" y="436"/>
      <point x="634" y="460" type="qcurve" smooth="yes"/>
      <point x="644" y="484"/>
      <point x="644" y="512" type="qcurve" smooth="yes"/>
      <point x="644" y="539"/>
      <point x="634" y="563" type="qcurve" smooth="yes"/>
      <point x="624" y="587"/>
      <point x="606" y="605" type="qcurve" smooth="yes"/>
      <point x="588" y="623"/>
      <point x="564" y="634" type="qcurve" smooth="yes"/>
      <point x="540" y="644"/>
      <point x="512" y="644" type="qcurve" smooth="yes"/>
      <point x="485" y="644"/>
      <point x="461" y="634" type="qcurve" smooth="yes"/>
      <point x="437" y="624"/>
      <point x="419" y="606" type="qcurve" smooth="yes"/>
      <point x="401" y="588"/>
      <point x="390" y="564" type="qcurve" smooth="yes"/>
      <point x="380" y="540"/>
      <point x="380" y="512" type="qcurve" smooth="yes"/>
      <point x="380" y="485"/>
      <point x="390" y="461" type="qcurve" smooth="yes"/>
      <point x="400" y="437"/>
      <point x="418" y="419" type="qcurve" smooth="yes"/>
      <point x="436" y="401"/>
      <point x="460" y="390" type="qcurve" smooth="yes"/>
      <point x="484" y="380"/>
    </contour>
  </outline>
</glyph>
<glyph name="uniE117" format="2">
  <advance width="1024"/>
  <unicode hex="E117"/>
  <outline>
    <contour>
      <point x="512" y="64" type="qcurve" smooth="yes"/>
      <point x="589" y="64"/>
      <point x="660" y="88" type="qcurve" smooth="yes"/>
      <point x="730" y="111"/>
      <point x="789" y="155" type="qcurve" smooth="yes"/>
      <point x="847" y="198"/>
      <point x="890" y="259" type="qcurve" smooth="yes"/>
      <point x="933" y="319"/>
      <point x="956" y="393" type="qcurve"/>
      <point x="1017" y="375" type="line"/>
      <point x="992" y="291"/>
      <point x="943" y="222" type="qcurve" smooth="yes"/>
      <point x="893" y="154"/>
      <point x="826" y="104" type="qcurve" smooth="yes"/>
      <point x="760" y="55"/>
      <point x="679" y="27" type="qcurve" smooth="yes"/>
      <point x="599" y="0"/>
      <point x="512" y="0" type="qcurve" smooth="yes"/>
      <point x="444" y="0"/>
      <point x="379" y="17" type="qcurve" smooth="yes"/>
      <point x="314" y="34"/>
      <point x="256" y="66" type="qcurve" smooth="yes"/>
      <point x="198" y="98"/>
      <point x="149" y="145" type="qcurve" smooth="yes"/>
      <point x="100" y="191"/>
      <point x="64" y="249" type="qcurve"/>
      <point x="64" y="128" type="line"/>
      <point x="0" y="128" type="line"/>
      <point x="0" y="384" type="line"/>
      <point x="256" y="384" type="line"/>
      <point x="256" y="320" type="line"/>
      <point x="98" y="320" type="line"/>
      <point x="127" y="262"/>
      <point x="171" y="214" type="qcurve" smooth="yes"/>
      <point x="215" y="167"/>
      <point x="269" y="134" type="qcurve" smooth="yes"/>
      <point x="323" y="101"/>
      <point x="385" y="82" type="qcurve" smooth="yes"/>
      <point x="446" y="64"/>
    </contour>
    <contour>
      <point x="1024" y="896" type="line"/>
      <point x="1024" y="640" type="line"/>
      <point x="768" y="640" type="line"/>
      <point x="768" y="704" type="line"/>
      <point x="926" y="704" type="line"/>
      <point x="897" y="762"/>
      <point x="853" y="810" type="qcurve" smooth="yes"/>
      <point x="809" y="857"/>
      <point x="755" y="890" type="qcurve" smooth="yes"/>
      <point x="701" y="923"/>
      <point x="639" y="942" type="qcurve" smooth="yes"/>
      <point x="578" y="960"/>
      <point x="512" y="960" type="qcurve" smooth="yes"/>
      <point x="435" y="960"/>
      <point x="364" y="936" type="qcurve" smooth="yes"/>
      <point x="294" y="913"/>
      <point x="235" y="869" type="qcurve" smooth="yes"/>
      <point x="177" y="826"/>
      <point x="134" y="765" type="qcurve" smooth="yes"/>
      <point x="91" y="705"/>
      <point x="68" y="631" type="qcurve"/>
      <point x="7" y="649" type="line"/>
      <point x="32" y="732"/>
      <point x="81" y="801" type="qcurve" smooth="yes"/>
      <point x="131" y="870"/>
      <point x="198" y="920" type="qcurve" smooth="yes"/>
      <point x="264" y="969"/>
      <point x="345" y="997" type="qcurve" smooth="yes"/>
      <point x="425" y="1024"/>
      <point x="512" y="1024" type="qcurve" smooth="yes"/>
      <point x="580" y="1024"/>
      <point x="645" y="1007" type="qcurve" smooth="yes"/>
      <point x="710" y="990"/>
      <point x="768" y="958" type="qcurve" smooth="yes"/>
      <point x="826" y="926"/>
      <point x="875" y="879" type="qcurve" smooth="yes"/>
      <point x="924" y="833"/>
      <point x="960" y="775" type="qcurve"/>
      <point x="960" y="896" type="line"/>
    </contour>
  </outline>
</glyph>
<glyph name="uniE118" format="2">
  <advance width="1024"/>
  <unicode hex="E118"/>
  <outline>
    <contour>
      <point x="192" y="0" type="line"/>
      <point x="192" y="64" type="line"/>
      <point x="768" y="64" type="line"/>
      <point x="768" y="0" type="line"/>
    </contour>
    <contour>
      <point x="790" y="489" type="line"/>
      <point x="480" y="177" type="line"/>
      <point x="170" y="489" type="line"/>
      <point x="214" y="534" type="line"/>
      <point x="448" y="300" type="line"/>
      <point x="448" y="1024" type="line"/>
      <point x="512" y="1024" type="line"/>
      <point x="512" y="300" type="line"/>
      <point x="745" y="534" type="line"/>
    </contour>
  </outline>
</glyph>
<glyph name="uniE119" format="2">
  <advance width="1024"/>
  <unicode hex="E119"/>
  <outline>
    <contour>
      <point x="0" y="832" type="line"/>
      <point x="1024" y="832" type="line"/>
      <point x="1024" y="192" type="line"/>
      <point x="0" y="192" type="line"/>
    </contour>
    <contour>
      <point x="952" y="768" type="line"/>
      <point x="72" y="768" type="line"/>
      <point x="512" y="548" type="line"/>
    </contour>
    <contour>
      <point x="64" y="256" type="line"/>
      <point x="960" y="256" type="line"/>
      <point x="960" y="700" type="line"/>
      <point x="512" y="477" type="line"/>
      <point x="64" y="700" type="line"/>
    </contour>
  </outline>
</glyph>
<glyph name="uniE11E" format="2">
  <advance width="1024"/>
  <unicode hex="E11E"/>
  <outline>
    <contour>
      <point x="0" y="621" type="line"/>
      <point x="210" y="832" type="line"/>
      <point x="448" y="832" type="line"/>
      <point x="448" y="192" type="line"/>
      <point x="0" y="192" type="line"/>
    </contour>
    <contour>
      <point x="192" y="722" type="line"/>
      <point x="110" y="640" type="line"/>
      <point x="192" y="640" type="line"/>
    </contour>
    <contour>
      <point x="384" y="256" type="line"/>
      <point x="384" y="768" type="line"/>
      <point x="256" y="768" type="line"/>
      <point x="256" y="576" type="line"/>
      <point x="64" y="576" type="line"/>
      <point x="64" y="256" type="line"/>
    </contour>
    <contour>
      <point x="813" y="832" type="line"/>
      <point x="1024" y="622" type="line"/>
      <point x="1024" y="192" type="line"/>
      <point x="576" y="192" type="line"/>
      <point x="576" y="832" type="line"/>
    </contour>
    <contour>
      <point x="832" y="723" type="line"/>
      <point x="832" y="640" type="line"/>
      <point x="914" y="640" type="line"/>
    </contour>
    <contour>
      <point x="640" y="256" type="line"/>
      <point x="960" y="256" type="line"/>
      <point x="960" y="576" type="line"/>
      <point x="768" y="576" type="line"/>
      <point x="768" y="768" type="line"/>
      <point x="640" y="768" type="line"/>
    </contour>
  </outline>
</glyph>
<glyph name="uniE120" format="2">
  <advance width="1024"/>
  <unicode hex="E120"/>
  <outline>
    <contour>
      <point x="0" y="832" type="line"/>
      <point x="1024" y="832" type="line"/>
      <point x="1024" y="320" type="line"/>
      <point x="960" y="384" type="line"/>
      <point x="960" y="732" type="line"/>
      <point x="512" y="508" type="line"/>
      <point x="64" y="732" type="line"/>
      <point x="64" y="256" type="line"/>
      <point x="576" y="256" type="line"/>
      <point x="576" y="192" type="line"/>
      <point x="0" y="192" type="line"/>
    </contour>
    <contour>
      <point x="512" y="580" type="line"/>
      <point x="888" y="768" type="line"/>
      <point x="136" y="768" type="line"/>
    </contour>
    <contour>
      <point x="817" y="338" type="line"/>
      <point x="862" y="382" type="line"/>
      <point x="1021" y="224" type="line"/>
      <point x="863" y="66" type="line"/>
      <point x="818" y="110" type="line"/>
      <point x="899" y="192" type="line"/>
      <point x="640" y="192" type="line"/>
      <point x="640" y="256" type="line"/>
      <point x="899" y="256" type="line"/>
    </contour>
  </outline>
</glyph>
<glyph name="uniE121" format="2">
  <advance width="1024"/>
  <unicode hex="E121"/>
  <outline>
    <contour>
      <point x="512" y="0" type="qcurve" smooth="yes"/>
      <point x="450" y="0"/>
      <point x="393" y="16" type="qcurve" smooth="yes"/>
      <point x="336" y="32"/>
      <point x="286" y="61" type="qcurve" smooth="yes"/>
      <point x="236" y="90"/>
      <point x="195" y="131" type="qcurve" smooth="yes"/>
      <point x="155" y="172"/>
      <point x="125" y="222" type="qcurve" smooth="yes"/>
      <point x="96" y="271"/>
      <point x="80" y="329" type="qcurve" smooth="yes"/>
      <point x="64" y="386"/>
      <point x="64" y="448" type="qcurve" smooth="yes"/>
      <point x="64" y="510"/>
      <point x="80" y="567" type="qcurve" smooth="yes"/>
      <point x="96" y="624"/>
      <point x="125" y="674" type="qcurve" smooth="yes"/>
      <point x="154" y="724"/>
      <point x="195" y="765" type="qcurve" smooth="yes"/>
      <point x="236" y="805"/>
      <point x="286" y="835" type="qcurve" smooth="yes"/>
      <point x="335" y="864"/>
      <point x="393" y="880" type="qcurve" smooth="yes"/>
      <point x="450" y="896"/>
      <point x="512" y="896" type="qcurve" smooth="yes"/>
      <point x="574" y="896"/>
      <point x="631" y="880" type="qcurve" smooth="yes"/>
      <point x="688" y="864"/>
      <point x="738" y="835" type="qcurve" smooth="yes"/>
      <point x="788" y="806"/>
      <point x="829" y="765" type="qcurve" smooth="yes"/>
      <point x="869" y="724"/>
      <point x="899" y="674" type="qcurve" smooth="yes"/>
      <point x="928" y="625"/>
      <point x="944" y="567" type="qcurve" smooth="yes"/>
      <point x="960" y="510"/>
      <point x="960" y="448" type="qcurve" smooth="yes"/>
      <point x="960" y="386"/>
      <point x="944" y="329" type="qcurve" smooth="yes"/>
      <point x="928" y="272"/>
      <point x="899" y="222" type="qcurve" smooth="yes"/>
      <point x="870" y="172"/>
      <point x="829" y="131" type="qcurve" smooth="yes"/>
      <point x="788" y="91"/>
      <point x="738" y="61" type="qcurve" smooth="yes"/>
      <point x="689" y="32"/>
      <point x="631" y="16" type="qcurve" smooth="yes"/>
      <point x="574" y="0"/>
    </contour>
    <contour>
      <point x="512" y="832" type="qcurve" smooth="yes"/>
      <point x="433" y="832"/>
      <point x="363" y="802" type="qcurve" smooth="yes"/>
      <point x="293" y="772"/>
      <point x="241" y="719" type="qcurve" smooth="yes"/>
      <point x="189" y="667"/>
      <point x="158" y="597" type="qcurve" smooth="yes"/>
      <point x="128" y="528"/>
      <point x="128" y="448" type="qcurve" smooth="yes"/>
      <point x="128" y="369"/>
      <point x="158" y="299" type="qcurve" smooth="yes"/>
      <point x="188" y="229"/>
      <point x="241" y="177" type="qcurve" smooth="yes"/>
      <point x="293" y="125"/>
      <point x="363" y="94" type="qcurve" smooth="yes"/>
      <point x="432" y="64"/>
      <point x="512" y="64" type="qcurve" smooth="yes"/>
      <point x="591" y="64"/>
      <point x="661" y="94" type="qcurve" smooth="yes"/>
      <point x="731" y="124"/>
      <point x="783" y="177" type="qcurve" smooth="yes"/>
      <point x="835" y="229"/>
      <point x="866" y="299" type="qcurve" smooth="yes"/>
      <point x="896" y="368"/>
      <point x="896" y="448" type="qcurve" smooth="yes"/>
      <point x="896" y="527"/>
      <point x="866" y="597" type="qcurve" smooth="yes"/>
      <point x="836" y="667"/>
      <point x="783" y="719" type="qcurve" smooth="yes"/>
      <point x="731" y="771"/>
      <point x="661" y="802" type="qcurve" smooth="yes"/>
      <point x="592" y="832"/>
    </contour>
    <contour>
      <point x="512" y="448" type="line"/>
      <point x="704" y="448" type="line"/>
      <point x="704" y="384" type="line"/>
      <point x="448" y="384" type="line"/>
      <point x="448" y="704" type="line"/>
      <point x="512" y="704" type="line"/>
    </contour>
  </outline>
</glyph>
<glyph name="uniE127" format="2">
  <advance width="1024"/>
  <unicode hex="E127"/>
  <outline>
    <contour>
      <point x="0" y="832" type="line"/>
      <point x="1024" y="832" type="line"/>
      <point x="1024" y="256" type="line"/>
      <point x="0" y="256" type="line"/>
    </contour>
    <contour>
      <point x="64" y="768" type="line"/>
      <point x="64" y="320" type="line"/>
      <point x="704" y="320" type="line"/>
      <point x="704" y="768" type="line"/>
    </contour>
    <contour>
      <point x="960" y="320" type="line"/>
      <point x="960" y="768" type="line"/>
      <point x="768" y="768" type="line"/>
      <point x="768" y="320" type="line"/>
    </contour>
    <contour>
      <point x="640" y="576" type="line"/>
      <point x="640" y="512" type="line"/>
      <point x="430" y="512" type="line"/>
      <point x="510" y="431" type="line"/>
      <point x="466" y="386" type="line"/>
      <point x="307" y="544" type="line"/>
      <point x="465" y="702" type="line"/>
      <point x="510" y="658" type="line"/>
      <point x="430" y="576" type="line"/>
    </contour>
  </outline>
</glyph>
<glyph name="uniE128" format="2">
  <advance width="1024"/>
  <unicode hex="E128"/>
  <outline>
    <contour>
      <point x="221" y="574" type="qcurve"/>
      <point x="227" y="582"/>
      <point x="240" y="582" type="qcurve" smooth="yes"/>
      <point x="260" y="582"/>
      <point x="302" y="565"/>
      <point x="309" y="563" type="qcurve"/>
      <point x="301" y="561"/>
      <point x="292" y="561" type="qcurve" smooth="yes"/>
      <point x="278" y="561"/>
      <point x="268" y="567" type="qcurve" smooth="yes"/>
      <point x="247" y="579"/>
      <point x="241" y="579" type="qcurve" smooth="yes"/>
      <point x="236" y="579"/>
      <point x="224" y="573" type="qcurve"/>
      <point x="224" y="574"/>
    </contour>
    <contour>
      <point x="315" y="560" type="qcurve"/>
      <point x="336" y="560"/>
      <point x="353" y="553" type="qcurve"/>
      <point x="346" y="551"/>
      <point x="339" y="549" type="qcurve" smooth="yes"/>
      <point x="332" y="547"/>
      <point x="315" y="547"/>
      <point x="307" y="549" type="qcurve"/>
      <point x="309" y="553"/>
      <point x="311" y="554" type="qcurve" smooth="yes"/>
      <point x="314" y="555"/>
    </contour>
    <contour>
      <point x="254" y="954" type="qcurve" smooth="yes"/>
      <point x="375" y="1024"/>
      <point x="512" y="1024" type="qcurve" smooth="yes"/>
      <point x="650" y="1024"/>
      <point x="770" y="954" type="qcurve" smooth="yes"/>
      <point x="887" y="886"/>
      <point x="954" y="770" type="qcurve" smooth="yes"/>
      <point x="1024" y="649"/>
      <point x="1024" y="512" type="qcurve" smooth="yes"/>
      <point x="1024" y="374"/>
      <point x="954" y="254" type="qcurve" smooth="yes"/>
      <point x="886" y="137"/>
      <point x="770" y="70" type="qcurve" smooth="yes"/>
      <point x="649" y="-0"/>
      <point x="512" y="0" type="qcurve" smooth="yes"/>
      <point x="374" y="0"/>
      <point x="254" y="70" type="qcurve" smooth="yes"/>
      <point x="141" y="136"/>
      <point x="70" y="254" type="qcurve" smooth="yes"/>
      <point x="0" y="375"/>
      <point x="0" y="512" type="qcurve" smooth="yes"/>
      <point x="0" y="651"/>
      <point x="70" y="770" type="qcurve" smooth="yes"/>
      <point x="139" y="888"/>
    </contour>
    <contour>
      <point x="893" y="747" type="qcurve"/>
      <point x="886" y="757"/>
      <point x="872" y="778"/>
      <point x="865" y="788" type="qcurve"/>
      <point x="864" y="784"/>
      <point x="862" y="782" type="qcurve" smooth="yes"/>
      <point x="860" y="780"/>
      <point x="860" y="774" type="qcurve" smooth="yes"/>
      <point x="860" y="765"/>
      <point x="869" y="758.833" type="qcurve" smooth="yes"/>
      <point x="883" y="748.901"/>
    </contour>
    <contour>
      <point x="859" y="795" type="line"/>
      <point x="859" y="792"/>
      <point x="857" y="790" type="qcurve"/>
      <point x="860" y="790"/>
      <point x="863" y="790" type="qcurve"/>
    </contour>
    <contour>
      <point x="404" y="78" type="qcurve"/>
      <point x="460.368" y="62.8241"/>
      <point x="515.746" y="62.8241" type="qcurve" smooth="yes"/>
      <point x="623.236" y="62.8241"/>
      <point x="727" y="120" type="qcurve" smooth="yes"/>
      <point x="825.119" y="173.148"/>
      <point x="889" y="270" type="qcurve"/>
      <point x="871" y="315"/>
      <point x="871" y="351"/>
      <point x="872" y="362" type="qcurve" smooth="yes"/>
      <point x="877.333" y="391.333"/>
      <point x="878" y="396" type="qcurve" smooth="yes"/>
      <point x="878" y="417.083"/>
      <point x="849" y="463" type="qcurve"/>
      <point x="852" y="485" type="line" smooth="yes"/>
      <point x="853" y="491"/>
      <point x="853" y="497" type="qcurve" smooth="yes"/>
      <point x="853" y="503"/>
      <point x="851" y="506" type="qcurve" smooth="yes"/>
      <point x="814.476" y="511.619"/>
      <point x="799" y="524" type="qcurve"/>
      <point x="801" y="526" type="line"/>
      <point x="790.5" y="524.25"/>
      <point x="780.25" y="519.625" type="qcurve" smooth="yes"/>
      <point x="761.135" y="511"/>
      <point x="750" y="511" type="qcurve"/>
      <point x="742" y="512" type="line"/>
      <point x="743" y="515" type="line"/>
      <point x="713" y="508" type="line"/>
      <point x="701" y="508"/>
      <point x="679" y="519" type="qcurve" smooth="yes"/>
      <point x="655" y="531"/>
      <point x="655" y="542" type="qcurve" smooth="yes"/>
      <point x="655" y="543" type="line"/>
      <point x="653" y="546"/>
      <point x="649" y="548.5" type="qcurve" smooth="yes"/>
      <point x="639.667" y="554.333"/>
      <point x="635" y="559" type="qcurve" smooth="yes"/>
      <point x="633" y="562"/>
      <point x="633" y="566" type="qcurve"/>
      <point x="638" y="571" type="line"/>
      <point x="627" y="572" type="line"/>
      <point x="623" y="587" type="line"/>
      <point x="623" y="585"/>
      <point x="631" y="586"/>
      <point x="632" y="587" type="qcurve"/>
      <point x="615" y="597" type="line"/>
      <point x="627" y="629" type="line"/>
      <point x="622.545" y="645.545"/>
      <point x="622.545" y="654.727" type="qcurve" smooth="yes"/>
      <point x="622.545" y="678.991"/>
      <point x="646" y="701"/>
      <point x="659" y="710" type="qcurve" smooth="yes"/>
      <point x="672" y="719"/>
      <point x="683" y="734" type="qcurve"/>
      <point x="682" y="740" type="line"/>
      <point x="715" y="780" type="line"/>
      <point x="722" y="781" type="line"/>
      <point x="777" y="781"/>
      <point x="857" y="797" type="qcurve"/>
      <point x="825.516" y="834.387"/>
      <point x="786" y="866" type="qcurve"/>
      <point x="739" y="847.2"/>
      <point x="739" y="826" type="qcurve"/>
      <point x="741" y="817" type="line"/>
      <point x="733" y="802"/>
      <point x="722" y="798.5" type="qcurve" smooth="yes"/>
      <point x="709.271" y="794.45"/>
      <point x="689.831" y="794.45" type="qcurve" smooth="yes"/>
      <point x="687.671" y="794.45"/>
      <point x="685.429" y="794.5" type="qcurve" smooth="yes"/>
      <point x="683.39" y="794.545"/>
      <point x="681.437" y="794.545" type="qcurve" smooth="yes"/>
      <point x="661.909" y="794.545"/>
      <point x="651" y="790" type="qcurve"/>
      <point x="643" y="807" type="line"/>
      <point x="650" y="836" type="line"/>
      <point x="642" y="848" type="line"/>
      <point x="728" y="875" type="line"/>
      <point x="718" y="903"/>
      <point x="683" y="903" type="qcurve"/>
      <point x="683" y="908" type="line"/>
      <point x="711" y="913" type="line"/>
      <point x="617" y="960"/>
      <point x="512" y="960" type="qcurve" smooth="yes"/>
      <point x="377.5" y="960"/>
      <point x="268" y="887" type="qcurve" smooth="yes"/>
      <point x="231" y="864"/>
      <point x="200" y="833" type="qcurve"/>
      <point x="213" y="833"/>
      <point x="227" y="820"/>
      <point x="233" y="812" type="qcurve" smooth="yes"/>
      <point x="239" y="804"/>
      <point x="245" y="797" type="qcurve" smooth="yes"/>
      <point x="252" y="791"/>
      <point x="263" y="791" type="qcurve"/>
      <point x="271" y="796" type="line"/>
      <point x="270" y="807" type="line"/>
      <point x="286" y="831" type="line"/>
      <point x="274" y="868" type="line"/>
      <point x="276" y="869"/>
      <point x="286" y="876"/>
      <point x="295" y="876" type="qcurve" smooth="yes"/>
      <point x="319" y="876"/>
      <point x="326" y="869" type="qcurve" smooth="yes"/>
      <point x="332" y="865"/>
      <point x="337" y="858" type="qcurve" smooth="yes"/>
      <point x="342" y="851"/>
      <point x="351" y="839" type="qcurve"/>
      <point x="369" y="853" type="line"/>
      <point x="435" y="826.6"/>
      <point x="435" y="809" type="qcurve" smooth="yes"/>
      <point x="435" y="802"/>
      <point x="430" y="797" type="qcurve" smooth="yes"/>
      <point x="418.429" y="789.286"/>
      <point x="397" y="785" type="qcurve" smooth="yes"/>
      <point x="372" y="780"/>
      <point x="364" y="776" type="qcurve" smooth="yes"/>
      <point x="358" y="773"/>
      <point x="358" y="768" type="qcurve"/>
      <point x="386" y="758" type="line"/>
      <point x="366.412" y="740.588"/>
      <point x="341" y="730" type="qcurve"/>
      <point x="343" y="721" type="line"/>
      <point x="297" y="703" type="line"/>
      <point x="297" y="689" type="line"/>
      <point x="294" y="688" type="line"/>
      <point x="296" y="705" type="line"/>
      <point x="294" y="705" type="line" smooth="yes"/>
      <point x="289" y="705"/>
      <point x="289" y="701" type="qcurve" smooth="yes"/>
      <point x="291" y="697"/>
      <point x="291" y="694" type="qcurve"/>
      <point x="285" y="697" type="line"/>
      <point x="285" y="695" type="line" smooth="yes"/>
      <point x="285" y="690"/>
      <point x="297" y="678" type="qcurve"/>
      <point x="297" y="674.333"/>
      <point x="290" y="672" type="qcurve" smooth="yes"/>
      <point x="288" y="672"/>
      <point x="285" y="671"/>
      <point x="286" y="671" type="qcurve" smooth="yes"/>
      <point x="293" y="671"/>
      <point x="289" y="670" type="qcurve" smooth="yes"/>
      <point x="274.333" y="666.333"/>
      <point x="261" y="653" type="qcurve" smooth="yes"/>
      <point x="253" y="645"/>
      <point x="253" y="623"/>
      <point x="254" y="607"/>
      <point x="253" y="598" type="qcurve"/>
      <point x="238.632" y="637"/>
      <point x="198" y="637" type="qcurve"/>
      <point x="177" y="635" type="line"/>
      <point x="187" y="628" type="line"/>
      <point x="167.499" y="630.438"/>
      <point x="142.378" y="630.438"/>
      <point x="136.9" y="627.95" type="qcurve" smooth="yes"/>
      <point x="126" y="623"/>
      <point x="119" y="616" type="qcurve"/>
      <point x="116" y="594" type="line"/>
      <point x="116" y="557"/>
      <point x="147" y="557" type="qcurve" smooth="yes"/>
      <point x="170" y="557"/>
      <point x="205" y="572" type="qcurve"/>
      <point x="201" y="561"/>
      <point x="190" y="541"/>
      <point x="188" y="529" type="qcurve"/>
      <point x="194" y="526" type="line"/>
      <point x="199.975" y="529.983"/>
      <point x="206.416" y="529.983" type="qcurve" smooth="yes"/>
      <point x="219.715" y="529.983"/>
      <point x="235" y="513" type="qcurve" smooth="yes"/>
      <point x="245" y="502"/>
      <point x="255" y="491" type="qcurve" smooth="yes"/>
      <point x="265" y="480"/>
      <point x="276" y="475" type="qcurve"/>
      <point x="260" y="466" type="line"/>
      <point x="220" y="488" type="line"/>
      <point x="221" y="484" type="line" smooth="yes"/>
      <point x="221" y="481"/>
      <point x="220" y="482" type="qcurve" smooth="yes"/>
      <point x="202" y="513" type="line"/>
      <point x="175.714" y="513"/>
      <point x="132" y="530" type="qcurve" smooth="yes"/>
      <point x="96" y="544"/>
      <point x="68" y="565" type="qcurve"/>
      <point x="64" y="512" type="line"/>
      <point x="64" y="391.1"/>
      <point x="127" y="284" type="qcurve" smooth="yes"/>
      <point x="189.516" y="177.723"/>
      <point x="297" y="120" type="qcurve"/>
      <point x="295.511" y="127.443"/>
      <point x="295.511" y="134.503" type="qcurve" smooth="yes"/>
      <point x="295.511" y="145.464"/>
      <point x="299.1" y="155.5" type="qcurve" smooth="yes"/>
      <point x="311" y="188.78"/>
      <point x="311" y="204.39" type="qcurve" smooth="yes"/>
      <point x="311" y="234.75"/>
      <point x="287" y="291"/>
      <point x="279" y="308.5" type="qcurve" smooth="yes"/>
      <point x="257.672" y="355.154"/>
      <point x="257.672" y="379.98" type="qcurve" smooth="yes"/>
      <point x="257.672" y="388.181"/>
      <point x="260" y="394" type="qcurve"/>
      <point x="253" y="397" type="line"/>
      <point x="256" y="404"/>
      <point x="261" y="410.5" type="qcurve" smooth="yes"/>
      <point x="283" y="439.1"/>
      <point x="283" y="458"/>
      <point x="279" y="469"/>
      <point x="278" y="474" type="qcurve"/>
      <point x="288" y="472" type="line"/>
      <point x="304" y="505"/>
      <point x="348" y="505" type="qcurve"/>
      <point x="354" y="505"/>
      <point x="375" y="498" type="qcurve" smooth="yes"/>
      <point x="393" y="492" type="line"/>
      <point x="404" y="489" type="line"/>
      <point x="404" y="485"/>
      <point x="413" y="483"/>
      <point x="413" y="481" type="qcurve" smooth="yes"/>
      <point x="412" y="477" type="line"/>
      <point x="413" y="476"/>
      <point x="419" y="473" type="qcurve" smooth="yes"/>
      <point x="425" y="470"/>
      <point x="431" y="466" type="qcurve" smooth="yes"/>
      <point x="447.5" y="455"/>
      <point x="449" y="452" type="qcurve" smooth="yes"/>
      <point x="466" y="452"/>
      <point x="508" y="431" type="qcurve" smooth="yes"/>
      <point x="572.375" y="398.812"/>
      <point x="603" y="359" type="qcurve" smooth="yes"/>
      <point x="613" y="347"/>
      <point x="613" y="338" type="qcurve"/>
      <point x="596" y="320" type="line"/>
      <point x="596.5" y="313.5"/>
      <point x="596.5" y="302" type="qcurve" smooth="yes"/>
      <point x="596.5" y="274.125"/>
      <point x="575" y="258" type="qcurve" smooth="yes"/>
      <point x="564" y="250"/>
      <point x="534" y="237"/>
      <point x="517" y="226" type="qcurve"/>
      <point x="517" y="206.75"/>
      <point x="504" y="189.375" type="qcurve" smooth="yes"/>
      <point x="480.525" y="158"/>
      <point x="460" y="158" type="qcurve"/>
      <point x="439" y="174" type="line"/>
      <point x="440" y="173"/>
      <point x="438" y="168"/>
      <point x="437" y="169" type="qcurve"/>
      <point x="439.904" y="162.465"/>
      <point x="439.904" y="154.362" type="qcurve" smooth="yes"/>
      <point x="439.904" y="125.873"/>
    </contour>
  </outline>
</glyph>
<glyph name="uniE12A" format="2">
  <advance width="1024"/>
  <unicode hex="E12A"/>
  <outline>
    <contour>
      <point x="0" y="896" type="line"/>
      <point x="1024" y="896" type="line"/>
      <point x="1024" y="128" type="line"/>
      <point x="0" y="128" type="line"/>
    </contour>
    <contour>
      <point x="960" y="192" type="line"/>
      <point x="960" y="832" type="line"/>
      <point x="64" y="832" type="line"/>
      <point x="64" y="192" type="line"/>
    </contour>
    <contour>
      <point x="896" y="768" type="line"/>
      <point x="896" y="576" type="line"/>
      <point x="128" y="576" type="line"/>
      <point x="128" y="768" type="line"/>
    </contour>
    <contour>
      <point x="832" y="640" type="line"/>
      <point x="832" y="704" type="line"/>
      <point x="192" y="704" type="line"/>
      <point x="192" y="640" type="line"/>
    </contour>
    <contour>
      <point x="640" y="256" type="line"/>
      <point x="640" y="512" type="line"/>
      <point x="896" y="512" type="line"/>
      <point x="896" y="256" type="line"/>
    </contour>
    <contour>
      <point x="704" y="448" type="line"/>
      <point x="704" y="320" type="line"/>
      <point x="832" y="320" type="line"/>
      <point x="832" y="448" type="line"/>
    </contour>
    <contour>
      <point x="512" y="512" type="line"/>
      <point x="512" y="448" type="line"/>
      <point x="128" y="448" type="line"/>
      <point x="128" y="512" type="line"/>
    </contour>
    <contour>
      <point x="512" y="320" type="line"/>
      <point x="512" y="256" type="line"/>
      <point x="128" y="256" type="line"/>
      <point x="128" y="320" type="line"/>
    </contour>
  </outline>
</glyph>
<glyph name="uniE12F" format="2">
  <advance width="1024"/>
  <unicode hex="E12F"/>
  <outline>
    <contour>
      <point x="0" y="768" type="line"/>
      <point x="0" y="832" type="line"/>
      <point x="64" y="832" type="line"/>
      <point x="64" y="768" type="line"/>
    </contour>
    <contour>
      <point x="192" y="832" type="line"/>
      <point x="1024" y="832" type="line"/>
      <point x="1024" y="768" type="line"/>
      <point x="192" y="768" type="line"/>
    </contour>
    <contour>
      <point x="0" y="192" type="line"/>
      <point x="0" y="256" type="line"/>
      <point x="64" y="256" type="line"/>
      <point x="64" y="192" type="line"/>
    </contour>
    <contour>
      <point x="192" y="192" type="line"/>
      <point x="192" y="256" type="line"/>
      <point x="1024" y="256" type="line"/>
      <point x="1024" y="192" type="line"/>
    </contour>
    <contour>
      <point x="448" y="576" type="line"/>
      <point x="448" y="640" type="line"/>
      <point x="1024" y="640" type="line"/>
      <point x="1024" y="576" type="line"/>
    </contour>
    <contour>
      <point x="704" y="384" type="line"/>
      <point x="704" y="448" type="line"/>
      <point x="1024" y="448" type="line"/>
      <point x="1024" y="384" type="line"/>
    </contour>
  </outline>
</glyph>
<glyph name="uniE131" format="2">
  <advance width="1024"/>
  <unicode hex="E131"/>
  <outline>
    <contour>
      <point x="960" y="384" type="line"/>
      <point x="960" y="0" type="line"/>
      <point x="512" y="0" type="line"/>
      <point x="512" y="384" type="line"/>
      <point x="576" y="384" type="line"/>
      <point x="576" y="422"/>
      <point x="585" y="457" type="qcurve" smooth="yes"/>
      <point x="593" y="491"/>
      <point x="613" y="518" type="qcurve" smooth="yes"/>
      <point x="632" y="544"/>
      <point x="662" y="560" type="qcurve" smooth="yes"/>
      <point x="692" y="576"/>
      <point x="736" y="576" type="qcurve" smooth="yes"/>
      <point x="779" y="576"/>
      <point x="810" y="560" type="qcurve" smooth="yes"/>
      <point x="840" y="545"/>
      <point x="859" y="518" type="qcurve" smooth="yes"/>
      <point x="878" y="492"/>
      <point x="887" y="457" type="qcurve" smooth="yes"/>
      <point x="896" y="422"/>
      <point x="896" y="384" type="qcurve"/>
    </contour>
    <contour>
      <point x="640" y="384" type="line"/>
      <point x="832" y="384" type="line"/>
      <point x="832" y="416" type="line" smooth="yes"/>
      <point x="832" y="436"/>
      <point x="825" y="453" type="qcurve" smooth="yes"/>
      <point x="817" y="471"/>
      <point x="804" y="484" type="qcurve" smooth="yes"/>
      <point x="791" y="497"/>
      <point x="774" y="504" type="qcurve" smooth="yes"/>
      <point x="756" y="512"/>
      <point x="736" y="512" type="qcurve" smooth="yes"/>
      <point x="716" y="512"/>
      <point x="699" y="505" type="qcurve" smooth="yes"/>
      <point x="681" y="497"/>
      <point x="668" y="484" type="qcurve" smooth="yes"/>
      <point x="655" y="471"/>
      <point x="648" y="454" type="qcurve" smooth="yes"/>
      <point x="640" y="436"/>
      <point x="640" y="416" type="qcurve" smooth="yes"/>
    </contour>
    <contour>
      <point x="896" y="320" type="line"/>
      <point x="576" y="320" type="line"/>
      <point x="576" y="64" type="line"/>
      <point x="896" y="64" type="line"/>
    </contour>
    <contour>
      <point x="192" y="64" type="line"/>
      <point x="448" y="64" type="line"/>
      <point x="448" y="0" type="line"/>
      <point x="128" y="0" type="line"/>
      <point x="128" y="877" type="line"/>
      <point x="274" y="1024" type="line"/>
      <point x="896" y="1024" type="line"/>
      <point x="896" y="594" type="line"/>
      <point x="882" y="607"/>
      <point x="866" y="617" type="qcurve" smooth="yes"/>
      <point x="850" y="628"/>
      <point x="832" y="636" type="qcurve"/>
      <point x="832" y="960" type="line"/>
      <point x="302" y="960" type="line"/>
      <point x="192" y="851" type="line"/>
    </contour>
  </outline>
</glyph>
<glyph name="uniE132" format="2">
  <advance width="1024"/>
  <unicode hex="E132"/>
  <outline>
    <contour>
      <point x="576" y="1005" type="line"/>
      <point x="877" y="704" type="line"/>
      <point x="576" y="704" type="line"/>
    </contour>
    <contour>
      <point x="512" y="1024" type="line"/>
      <point x="512" y="640" type="line"/>
      <point x="896" y="640" type="line"/>
      <point x="896" y="0" type="line"/>
      <point x="128" y="0" type="line"/>
      <point x="128" y="1024" type="line"/>
    </contour>
  </outline>
</glyph>
<glyph name="uniE133" format="2">
  <advance width="1024"/>
  <unicode hex="E133"/>
  <outline>
    <contour>
      <point x="384" y="832" type="line"/>
      <point x="1024" y="832" type="line"/>
      <point x="1024" y="768" type="line"/>
      <point x="384" y="768" type="line"/>
    </contour>
    <contour>
      <point x="384" y="576" type="line"/>
      <point x="384" y="640" type="line"/>
      <point x="1024" y="640" type="line"/>
      <point x="1024" y="576" type="line"/>
    </contour>
    <contour>
      <point x="384" y="384" type="line"/>
      <point x="384" y="448" type="line"/>
      <point x="1024" y="448" type="line"/>
      <point x="1024" y="384" type="line"/>
    </contour>
    <contour>
      <point x="384" y="192" type="line"/>
      <point x="384" y="256" type="line"/>
      <point x="1024" y="256" type="line"/>
      <point x="1024" y="192" type="line"/>
    </contour>
    <contour>
      <point x="96" y="386" type="line"/>
      <point x="239" y="529" type="line"/>
      <point x="273" y="495" type="line"/>
      <point x="96" y="318" type="line"/>
      <point x="7" y="407" type="line"/>
      <point x="41" y="441" type="line"/>
    </contour>
    <contour>
      <point x="96" y="770" type="line"/>
      <point x="239" y="913" type="line"/>
      <point x="273" y="879" type="line"/>
      <point x="96" y="702" type="line"/>
      <point x="7" y="791" type="line"/>
      <point x="41" y="825" type="line"/>
    </contour>
  </outline>
</glyph>
<glyph name="uniE134" format="2">
  <advance width="1024"/>
  <unicode hex="E134"/>
  <outline>
    <contour>
      <point x="1024" y="960" type="line"/>
      <point x="1024" y="256" type="line"/>
      <point x="366" y="256" type="line"/>
      <point x="128" y="19" type="line"/>
      <point x="128" y="256" type="line"/>
      <point x="0" y="256" type="line"/>
      <point x="0" y="960" type="line"/>
    </contour>
    <contour>
      <point x="960" y="896" type="line"/>
      <point x="64" y="896" type="line"/>
      <point x="64" y="320" type="line"/>
      <point x="192" y="320" type="line"/>
      <point x="192" y="174" type="line"/>
      <point x="338" y="320" type="line"/>
      <point x="960" y="320" type="line"/>
    </contour>
    <contour>
      <point x="640" y="576" type="line"/>
      <point x="576" y="576" type="line"/>
      <point x="576" y="704" type="line"/>
      <point x="704" y="704" type="line"/>
      <point x="704" y="576" type="line" smooth="yes"/>
      <point x="704" y="563"/>
      <point x="699" y="551" type="qcurve" smooth="yes"/>
      <point x="694" y="540"/>
      <point x="685" y="531" type="qcurve" smooth="yes"/>
      <point x="677" y="522"/>
      <point x="665" y="517" type="qcurve" smooth="yes"/>
      <point x="654" y="512"/>
      <point x="640" y="512" type="qcurve"/>
    </contour>
    <contour>
      <point x="384" y="576" type="line"/>
      <point x="320" y="576" type="line"/>
      <point x="320" y="704" type="line"/>
      <point x="448" y="704" type="line"/>
      <point x="448" y="576" type="line" smooth="yes"/>
      <point x="448" y="563"/>
      <point x="443" y="551" type="qcurve" smooth="yes"/>
      <point x="438" y="540"/>
      <point x="429" y="531" type="qcurve" smooth="yes"/>
      <point x="421" y="522"/>
      <point x="409" y="517" type="qcurve" smooth="yes"/>
      <point x="398" y="512"/>
      <point x="384" y="512" type="qcurve"/>
    </contour>
  </outline>
</glyph>
<glyph name="uniE135" format="2">
  <advance width="1024"/>
  <unicode hex="E135"/>
  <outline>
    <contour>
      <point x="32" y="800" type="line"/>
      <point x="992" y="800" type="line"/>
      <point x="992" y="224" type="line"/>
      <point x="32" y="224" type="line"/>
    </contour>
  </outline>
</glyph>
<glyph name="uniE136" format="2">
  <advance width="1024"/>
  <unicode hex="E136"/>
  <outline>
    <contour>
      <point x="370" y="485" type="qcurve"/>
      <point x="402" y="469"/>
      <point x="429" y="445" type="qcurve" smooth="yes"/>
      <point x="455" y="421"/>
      <point x="473" y="391" type="qcurve" smooth="yes"/>
      <point x="492" y="361"/>
      <point x="502" y="327" type="qcurve" smooth="yes"/>
      <point x="512" y="293"/>
      <point x="512" y="256" type="qcurve"/>
      <point x="448" y="256" type="line"/>
      <point x="448" y="295"/>
      <point x="433" y="330" type="qcurve" smooth="yes"/>
      <point x="418" y="365"/>
      <point x="392" y="391" type="qcurve" smooth="yes"/>
      <point x="366" y="417"/>
      <point x="331" y="433" type="qcurve" smooth="yes"/>
      <point x="296" y="448"/>
      <point x="256" y="448" type="qcurve" smooth="yes"/>
      <point x="217" y="448"/>
      <point x="182" y="433" type="qcurve" smooth="yes"/>
      <point x="147" y="418"/>
      <point x="121" y="392" type="qcurve" smooth="yes"/>
      <point x="95" y="366"/>
      <point x="79" y="331" type="qcurve" smooth="yes"/>
      <point x="64" y="296"/>
      <point x="64" y="256" type="qcurve"/>
      <point x="0" y="256" type="line"/>
      <point x="0" y="292"/>
      <point x="10" y="327" type="qcurve" smooth="yes"/>
      <point x="20" y="361"/>
      <point x="38" y="391" type="qcurve" smooth="yes"/>
      <point x="57" y="420"/>
      <point x="83" y="445" type="qcurve" smooth="yes"/>
      <point x="109" y="469"/>
      <point x="142" y="485" type="qcurve"/>
      <point x="106" y="512"/>
      <point x="85" y="553" type="qcurve" smooth="yes"/>
      <point x="64" y="594"/>
      <point x="64" y="640" type="qcurve" smooth="yes"/>
      <point x="64" y="679"/>
      <point x="79" y="714" type="qcurve" smooth="yes"/>
      <point x="94" y="749"/>
      <point x="120" y="775" type="qcurve" smooth="yes"/>
      <point x="146" y="801"/>
      <point x="181" y="817" type="qcurve" smooth="yes"/>
      <point x="216" y="832"/>
      <point x="256" y="832" type="qcurve" smooth="yes"/>
      <point x="295" y="832"/>
      <point x="330" y="817" type="qcurve" smooth="yes"/>
      <point x="365" y="802"/>
      <point x="391" y="776" type="qcurve" smooth="yes"/>
      <point x="417" y="750"/>
      <point x="433" y="715" type="qcurve" smooth="yes"/>
      <point x="448" y="680"/>
      <point x="448" y="640" type="qcurve" smooth="yes"/>
      <point x="448" y="595"/>
      <point x="427" y="554" type="qcurve" smooth="yes"/>
      <point x="407" y="513"/>
    </contour>
    <contour>
      <point x="128" y="640" type="qcurve" smooth="yes"/>
      <point x="128" y="614"/>
      <point x="138" y="590" type="qcurve" smooth="yes"/>
      <point x="148" y="567"/>
      <point x="166" y="550" type="qcurve" smooth="yes"/>
      <point x="183" y="533"/>
      <point x="206" y="522" type="qcurve" smooth="yes"/>
      <point x="229" y="512"/>
      <point x="256" y="512" type="qcurve" smooth="yes"/>
      <point x="282" y="512"/>
      <point x="305" y="522" type="qcurve" smooth="yes"/>
      <point x="329" y="532"/>
      <point x="346" y="550" type="qcurve" smooth="yes"/>
      <point x="363" y="567"/>
      <point x="374" y="590" type="qcurve" smooth="yes"/>
      <point x="384" y="613"/>
      <point x="384" y="640" type="qcurve" smooth="yes"/>
      <point x="384" y="666"/>
      <point x="374" y="689" type="qcurve" smooth="yes"/>
      <point x="364" y="713"/>
      <point x="346" y="730" type="qcurve" smooth="yes"/>
      <point x="329" y="747"/>
      <point x="306" y="758" type="qcurve" smooth="yes"/>
      <point x="282" y="768"/>
      <point x="256" y="768" type="qcurve" smooth="yes"/>
      <point x="230" y="768"/>
      <point x="206" y="758" type="qcurve" smooth="yes"/>
      <point x="183" y="748"/>
      <point x="166" y="730" type="qcurve" smooth="yes"/>
      <point x="149" y="713"/>
      <point x="138" y="690" type="qcurve" smooth="yes"/>
      <point x="128" y="666"/>
    </contour>
    <contour>
      <point x="1024" y="832" type="line"/>
      <point x="1024" y="768" type="line"/>
      <point x="576" y="768" type="line"/>
      <point x="576" y="832" type="line"/>
    </contour>
    <contour>
      <point x="576" y="576" type="line"/>
      <point x="1024" y="576" type="line"/>
      <point x="1024" y="512" type="line"/>
      <point x="576" y="512" type="line"/>
    </contour>
    <contour>
      <point x="576" y="320" type="line"/>
      <point x="1024" y="320" type="line"/>
      <point x="1024" y="256" type="line"/>
      <point x="576" y="256" type="line"/>
    </contour>
  </outline>
</glyph>
<glyph name="uniE138" format="2">
  <advance width="1024"/>
  <unicode hex="E138"/>
  <outline>
    <contour>
      <point x="64" y="960" type="line"/>
      <point x="896" y="960" type="line"/>
      <point x="896" y="128" type="line"/>
      <point x="64" y="128" type="line"/>
    </contour>
    <contour>
      <point x="832" y="576" type="line"/>
      <point x="832" y="896" type="line"/>
      <point x="512" y="896" type="line"/>
      <point x="512" y="576" type="line"/>
    </contour>
    <contour>
      <point x="448" y="896" type="line"/>
      <point x="128" y="896" type="line"/>
      <point x="128" y="576" type="line"/>
      <point x="448" y="576" type="line"/>
    </contour>
    <contour>
      <point x="128" y="512" type="line"/>
      <point x="128" y="192" type="line"/>
      <point x="448" y="192" type="line"/>
      <point x="448" y="512" type="line"/>
    </contour>
    <contour>
      <point x="512" y="192" type="line"/>
      <point x="832" y="192" type="line"/>
      <point x="832" y="512" type="line"/>
      <point x="512" y="512" type="line"/>
    </contour>
  </outline>
</glyph>
<glyph name="uniE13C" format="2">
  <advance width="1024"/>
  <unicode hex="E13C"/>
  <outline>
    <contour>
      <point x="1024" y="320" type="line"/>
      <point x="1024" y="256" type="line"/>
      <point x="125" y="256" type="line"/>
      <point x="206" y="175" type="line"/>
      <point x="162" y="130" type="line"/>
      <point x="3" y="288" type="line"/>
      <point x="161" y="446" type="line"/>
      <point x="206" y="402" type="line"/>
      <point x="125" y="320" type="line"/>
    </contour>
    <contour>
      <point x="817" y="622" type="line"/>
      <point x="899" y="704" type="line"/>
      <point x="0" y="704" type="line"/>
      <point x="0" y="768" type="line"/>
      <point x="899" y="768" type="line"/>
      <point x="818" y="849" type="line"/>
      <point x="862" y="894" type="line"/>
      <point x="1021" y="736" type="line"/>
      <point x="863" y="578" type="line"/>
    </contour>
  </outline>
</glyph>
<glyph name="uniE13E" format="2">
  <advance width="1024"/>
  <unicode hex="E13E"/>
  <outline>
    <contour>
      <point x="127" y="449" type="line"/>
      <point x="127" y="576" type="line"/>
      <point x="512" y="576" type="line"/>
      <point x="512" y="450" type="line"/>
    </contour>
    <contour>
      <point x="640" y="320" type="line"/>
      <point x="0" y="320" type="line"/>
      <point x="0" y="704" type="line"/>
      <point x="640" y="704" type="line"/>
      <point x="640" y="640" type="line"/>
      <point x="65" y="640" type="line"/>
      <point x="65" y="385" type="line"/>
      <point x="640" y="385" type="line"/>
    </contour>
    <contour>
      <point x="1024" y="704" type="line"/>
      <point x="1024" y="320" type="line"/>
      <point x="832" y="320" type="line"/>
      <point x="832" y="384" type="line"/>
      <point x="959" y="384" type="line"/>
      <point x="959" y="639" type="line"/>
      <point x="832" y="639" type="line"/>
      <point x="832" y="704" type="line"/>
    </contour>
    <contour>
      <point x="769" y="241" type="line"/>
      <point x="824" y="193"/>
      <point x="896" y="193" type="qcurve"/>
      <point x="896" y="193" type="line"/>
      <point x="896" y="128" type="line"/>
      <point x="896" y="128" type="line"/>
      <point x="808" y="128"/>
      <point x="737" y="182" type="qcurve"/>
      <point x="702" y="156"/>
      <point x="661" y="142" type="qcurve" smooth="yes"/>
      <point x="621" y="128"/>
      <point x="576" y="128" type="qcurve"/>
      <point x="576" y="128" type="line"/>
      <point x="576" y="192" type="line"/>
      <point x="576" y="192" type="line"/>
      <point x="648" y="192"/>
      <point x="703" y="239" type="qcurve"/>
      <point x="703" y="787" type="line"/>
      <point x="678" y="809"/>
      <point x="645" y="820" type="qcurve" smooth="yes"/>
      <point x="613" y="831"/>
      <point x="576" y="831" type="qcurve"/>
      <point x="576" y="831" type="line"/>
      <point x="576" y="896" type="line"/>
      <point x="576" y="896" type="line"/>
      <point x="621" y="896"/>
      <point x="662" y="883" type="qcurve" smooth="yes"/>
      <point x="703" y="870"/>
      <point x="737" y="844" type="qcurve"/>
      <point x="806" y="896"/>
      <point x="896" y="896" type="qcurve"/>
      <point x="896" y="896" type="line"/>
      <point x="896" y="832" type="line"/>
      <point x="896" y="832" type="line"/>
      <point x="822" y="832"/>
      <point x="769" y="786" type="qcurve"/>
    </contour>
  </outline>
</glyph>
<glyph name="uniE13F" format="2">
  <advance width="1024"/>
  <unicode hex="E13F"/>
  <outline>
    <contour>
      <point x="1024" y="576" type="line"/>
      <point x="1024" y="512" type="line"/>
      <point x="614" y="512" type="line"/>
      <point x="762" y="363" type="line"/>
      <point x="726" y="326" type="line"/>
      <point x="507" y="544" type="line"/>
      <point x="725" y="762" type="line"/>
      <point x="762" y="726" type="line"/>
      <point x="614" y="576" type="line"/>
    </contour>
    <contour>
      <point x="0" y="320" type="line"/>
      <point x="0" y="768" type="line"/>
      <point x="448" y="768" type="line"/>
      <point x="448" y="320" type="line"/>
    </contour>
    <contour>
      <point x="64" y="704" type="line"/>
      <point x="64" y="384" type="line"/>
      <point x="384" y="384" type="line"/>
      <point x="384" y="704" type="line"/>
    </contour>
  </outline>
</glyph>
<glyph name="uniE140" format="2">
  <advance width="1024"/>
  <unicode hex="E140"/>
  <outline>
    <contour>
      <point x="0" y="896" type="line"/>
      <point x="960" y="896" type="line"/>
      <point x="960" y="192" type="line"/>
      <point x="0" y="192" type="line"/>
    </contour>
    <contour>
      <point x="896" y="256" type="line"/>
      <point x="896" y="832" type="line"/>
      <point x="512" y="832" type="line"/>
      <point x="512" y="768" type="line"/>
      <point x="448" y="768" type="line"/>
      <point x="448" y="832" type="line"/>
      <point x="64" y="832" type="line"/>
      <point x="64" y="256" type="line"/>
      <point x="448" y="256" type="line"/>
      <point x="448" y="320" type="line"/>
      <point x="512" y="320" type="line"/>
      <point x="512" y="256" type="line"/>
    </contour>
    <contour>
      <point x="576" y="511" type="line"/>
      <point x="576" y="575" type="line"/>
      <point x="734" y="575" type="line"/>
      <point x="687" y="623" type="line"/>
      <point x="721" y="657" type="line"/>
      <point x="834" y="543" type="line"/>
      <point x="721" y="431" type="line"/>
      <point x="687" y="465" type="line"/>
      <point x="733" y="511" type="line"/>
    </contour>
    <contour>
      <point x="448" y="576" type="line"/>
      <point x="448" y="704" type="line"/>
      <point x="512" y="704" type="line"/>
      <point x="512" y="576" type="line"/>
    </contour>
    <contour>
      <point x="448" y="384" type="line"/>
      <point x="448" y="512" type="line"/>
      <point x="512" y="512" type="line"/>
      <point x="512" y="384" type="line"/>
    </contour>
  </outline>
</glyph>
<glyph name="uniE141" format="2">
  <advance width="1024"/>
  <unicode hex="E141"/>
  <outline>
    <contour>
      <point x="1024" y="768" type="line"/>
      <point x="1024" y="320" type="line"/>
      <point x="992" y="320" type="line" smooth="yes"/>
      <point x="953" y="320"/>
      <point x="921" y="337" type="qcurve" smooth="yes"/>
      <point x="888" y="353"/>
      <point x="865" y="384" type="qcurve"/>
      <point x="618" y="384" type="line"/>
      <point x="604" y="355"/>
      <point x="583" y="331" type="qcurve" smooth="yes"/>
      <point x="562" y="307"/>
      <point x="535" y="291" type="qcurve" smooth="yes"/>
      <point x="509" y="274"/>
      <point x="479" y="265" type="qcurve" smooth="yes"/>
      <point x="449" y="256"/>
      <point x="416" y="256" type="qcurve" smooth="yes"/>
      <point x="384" y="256" type="line"/>
      <point x="384" y="512" type="line"/>
      <point x="64" y="512" type="line"/>
      <point x="0" y="544" type="line"/>
      <point x="64" y="576" type="line"/>
      <point x="384" y="576" type="line"/>
      <point x="384" y="832" type="line"/>
      <point x="416" y="832" type="line" smooth="yes"/>
      <point x="448" y="832"/>
      <point x="479" y="823" type="qcurve" smooth="yes"/>
      <point x="509" y="814"/>
      <point x="535" y="798" type="qcurve" smooth="yes"/>
      <point x="561" y="781"/>
      <point x="582" y="757" type="qcurve" smooth="yes"/>
      <point x="603" y="734"/>
      <point x="617" y="704" type="qcurve"/>
      <point x="864" y="704" type="line"/>
      <point x="888" y="734"/>
      <point x="920" y="751" type="qcurve" smooth="yes"/>
      <point x="953" y="768"/>
      <point x="992" y="768" type="qcurve" smooth="yes"/>
    </contour>
    <contour>
      <point x="960" y="699" type="line"/>
      <point x="948" y="695"/>
      <point x="940" y="689" type="qcurve" smooth="yes"/>
      <point x="931" y="683"/>
      <point x="924" y="675" type="qcurve" smooth="yes"/>
      <point x="918" y="668"/>
      <point x="912" y="659" type="qcurve" smooth="yes"/>
      <point x="906" y="650"/>
      <point x="900" y="640" type="qcurve"/>
      <point x="574" y="640" type="line"/>
      <point x="566" y="661" type="line" smooth="yes"/>
      <point x="552" y="701"/>
      <point x="521" y="728" type="qcurve" smooth="yes"/>
      <point x="489" y="756"/>
      <point x="448" y="764" type="qcurve"/>
      <point x="448" y="324" type="line"/>
      <point x="489" y="332"/>
      <point x="520" y="359" type="qcurve" smooth="yes"/>
      <point x="552" y="387"/>
      <point x="566" y="426" type="qcurve" smooth="yes"/>
      <point x="573" y="448" type="line"/>
      <point x="900" y="448" type="line"/>
      <point x="906" y="438"/>
      <point x="912" y="429" type="qcurve" smooth="yes"/>
      <point x="917" y="420"/>
      <point x="924" y="413" type="qcurve" smooth="yes"/>
      <point x="931" y="406"/>
      <point x="939" y="400" type="qcurve" smooth="yes"/>
      <point x="948" y="394"/>
      <point x="960" y="390" type="qcurve"/>
    </contour>
  </outline>
</glyph>
<glyph name="uniE142" format="2">
  <advance width="1024"/>
  <unicode hex="E142"/>
  <outline>
    <contour>
      <point x="1024" y="832" type="line"/>
      <point x="1024" y="768" type="line"/>
      <point x="0" y="768" type="line"/>
      <point x="0" y="832" type="line"/>
    </contour>
    <contour>
      <point x="0" y="640" type="line"/>
      <point x="1024" y="640" type="line"/>
      <point x="1024" y="576" type="line"/>
      <point x="0" y="576" type="line"/>
    </contour>
    <contour>
      <point x="640" y="192" type="line"/>
      <point x="0" y="192" type="line"/>
      <point x="0" y="256" type="line"/>
      <point x="640" y="256" type="line"/>
    </contour>
    <contour>
      <point x="704" y="401" type="line"/>
      <point x="1024" y="481" type="line"/>
      <point x="1024" y="128" type="line" smooth="yes"/>
      <point x="1024" y="113"/>
      <point x="1017" y="101" type="qcurve" smooth="yes"/>
      <point x="1010" y="89"/>
      <point x="998" y="81" type="qcurve" smooth="yes"/>
      <point x="986" y="73"/>
      <point x="972" y="68" type="qcurve" smooth="yes"/>
      <point x="958" y="64"/>
      <point x="944" y="64" type="qcurve" smooth="yes"/>
      <point x="931" y="64"/>
      <point x="916" y="68" type="qcurve" smooth="yes"/>
      <point x="902" y="72"/>
      <point x="890" y="81" type="qcurve" smooth="yes"/>
      <point x="879" y="89"/>
      <point x="871" y="101" type="qcurve" smooth="yes"/>
      <point x="864" y="112"/>
      <point x="864" y="128" type="qcurve" smooth="yes"/>
      <point x="864" y="143"/>
      <point x="871" y="155" type="qcurve" smooth="yes"/>
      <point x="878" y="167"/>
      <point x="890" y="175" type="qcurve" smooth="yes"/>
      <point x="902" y="183"/>
      <point x="916" y="188" type="qcurve" smooth="yes"/>
      <point x="930" y="192"/>
      <point x="944" y="192" type="qcurve" smooth="yes"/>
      <point x="951" y="192"/>
      <point x="960" y="191" type="qcurve"/>
      <point x="960" y="399" type="line"/>
      <point x="768" y="351" type="line"/>
      <point x="768" y="64" type="line" smooth="yes"/>
      <point x="768" y="48"/>
      <point x="760" y="36" type="qcurve" smooth="yes"/>
      <point x="752" y="24"/>
      <point x="740" y="16" type="qcurve" smooth="yes"/>
      <point x="728" y="8"/>
      <point x="713" y="4" type="qcurve" smooth="yes"/>
      <point x="698" y="0"/>
      <point x="684" y="0" type="qcurve" smooth="yes"/>
      <point x="671" y="0"/>
      <point x="656" y="4" type="qcurve" smooth="yes"/>
      <point x="641" y="8"/>
      <point x="628" y="16" type="qcurve" smooth="yes"/>
      <point x="616" y="24"/>
      <point x="608" y="36" type="qcurve" smooth="yes"/>
      <point x="600" y="48"/>
      <point x="600" y="64" type="qcurve" smooth="yes"/>
      <point x="600" y="80"/>
      <point x="608" y="92" type="qcurve" smooth="yes"/>
      <point x="616" y="104"/>
      <point x="628" y="112" type="qcurve" smooth="yes"/>
      <point x="640" y="120"/>
      <point x="655" y="124" type="qcurve" smooth="yes"/>
      <point x="670" y="128"/>
      <point x="684" y="128" type="qcurve" smooth="yes"/>
      <point x="689" y="128"/>
      <point x="694" y="128" type="qcurve" smooth="yes"/>
      <point x="699" y="127"/>
      <point x="704" y="126" type="qcurve"/>
    </contour>
    <contour>
      <point x="640" y="384" type="line"/>
      <point x="0" y="384" type="line"/>
      <point x="0" y="448" type="line"/>
      <point x="640" y="448" type="line"/>
    </contour>
  </outline>
</glyph>
<glyph name="uniE143" format="2">
  <advance width="1024"/>
  <unicode hex="E143"/>
  <outline>
    <contour>
      <point x="512" y="1024" type="line"/>
      <point x="1024" y="1024" type="line"/>
      <point x="1024" y="512" type="line"/>
      <point x="960" y="512" type="line"/>
      <point x="960" y="914" type="line"/>
      <point x="47" y="2" type="line"/>
      <point x="2" y="46" type="line"/>
      <point x="914" y="960" type="line"/>
      <point x="512" y="960" type="line"/>
    </contour>
  </outline>
</glyph>
<glyph name="uniE145" format="2">
  <advance width="1024"/>
  <unicode hex="E145"/>
  <outline>
    <contour>
      <point x="0" y="832" type="line"/>
      <point x="1024" y="832" type="line"/>
      <point x="1024" y="256" type="line"/>
      <point x="0" y="256" type="line"/>
    </contour>
    <contour>
      <point x="64" y="768" type="line"/>
      <point x="64" y="320" type="line"/>
      <point x="256" y="320" type="line"/>
      <point x="256" y="768" type="line"/>
    </contour>
    <contour>
      <point x="960" y="320" type="line"/>
      <point x="960" y="768" type="line"/>
      <point x="320" y="768" type="line"/>
      <point x="320" y="320" type="line"/>
    </contour>
  </outline>
</glyph>
<glyph name="uniE148" format="2">
  <advance width="1024"/>
  <unicode hex="E148"/>
  <outline>
    <contour>
      <point x="129" y="657" type="line"/>
      <point x="174" y="702" type="line"/>
      <point x="525" y="352" type="line"/>
      <point x="175" y="2" type="line"/>
      <point x="130" y="46" type="line"/>
      <point x="435" y="352" type="line"/>
    </contour>
    <contour>
      <point x="894" y="977" type="line"/>
      <point x="589" y="672" type="line"/>
      <point x="894" y="367" type="line"/>
      <point x="850" y="322" type="line"/>
      <point x="499" y="672" type="line"/>
      <point x="849" y="1022" type="line"/>
    </contour>
  </outline>
</glyph>
<glyph name="uniE14B" format="2">
  <advance width="1024"/>
  <unicode hex="E14B"/>
  <outline>
    <contour>
      <point x="882" y="704" type="line"/>
      <point x="819" y="702"/>
      <point x="762" y="686" type="qcurve" smooth="yes"/>
      <point x="706" y="671"/>
      <point x="655" y="643" type="qcurve" smooth="yes"/>
      <point x="604" y="615"/>
      <point x="559" y="577" type="qcurve" smooth="yes"/>
      <point x="513" y="538"/>
      <point x="473" y="492" type="qcurve" smooth="yes"/>
      <point x="456" y="472"/>
      <point x="439" y="454" type="qcurve" smooth="yes"/>
      <point x="422" y="435"/>
      <point x="403" y="418" type="qcurve" smooth="yes"/>
      <point x="319" y="341"/>
      <point x="217" y="299" type="qcurve" smooth="yes"/>
      <point x="115" y="256"/>
      <point x="0" y="256" type="qcurve"/>
      <point x="0" y="320" type="line"/>
      <point x="65" y="320"/>
      <point x="124" y="335" type="qcurve" smooth="yes"/>
      <point x="183" y="350"/>
      <point x="235" y="378" type="qcurve" smooth="yes"/>
      <point x="288" y="406"/>
      <point x="335" y="445" type="qcurve" smooth="yes"/>
      <point x="381" y="484"/>
      <point x="423" y="532" type="qcurve" smooth="yes"/>
      <point x="441" y="553"/>
      <point x="459" y="572" type="qcurve" smooth="yes"/>
      <point x="476" y="591"/>
      <point x="496" y="609" type="qcurve" smooth="yes"/>
      <point x="537" y="645"/>
      <point x="582" y="674" type="qcurve" smooth="yes"/>
      <point x="626" y="703"/>
      <point x="675" y="723" type="qcurve" smooth="yes"/>
      <point x="724" y="744"/>
      <point x="776" y="755" type="qcurve" smooth="yes"/>
      <point x="828" y="766"/>
      <point x="883" y="768" type="qcurve"/>
      <point x="810" y="841" type="line"/>
      <point x="854" y="886" type="line"/>
      <point x="1005" y="736" type="line"/>
      <point x="855" y="586" type="line"/>
      <point x="810" y="630" type="line"/>
    </contour>
    <contour>
      <point x="403" y="606" type="qcurve"/>
      <point x="392" y="594"/>
      <point x="381" y="582" type="qcurve" smooth="yes"/>
      <point x="371" y="570"/>
      <point x="360" y="558" type="qcurve"/>
      <point x="323" y="591"/>
      <point x="281" y="619" type="qcurve" smooth="yes"/>
      <point x="239" y="646"/>
      <point x="194" y="665" type="qcurve" smooth="yes"/>
      <point x="148" y="684"/>
      <point x="100" y="694" type="qcurve" smooth="yes"/>
      <point x="51" y="704"/>
      <point x="0" y="704" type="qcurve"/>
      <point x="0" y="768" type="line"/>
      <point x="114" y="768"/>
      <point x="216" y="725" type="qcurve" smooth="yes"/>
      <point x="318" y="683"/>
    </contour>
    <contour>
      <point x="854" y="439" type="line"/>
      <point x="1005" y="288" type="line"/>
      <point x="855" y="138" type="line"/>
      <point x="810" y="182" type="line"/>
      <point x="883" y="256" type="line"/>
      <point x="828" y="257"/>
      <point x="775" y="269" type="qcurve" smooth="yes"/>
      <point x="723" y="280"/>
      <point x="674" y="301" type="qcurve" smooth="yes"/>
      <point x="625" y="322"/>
      <point x="579" y="351" type="qcurve" smooth="yes"/>
      <point x="534" y="381"/>
      <point x="494" y="418" type="qcurve"/>
      <point x="504" y="430"/>
      <point x="515" y="442" type="qcurve" smooth="yes"/>
      <point x="525" y="454"/>
      <point x="536" y="466" type="qcurve"/>
      <point x="572" y="434"/>
      <point x="612" y="407" type="qcurve" smooth="yes"/>
      <point x="652" y="381"/>
      <point x="696" y="362" type="qcurve" smooth="yes"/>
      <point x="740" y="343"/>
      <point x="787" y="332" type="qcurve" smooth="yes"/>
      <point x="833" y="322"/>
      <point x="882" y="320" type="qcurve"/>
      <point x="810" y="393" type="line"/>
    </contour>
  </outline>
</glyph>
<glyph name="uniE150" format="2">
  <advance width="1024"/>
  <unicode hex="E150"/>
  <outline>
    <contour>
      <point x="278" y="729" type="line"/>
      <point x="125" y="575" type="line"/>
      <point x="896" y="575" type="line"/>
      <point x="896" y="511" type="line"/>
      <point x="126" y="511" type="line"/>
      <point x="278" y="359" type="line"/>
      <point x="234" y="314" type="line"/>
      <point x="3" y="544" type="line"/>
      <point x="233" y="774" type="line"/>
    </contour>
    <contour>
      <point x="960" y="768" type="line"/>
      <point x="1024" y="768" type="line"/>
      <point x="1024" y="320" type="line"/>
      <point x="960" y="320" type="line"/>
    </contour>
  </outline>
</glyph>
<glyph name="uniE153" format="2">
  <advance width="1024"/>
  <unicode hex="E153"/>
  <outline>
    <contour>
      <point x="64" y="960" type="line"/>
      <point x="512" y="960" type="line"/>
      <point x="512" y="512" type="line"/>
      <point x="64" y="512" type="line"/>
    </contour>
    <contour>
      <point x="448" y="576" type="line"/>
      <point x="448" y="896" type="line"/>
      <point x="128" y="896" type="line"/>
      <point x="128" y="576" type="line"/>
    </contour>
  </outline>
</glyph>
<glyph name="uniE155" format="2">
  <advance width="1024"/>
  <unicode hex="E155"/>
  <outline>
    <contour>
      <point x="128" y="320" type="line"/>
      <point x="128" y="448" type="line"/>
      <point x="0" y="448" type="line"/>
      <point x="0" y="1024" type="line"/>
      <point x="768" y="1024" type="line"/>
      <point x="768" y="896" type="line"/>
      <point x="896" y="896" type="line"/>
      <point x="896" y="512" type="line"/>
      <point x="832" y="512" type="line"/>
      <point x="832" y="832" type="line"/>
      <point x="768" y="832" type="line"/>
      <point x="768" y="448" type="line"/>
      <point x="192" y="448" type="line"/>
      <point x="192" y="384" type="line"/>
      <point x="640" y="384" type="line"/>
      <point x="640" y="320" type="line"/>
    </contour>
    <contour>
      <point x="704" y="512" type="line"/>
      <point x="704" y="960" type="line"/>
      <point x="64" y="960" type="line"/>
      <point x="64" y="512" type="line"/>
    </contour>
    <contour>
      <point x="128" y="896" type="line"/>
      <point x="640" y="896" type="line"/>
      <point x="640" y="576" type="line"/>
      <point x="128" y="576" type="line"/>
    </contour>
    <contour>
      <point x="192" y="640" type="line"/>
      <point x="576" y="640" type="line"/>
      <point x="576" y="832" type="line"/>
      <point x="192" y="832" type="line"/>
    </contour>
    <contour>
      <point x="864" y="448" type="qcurve" smooth="yes"/>
      <point x="897" y="448"/>
      <point x="926" y="435" type="qcurve" smooth="yes"/>
      <point x="955" y="423"/>
      <point x="977" y="401" type="qcurve" smooth="yes"/>
      <point x="998" y="379"/>
      <point x="1011" y="350" type="qcurve" smooth="yes"/>
      <point x="1024" y="321"/>
      <point x="1024" y="288" type="qcurve" smooth="yes"/>
      <point x="1024" y="255"/>
      <point x="1011" y="226" type="qcurve" smooth="yes"/>
      <point x="999" y="197"/>
      <point x="977" y="175" type="qcurve" smooth="yes"/>
      <point x="955" y="154"/>
      <point x="926" y="141" type="qcurve" smooth="yes"/>
      <point x="897" y="128"/>
      <point x="864" y="128" type="qcurve" smooth="yes"/>
      <point x="841" y="128"/>
      <point x="818" y="135" type="qcurve" smooth="yes"/>
      <point x="796" y="141"/>
      <point x="776" y="154" type="qcurve"/>
      <point x="624" y="3" type="line"/>
      <point x="579" y="48" type="line"/>
      <point x="730" y="200" type="line"/>
      <point x="718" y="219"/>
      <point x="711" y="242" type="qcurve" smooth="yes"/>
      <point x="704" y="264"/>
      <point x="704" y="288" type="qcurve" smooth="yes"/>
      <point x="704" y="321"/>
      <point x="717" y="350" type="qcurve" smooth="yes"/>
      <point x="729" y="379"/>
      <point x="751" y="401" type="qcurve" smooth="yes"/>
      <point x="773" y="422"/>
      <point x="802" y="435" type="qcurve" smooth="yes"/>
      <point x="831" y="448"/>
    </contour>
    <contour>
      <point x="864" y="192" type="qcurve" smooth="yes"/>
      <point x="884" y="192"/>
      <point x="901" y="199" type="qcurve" smooth="yes"/>
      <point x="919" y="207"/>
      <point x="932" y="220" type="qcurve" smooth="yes"/>
      <point x="945" y="233"/>
      <point x="952" y="250" type="qcurve" smooth="yes"/>
      <point x="960" y="268"/>
      <point x="960" y="288" type="qcurve" smooth="yes"/>
      <point x="960" y="308"/>
      <point x="953" y="325" type="qcurve" smooth="yes"/>
      <point x="945" y="343"/>
      <point x="932" y="356" type="qcurve" smooth="yes"/>
      <point x="919" y="369"/>
      <point x="902" y="376" type="qcurve" smooth="yes"/>
      <point x="884" y="384"/>
      <point x="864" y="384" type="qcurve" smooth="yes"/>
      <point x="844" y="384"/>
      <point x="827" y="377" type="qcurve" smooth="yes"/>
      <point x="809" y="369"/>
      <point x="796" y="356" type="qcurve" smooth="yes"/>
      <point x="783" y="343"/>
      <point x="776" y="326" type="qcurve" smooth="yes"/>
      <point x="768" y="308"/>
      <point x="768" y="288" type="qcurve" smooth="yes"/>
      <point x="768" y="268"/>
      <point x="775" y="251" type="qcurve" smooth="yes"/>
      <point x="783" y="233"/>
      <point x="796" y="220" type="qcurve" smooth="yes"/>
      <point x="809" y="207"/>
      <point x="826" y="200" type="qcurve" smooth="yes"/>
      <point x="844" y="192"/>
    </contour>
  </outline>
</glyph>
<glyph name="uniE15B" format="2">
  <advance width="1024"/>
  <unicode hex="E15B"/>
  <outline>
    <contour>
      <point x="64" y="960" type="line"/>
      <point x="960" y="960" type="line"/>
      <point x="960" y="64" type="line"/>
      <point x="64" y="64" type="line"/>
    </contour>
    <contour>
      <point x="896" y="128" type="line"/>
      <point x="896" y="896" type="line"/>
      <point x="128" y="896" type="line"/>
      <point x="128" y="128" type="line"/>
    </contour>
  </outline>
</glyph>
<glyph name="uniE15C" format="2">
  <advance width="1024"/>
  <unicode hex="E15C"/>
  <outline>
    <contour>
      <point x="192" y="128" type="line"/>
      <point x="192" y="192" type="line"/>
      <point x="1024" y="192" type="line"/>
      <point x="1024" y="128" type="line"/>
    </contour>
    <contour>
      <point x="0" y="832" type="line"/>
      <point x="0" y="896" type="line"/>
      <point x="64" y="896" type="line"/>
      <point x="64" y="832" type="line"/>
    </contour>
    <contour>
      <point x="0" y="320" type="line"/>
      <point x="0" y="384" type="line"/>
      <point x="64" y="384" type="line"/>
      <point x="64" y="320" type="line"/>
    </contour>
    <contour>
      <point x="192" y="320" type="line"/>
      <point x="192" y="384" type="line"/>
      <point x="1024" y="384" type="line"/>
      <point x="1024" y="320" type="line"/>
    </contour>
    <contour>
      <point x="192" y="896" type="line"/>
      <point x="1024" y="896" type="line"/>
      <point x="1024" y="832" type="line"/>
      <point x="192" y="832" type="line"/>
    </contour>
    <contour>
      <point x="192" y="640" type="line"/>
      <point x="192" y="704" type="line"/>
      <point x="1024" y="704" type="line"/>
      <point x="1024" y="640" type="line"/>
    </contour>
  </outline>
</glyph>
<glyph name="uniE15E" format="2">
  <advance width="1024"/>
  <unicode hex="E15E"/>
  <outline>
    <contour>
      <point x="965" y="914" type="line"/>
      <point x="978" y="892"/>
      <point x="989" y="871" type="qcurve" smooth="yes"/>
      <point x="999" y="851"/>
      <point x="1007" y="830" type="qcurve" smooth="yes"/>
      <point x="1015" y="809"/>
      <point x="1020" y="786" type="qcurve" smooth="yes"/>
      <point x="1024" y="763"/>
      <point x="1024" y="736" type="qcurve" smooth="yes"/>
      <point x="1024" y="697"/>
      <point x="1014" y="660" type="qcurve" smooth="yes"/>
      <point x="1004" y="623"/>
      <point x="985" y="591" type="qcurve" smooth="yes"/>
      <point x="966" y="559"/>
      <point x="940" y="533" type="qcurve" smooth="yes"/>
      <point x="913" y="506"/>
      <point x="881" y="487" type="qcurve" smooth="yes"/>
      <point x="849" y="469"/>
      <point x="812" y="458" type="qcurve" smooth="yes"/>
      <point x="776" y="448"/>
      <point x="736" y="448" type="qcurve" smooth="yes"/>
      <point x="725" y="448"/>
      <point x="713" y="449" type="qcurve" smooth="yes"/>
      <point x="701" y="450"/>
      <point x="690" y="452" type="qcurve"/>
      <point x="287" y="49" type="line" smooth="yes"/>
      <point x="263" y="25"/>
      <point x="232" y="13" type="qcurve" smooth="yes"/>
      <point x="201" y="0"/>
      <point x="168" y="0" type="qcurve" smooth="yes"/>
      <point x="133" y="0"/>
      <point x="103" y="13" type="qcurve" smooth="yes"/>
      <point x="72" y="26"/>
      <point x="49" y="49" type="qcurve" smooth="yes"/>
      <point x="27" y="72"/>
      <point x="13" y="102" type="qcurve" smooth="yes"/>
      <point x="0" y="133"/>
      <point x="0" y="167" type="qcurve" smooth="yes"/>
      <point x="0" y="201"/>
      <point x="12" y="232" type="qcurve" smooth="yes"/>
      <point x="25" y="262"/>
      <point x="49" y="286" type="qcurve" smooth="yes"/>
      <point x="452" y="689" type="line"/>
      <point x="450" y="701"/>
      <point x="449" y="713" type="qcurve" smooth="yes"/>
      <point x="448" y="724"/>
      <point x="448" y="736" type="qcurve" smooth="yes"/>
      <point x="448" y="775"/>
      <point x="458" y="812" type="qcurve" smooth="yes"/>
      <point x="468" y="849"/>
      <point x="487" y="881" type="qcurve" smooth="yes"/>
      <point x="506" y="913"/>
      <point x="532" y="939" type="qcurve" smooth="yes"/>
      <point x="559" y="966"/>
      <point x="591" y="985" type="qcurve" smooth="yes"/>
      <point x="623" y="1003"/>
      <point x="660" y="1014" type="qcurve" smooth="yes"/>
      <point x="696" y="1024"/>
      <point x="736" y="1024" type="qcurve" smooth="yes"/>
      <point x="763" y="1024"/>
      <point x="786" y="1020" type="qcurve" smooth="yes"/>
      <point x="808" y="1016"/>
      <point x="829" y="1008" type="qcurve" smooth="yes"/>
      <point x="850" y="1000"/>
      <point x="871" y="989" type="qcurve" smooth="yes"/>
      <point x="891" y="978"/>
      <point x="914" y="965" type="qcurve"/>
      <point x="717" y="768" type="line"/>
      <point x="768" y="717" type="line"/>
    </contour>
    <contour>
      <point x="736" y="512" type="qcurve" smooth="yes"/>
      <point x="782" y="512"/>
      <point x="823" y="530" type="qcurve" smooth="yes"/>
      <point x="864" y="547"/>
      <point x="894" y="578" type="qcurve" smooth="yes"/>
      <point x="924" y="608"/>
      <point x="942" y="649" type="qcurve" smooth="yes"/>
      <point x="960" y="689"/>
      <point x="960" y="736" type="qcurve" smooth="yes"/>
      <point x="960" y="772"/>
      <point x="948" y="806" type="qcurve"/>
      <point x="768" y="627" type="line"/>
      <point x="627" y="768" type="line"/>
      <point x="806" y="948" type="line"/>
      <point x="773" y="960"/>
      <point x="736" y="960" type="qcurve" smooth="yes"/>
      <point x="690" y="960"/>
      <point x="649" y="942" type="qcurve" smooth="yes"/>
      <point x="608" y="925"/>
      <point x="578" y="894" type="qcurve" smooth="yes"/>
      <point x="548" y="864"/>
      <point x="530" y="823" type="qcurve" smooth="yes"/>
      <point x="512" y="783"/>
      <point x="512" y="736" type="qcurve" smooth="yes"/>
      <point x="512" y="719"/>
      <point x="515" y="702" type="qcurve" smooth="yes"/>
      <point x="518" y="686"/>
      <point x="522" y="669" type="qcurve"/>
      <point x="95" y="241" type="line" smooth="yes"/>
      <point x="80" y="227"/>
      <point x="72" y="208" type="qcurve" smooth="yes"/>
      <point x="64" y="189"/>
      <point x="64" y="168" type="qcurve" smooth="yes"/>
      <point x="64" y="147"/>
      <point x="72" y="128" type="qcurve" smooth="yes"/>
      <point x="80" y="109"/>
      <point x="94" y="95" type="qcurve" smooth="yes"/>
      <point x="108" y="81"/>
      <point x="127" y="72" type="qcurve" smooth="yes"/>
      <point x="146" y="64"/>
      <point x="167" y="64" type="qcurve" smooth="yes"/>
      <point x="188" y="64"/>
      <point x="207" y="72" type="qcurve" smooth="yes"/>
      <point x="226" y="80"/>
      <point x="241" y="94" type="qcurve" smooth="yes"/>
      <point x="669" y="522" type="line"/>
      <point x="685" y="518"/>
      <point x="702" y="515" type="qcurve" smooth="yes"/>
      <point x="718" y="512"/>
    </contour>
  </outline>
</glyph>
<glyph name="uniE160" format="2">
  <advance width="1024"/>
  <unicode hex="E160"/>
  <outline>
    <contour>
      <point x="557" y="1024" type="line"/>
      <point x="896" y="686" type="line"/>
      <point x="896" y="0" type="line"/>
      <point x="128" y="0" type="line"/>
      <point x="128" y="1024" type="line"/>
    </contour>
    <contour>
      <point x="576" y="915" type="line"/>
      <point x="576" y="704" type="line"/>
      <point x="786" y="704" type="line"/>
    </contour>
    <contour>
      <point x="192" y="64" type="line"/>
      <point x="832" y="64" type="line"/>
      <point x="832" y="640" type="line"/>
      <point x="512" y="640" type="line"/>
      <point x="512" y="960" type="line"/>
      <point x="192" y="960" type="line"/>
    </contour>
  </outline>
</glyph>
<glyph name="uniE165" format="2">
  <advance width="1024"/>
  <unicode hex="E165"/>
  <outline>
    <contour>
      <point x="1024" y="832" type="line"/>
      <point x="1024" y="291" type="line"/>
      <point x="1010" y="302"/>
      <point x="994" y="311" type="qcurve" smooth="yes"/>
      <point x="978" y="319"/>
      <point x="960" y="325" type="qcurve"/>
      <point x="960" y="732" type="line"/>
      <point x="512" y="508" type="line"/>
      <point x="64" y="732" type="line"/>
      <point x="64" y="256" type="line"/>
      <point x="416" y="256" type="line"/>
      <point x="416" y="192" type="line"/>
      <point x="0" y="192" type="line"/>
      <point x="0" y="832" type="line"/>
    </contour>
    <contour>
      <point x="512" y="580" type="line"/>
      <point x="888" y="768" type="line"/>
      <point x="136" y="768" type="line"/>
    </contour>
    <contour>
      <point x="557" y="224" type="line"/>
      <point x="670" y="111" type="line"/>
      <point x="626" y="66" type="line"/>
      <point x="467" y="224" type="line"/>
      <point x="625" y="382" type="line"/>
      <point x="670" y="338" type="line"/>
    </contour>
    <contour>
      <point x="749" y="256" type="line"/>
      <point x="774" y="256"/>
      <point x="805" y="257" type="qcurve" smooth="yes"/>
      <point x="835" y="258"/>
      <point x="865" y="257" type="qcurve" smooth="yes"/>
      <point x="896" y="256"/>
      <point x="924" y="250" type="qcurve" smooth="yes"/>
      <point x="953" y="244"/>
      <point x="975" y="230" type="qcurve" smooth="yes"/>
      <point x="997" y="216"/>
      <point x="1011" y="191" type="qcurve" smooth="yes"/>
      <point x="1024" y="167"/>
      <point x="1024" y="128" type="qcurve" smooth="yes"/>
      <point x="1024" y="102"/>
      <point x="1014" y="78" type="qcurve" smooth="yes"/>
      <point x="1004" y="55"/>
      <point x="986" y="38" type="qcurve" smooth="yes"/>
      <point x="969" y="21"/>
      <point x="946" y="10" type="qcurve" smooth="yes"/>
      <point x="922" y="0"/>
      <point x="896" y="0" type="qcurve"/>
      <point x="896" y="64" type="line"/>
      <point x="909" y="64"/>
      <point x="921" y="69" type="qcurve" smooth="yes"/>
      <point x="932" y="74"/>
      <point x="941" y="83" type="qcurve" smooth="yes"/>
      <point x="950" y="91"/>
      <point x="955" y="103" type="qcurve" smooth="yes"/>
      <point x="960" y="114"/>
      <point x="960" y="128" type="qcurve" smooth="yes"/>
      <point x="960" y="141"/>
      <point x="955" y="153" type="qcurve" smooth="yes"/>
      <point x="950" y="164"/>
      <point x="941" y="173" type="qcurve" smooth="yes"/>
      <point x="933" y="182"/>
      <point x="921" y="187" type="qcurve" smooth="yes"/>
      <point x="910" y="192"/>
      <point x="896" y="192" type="qcurve" smooth="yes"/>
      <point x="750" y="192" type="line"/>
      <point x="830" y="111" type="line"/>
      <point x="786" y="66" type="line"/>
      <point x="627" y="224" type="line"/>
      <point x="785" y="382" type="line"/>
      <point x="830" y="338" type="line"/>
    </contour>
  </outline>
</glyph>
<glyph name="uniE168" format="2">
  <advance width="1024"/>
  <unicode hex="E168"/>
  <outline>
    <contour>
      <point x="512" y="1024" type="qcurve" smooth="yes"/>
      <point x="582" y="1024"/>
      <point x="648" y="1006" type="qcurve" smooth="yes"/>
      <point x="713" y="988"/>
      <point x="770" y="954" type="qcurve" smooth="yes"/>
      <point x="827" y="921"/>
      <point x="874" y="874" type="qcurve" smooth="yes"/>
      <point x="921" y="828"/>
      <point x="954" y="771" type="qcurve" smooth="yes"/>
      <point x="987" y="714"/>
      <point x="1006" y="648" type="qcurve" smooth="yes"/>
      <point x="1024" y="583"/>
      <point x="1024" y="512" type="qcurve" smooth="yes"/>
      <point x="1024" y="485"/>
      <point x="1019" y="455" type="qcurve" smooth="yes"/>
      <point x="1014" y="425"/>
      <point x="1003" y="397" type="qcurve" smooth="yes"/>
      <point x="993" y="368"/>
      <point x="977" y="343" type="qcurve" smooth="yes"/>
      <point x="961" y="317"/>
      <point x="939" y="298" type="qcurve" smooth="yes"/>
      <point x="918" y="279"/>
      <point x="891" y="267" type="qcurve" smooth="yes"/>
      <point x="864" y="256"/>
      <point x="832" y="256" type="qcurve" smooth="yes"/>
      <point x="805" y="256"/>
      <point x="779" y="263" type="qcurve" smooth="yes"/>
      <point x="754" y="270"/>
      <point x="732" y="284" type="qcurve" smooth="yes"/>
      <point x="710" y="297"/>
      <point x="691" y="317" type="qcurve" smooth="yes"/>
      <point x="673" y="336"/>
      <point x="661" y="361" type="qcurve"/>
      <point x="646" y="338"/>
      <point x="627" y="318" type="qcurve" smooth="yes"/>
      <point x="607" y="299"/>
      <point x="584" y="285" type="qcurve" smooth="yes"/>
      <point x="561" y="271"/>
      <point x="535" y="264" type="qcurve" smooth="yes"/>
      <point x="509" y="256"/>
      <point x="480" y="256" type="qcurve" smooth="yes"/>
      <point x="429" y="256"/>
      <point x="388" y="278" type="qcurve" smooth="yes"/>
      <point x="346" y="300"/>
      <point x="317" y="336" type="qcurve" smooth="yes"/>
      <point x="288" y="372"/>
      <point x="272" y="418" type="qcurve" smooth="yes"/>
      <point x="256" y="464"/>
      <point x="256" y="512" type="qcurve" smooth="yes"/>
      <point x="256" y="559"/>
      <point x="272" y="605" type="qcurve" smooth="yes"/>
      <point x="287" y="651"/>
      <point x="317" y="687" type="qcurve" smooth="yes"/>
      <point x="346" y="723"/>
      <point x="387" y="746" type="qcurve" smooth="yes"/>
      <point x="429" y="768"/>
      <point x="480" y="768" type="qcurve" smooth="yes"/>
      <point x="527" y="768"/>
      <point x="568" y="748" type="qcurve" smooth="yes"/>
      <point x="609" y="727"/>
      <point x="640" y="692" type="qcurve"/>
      <point x="640" y="768" type="line"/>
      <point x="704" y="768" type="line"/>
      <point x="704" y="448" type="line" smooth="yes"/>
      <point x="704" y="422"/>
      <point x="714" y="398" type="qcurve" smooth="yes"/>
      <point x="724" y="375"/>
      <point x="741" y="358" type="qcurve" smooth="yes"/>
      <point x="759" y="340"/>
      <point x="782" y="330" type="qcurve" smooth="yes"/>
      <point x="805" y="320"/>
      <point x="832" y="320" type="qcurve" smooth="yes"/>
      <point x="854" y="320"/>
      <point x="872" y="329" type="qcurve" smooth="yes"/>
      <point x="890" y="338"/>
      <point x="905" y="354" type="qcurve" smooth="yes"/>
      <point x="919" y="369"/>
      <point x="929" y="389" type="qcurve" smooth="yes"/>
      <point x="940" y="408"/>
      <point x="947" y="430" type="qcurve" smooth="yes"/>
      <point x="953" y="451"/>
      <point x="957" y="473" type="qcurve" smooth="yes"/>
      <point x="960" y="494"/>
      <point x="960" y="512" type="qcurve" smooth="yes"/>
      <point x="960" y="573"/>
      <point x="944" y="631" type="qcurve" smooth="yes"/>
      <point x="928" y="688"/>
      <point x="899" y="738" type="qcurve" smooth="yes"/>
      <point x="870" y="787"/>
      <point x="829" y="828" type="qcurve" smooth="yes"/>
      <point x="788" y="869"/>
      <point x="738" y="899" type="qcurve" smooth="yes"/>
      <point x="688" y="928"/>
      <point x="631" y="944" type="qcurve" smooth="yes"/>
      <point x="574" y="960"/>
      <point x="512" y="960" type="qcurve" smooth="yes"/>
      <point x="451" y="960"/>
      <point x="393" y="944" type="qcurve" smooth="yes"/>
      <point x="336" y="928"/>
      <point x="286" y="899" type="qcurve" smooth="yes"/>
      <point x="237" y="870"/>
      <point x="196" y="829" type="qcurve" smooth="yes"/>
      <point x="155" y="788"/>
      <point x="125" y="738" type="qcurve" smooth="yes"/>
      <point x="96" y="688"/>
      <point x="80" y="631" type="qcurve" smooth="yes"/>
      <point x="64" y="574"/>
      <point x="64" y="512" type="qcurve" smooth="yes"/>
      <point x="64" y="451"/>
      <point x="80" y="393" type="qcurve" smooth="yes"/>
      <point x="96" y="336"/>
      <point x="125" y="286" type="qcurve" smooth="yes"/>
      <point x="154" y="237"/>
      <point x="195" y="196" type="qcurve" smooth="yes"/>
      <point x="236" y="155"/>
      <point x="286" y="125" type="qcurve" smooth="yes"/>
      <point x="336" y="96"/>
      <point x="393" y="80" type="qcurve" smooth="yes"/>
      <point x="450" y="64"/>
      <point x="512" y="64" type="qcurve" smooth="yes"/>
      <point x="601" y="64"/>
      <point x="683" y="98" type="qcurve"/>
      <point x="708" y="39" type="line"/>
      <point x="661" y="20"/>
      <point x="612" y="10" type="qcurve" smooth="yes"/>
      <point x="563" y="0"/>
      <point x="512" y="0" type="qcurve" smooth="yes"/>
      <point x="442" y="0"/>
      <point x="376" y="18" type="qcurve" smooth="yes"/>
      <point x="311" y="36"/>
      <point x="254" y="70" type="qcurve" smooth="yes"/>
      <point x="197" y="103"/>
      <point x="150" y="150" type="qcurve" smooth="yes"/>
      <point x="103" y="196"/>
      <point x="70" y="253" type="qcurve" smooth="yes"/>
      <point x="37" y="310"/>
      <point x="18" y="376" type="qcurve" smooth="yes"/>
      <point x="0" y="441"/>
      <point x="0" y="512" type="qcurve" smooth="yes"/>
      <point x="0" y="582"/>
      <point x="18" y="648" type="qcurve" smooth="yes"/>
      <point x="36" y="713"/>
      <point x="70" y="770" type="qcurve" smooth="yes"/>
      <point x="103" y="827"/>
      <point x="150" y="874" type="qcurve" smooth="yes"/>
      <point x="196" y="921"/>
      <point x="253" y="954" type="qcurve" smooth="yes"/>
      <point x="310" y="987"/>
      <point x="376" y="1006" type="qcurve" smooth="yes"/>
      <point x="441" y="1024"/>
    </contour>
    <contour>
      <point x="480" y="320" type="qcurve" smooth="yes"/>
      <point x="517" y="320"/>
      <point x="547" y="337" type="qcurve" smooth="yes"/>
      <point x="577" y="354"/>
      <point x="597" y="382" type="qcurve" smooth="yes"/>
      <point x="618" y="409"/>
      <point x="629" y="444" type="qcurve" smooth="yes"/>
      <point x="640" y="478"/>
      <point x="640" y="512" type="qcurve" smooth="yes"/>
      <point x="640" y="546"/>
      <point x="629" y="580" type="qcurve" smooth="yes"/>
      <point x="618" y="614"/>
      <point x="598" y="642" type="qcurve" smooth="yes"/>
      <point x="577" y="669"/>
      <point x="547" y="687" type="qcurve" smooth="yes"/>
      <point x="518" y="704"/>
      <point x="480" y="704" type="qcurve" smooth="yes"/>
      <point x="443" y="704"/>
      <point x="413" y="687" type="qcurve" smooth="yes"/>
      <point x="383" y="670"/>
      <point x="363" y="642" type="qcurve" smooth="yes"/>
      <point x="342" y="615"/>
      <point x="331" y="580" type="qcurve" smooth="yes"/>
      <point x="320" y="546"/>
      <point x="320" y="512" type="qcurve" smooth="yes"/>
      <point x="320" y="478"/>
      <point x="331" y="444" type="qcurve" smooth="yes"/>
      <point x="342" y="410"/>
      <point x="362" y="382" type="qcurve" smooth="yes"/>
      <point x="383" y="355"/>
      <point x="413" y="337" type="qcurve" smooth="yes"/>
      <point x="442" y="320"/>
    </contour>
  </outline>
</glyph>
<glyph name="uniE169" format="2">
  <advance width="1024"/>
  <unicode hex="E169"/>
  <outline>
    <contour>
      <point x="384" y="768" type="line"/>
      <point x="1024" y="768" type="line"/>
      <point x="1024" y="704" type="line"/>
      <point x="384" y="704" type="line"/>
    </contour>
    <contour>
      <point x="384" y="448" type="line"/>
      <point x="384" y="512" type="line"/>
      <point x="1024" y="512" type="line"/>
      <point x="1024" y="448" type="line"/>
    </contour>
    <contour>
      <point x="384" y="192" type="line"/>
      <point x="384" y="256" type="line"/>
      <point x="1024" y="256" type="line"/>
      <point x="1024" y="192" type="line"/>
    </contour>
    <contour>
      <point x="128" y="640" type="line"/>
      <point x="0" y="768" type="line"/>
      <point x="256" y="768" type="line"/>
    </contour>
  </outline>
</glyph>
<glyph name="uniE16A" format="2">
  <advance width="1024"/>
  <unicode hex="E16A"/>
  <outline>
    <contour>
      <point x="1024" y="512" type="line"/>
      <point x="320" y="512" type="line"/>
      <point x="320" y="576" type="line"/>
      <point x="1024" y="576" type="line"/>
    </contour>
    <contour>
      <point x="129" y="576" type="line"/>
      <point x="256" y="448" type="line"/>
      <point x="0" y="448" type="line"/>
    </contour>
  </outline>
</glyph>
<glyph name="uniE16B" format="2">
  <advance width="1024"/>
  <unicode hex="E16B"/>
  <outline>
    <contour>
      <point x="708" y="256" type="line"/>
      <point x="733" y="255"/>
      <point x="756" y="245" type="qcurve" smooth="yes"/>
      <point x="779" y="235"/>
      <point x="796" y="217" type="qcurve" smooth="yes"/>
      <point x="812" y="200"/>
      <point x="822" y="177" type="qcurve" smooth="yes"/>
      <point x="832" y="154"/>
      <point x="832" y="128" type="qcurve" smooth="yes"/>
      <point x="832" y="102"/>
      <point x="822" y="78" type="qcurve" smooth="yes"/>
      <point x="812" y="55"/>
      <point x="794" y="38" type="qcurve" smooth="yes"/>
      <point x="777" y="21"/>
      <point x="754" y="10" type="qcurve" smooth="yes"/>
      <point x="730" y="0"/>
      <point x="704" y="0" type="qcurve" smooth="yes"/>
      <point x="678" y="0"/>
      <point x="654" y="10" type="qcurve" smooth="yes"/>
      <point x="631" y="20"/>
      <point x="614" y="38" type="qcurve" smooth="yes"/>
      <point x="597" y="55"/>
      <point x="586" y="78" type="qcurve" smooth="yes"/>
      <point x="576" y="101"/>
      <point x="576" y="128" type="qcurve" smooth="yes"/>
      <point x="576" y="163"/>
      <point x="594" y="194" type="qcurve" smooth="yes"/>
      <point x="612" y="224"/>
      <point x="644" y="241" type="qcurve"/>
      <point x="511" y="506" type="line"/>
      <point x="379" y="242" type="line"/>
      <point x="394" y="234"/>
      <point x="407" y="222" type="qcurve" smooth="yes"/>
      <point x="420" y="210"/>
      <point x="429" y="195" type="qcurve" smooth="yes"/>
      <point x="438" y="180"/>
      <point x="443" y="163" type="qcurve" smooth="yes"/>
      <point x="448" y="146"/>
      <point x="448" y="128" type="qcurve" smooth="yes"/>
      <point x="448" y="102"/>
      <point x="438" y="78" type="qcurve" smooth="yes"/>
      <point x="428" y="55"/>
      <point x="410" y="38" type="qcurve" smooth="yes"/>
      <point x="393" y="21"/>
      <point x="370" y="10" type="qcurve" smooth="yes"/>
      <point x="346" y="0"/>
      <point x="320" y="0" type="qcurve" smooth="yes"/>
      <point x="294" y="0"/>
      <point x="270" y="10" type="qcurve" smooth="yes"/>
      <point x="247" y="20"/>
      <point x="230" y="38" type="qcurve" smooth="yes"/>
      <point x="213" y="55"/>
      <point x="202" y="78" type="qcurve" smooth="yes"/>
      <point x="192" y="101"/>
      <point x="192" y="128" type="qcurve" smooth="yes"/>
      <point x="192" y="153"/>
      <point x="201" y="176" type="qcurve" smooth="yes"/>
      <point x="211" y="199"/>
      <point x="227" y="216" type="qcurve" smooth="yes"/>
      <point x="244" y="233"/>
      <point x="266" y="244" type="qcurve" smooth="yes"/>
      <point x="288" y="254"/>
      <point x="314" y="256" type="qcurve"/>
      <point x="475" y="579" type="line"/>
      <point x="306" y="918" type="line"/>
      <point x="334" y="1005" type="line"/>
      <point x="511" y="652" type="line"/>
      <point x="687" y="1005" type="line"/>
      <point x="716" y="918" type="line"/>
      <point x="547" y="579" type="line"/>
    </contour>
    <contour>
      <point x="320" y="64" type="qcurve" smooth="yes"/>
      <point x="333" y="64"/>
      <point x="345" y="69" type="qcurve" smooth="yes"/>
      <point x="356" y="74"/>
      <point x="365" y="83" type="qcurve" smooth="yes"/>
      <point x="374" y="91"/>
      <point x="379" y="103" type="qcurve" smooth="yes"/>
      <point x="384" y="114"/>
      <point x="384" y="128" type="qcurve" smooth="yes"/>
      <point x="384" y="141"/>
      <point x="379" y="153" type="qcurve" smooth="yes"/>
      <point x="374" y="164"/>
      <point x="365" y="173" type="qcurve" smooth="yes"/>
      <point x="357" y="182"/>
      <point x="345" y="187" type="qcurve" smooth="yes"/>
      <point x="334" y="192"/>
      <point x="320" y="192" type="qcurve" smooth="yes"/>
      <point x="307" y="192"/>
      <point x="295" y="187" type="qcurve" smooth="yes"/>
      <point x="284" y="182"/>
      <point x="275" y="173" type="qcurve" smooth="yes"/>
      <point x="266" y="165"/>
      <point x="261" y="153" type="qcurve" smooth="yes"/>
      <point x="256" y="142"/>
      <point x="256" y="128" type="qcurve" smooth="yes"/>
      <point x="256" y="115"/>
      <point x="261" y="103" type="qcurve" smooth="yes"/>
      <point x="266" y="92"/>
      <point x="275" y="83" type="qcurve" smooth="yes"/>
      <point x="283" y="74"/>
      <point x="295" y="69" type="qcurve" smooth="yes"/>
      <point x="306" y="64"/>
    </contour>
    <contour>
      <point x="704" y="64" type="qcurve" smooth="yes"/>
      <point x="717" y="64"/>
      <point x="729" y="69" type="qcurve" smooth="yes"/>
      <point x="740" y="74"/>
      <point x="749" y="83" type="qcurve" smooth="yes"/>
      <point x="758" y="91"/>
      <point x="763" y="103" type="qcurve" smooth="yes"/>
      <point x="768" y="114"/>
      <point x="768" y="128" type="qcurve" smooth="yes"/>
      <point x="768" y="141"/>
      <point x="763" y="153" type="qcurve" smooth="yes"/>
      <point x="758" y="164"/>
      <point x="749" y="173" type="qcurve" smooth="yes"/>
      <point x="741" y="182"/>
      <point x="729" y="187" type="qcurve" smooth="yes"/>
      <point x="718" y="192"/>
      <point x="704" y="192" type="qcurve" smooth="yes"/>
      <point x="691" y="192"/>
      <point x="679" y="187" type="qcurve" smooth="yes"/>
      <point x="668" y="182"/>
      <point x="659" y="173" type="qcurve" smooth="yes"/>
      <point x="650" y="165"/>
      <point x="645" y="153" type="qcurve" smooth="yes"/>
      <point x="640" y="142"/>
      <point x="640" y="128" type="qcurve" smooth="yes"/>
      <point x="640" y="115"/>
      <point x="645" y="103" type="qcurve" smooth="yes"/>
      <point x="650" y="92"/>
      <point x="659" y="83" type="qcurve" smooth="yes"/>
      <point x="667" y="74"/>
      <point x="679" y="69" type="qcurve" smooth="yes"/>
      <point x="690" y="64"/>
    </contour>
  </outline>
</glyph>
<glyph name="uniE16D" format="2">
  <advance width="1024"/>
  <unicode hex="E16D"/>
  <outline>
    <contour>
      <point x="960" y="640" type="line"/>
      <point x="960" y="0" type="line"/>
      <point x="448" y="0" type="line"/>
      <point x="448" y="64" type="line"/>
      <point x="64" y="64" type="line"/>
      <point x="64" y="896" type="line"/>
      <point x="320" y="896" type="line"/>
      <point x="320" y="922"/>
      <point x="330" y="945" type="qcurve" smooth="yes"/>
      <point x="340" y="969"/>
      <point x="358" y="986" type="qcurve" smooth="yes"/>
      <point x="375" y="1003"/>
      <point x="398" y="1014" type="qcurve" smooth="yes"/>
      <point x="421" y="1024"/>
      <point x="448" y="1024" type="qcurve" smooth="yes"/>
      <point x="474" y="1024"/>
      <point x="497" y="1014" type="qcurve" smooth="yes"/>
      <point x="521" y="1004"/>
      <point x="538" y="986" type="qcurve" smooth="yes"/>
      <point x="555" y="969"/>
      <point x="566" y="946" type="qcurve" smooth="yes"/>
      <point x="576" y="922"/>
      <point x="576" y="896" type="qcurve"/>
      <point x="832" y="896" type="line"/>
      <point x="832" y="640" type="line"/>
    </contour>
    <contour>
      <point x="256" y="832" type="line"/>
      <point x="256" y="768" type="line"/>
      <point x="640" y="768" type="line"/>
      <point x="640" y="832" type="line"/>
      <point x="512" y="832" type="line"/>
      <point x="512" y="844"/>
      <point x="512" y="859" type="qcurve" smooth="yes"/>
      <point x="513" y="873"/>
      <point x="512" y="887" type="qcurve" smooth="yes"/>
      <point x="511" y="901"/>
      <point x="508" y="915" type="qcurve" smooth="yes"/>
      <point x="505" y="928"/>
      <point x="498" y="938" type="qcurve" smooth="yes"/>
      <point x="491" y="948"/>
      <point x="479" y="954" type="qcurve" smooth="yes"/>
      <point x="467" y="960"/>
      <point x="448" y="960" type="qcurve" smooth="yes"/>
      <point x="420" y="960"/>
      <point x="407" y="947" type="qcurve" smooth="yes"/>
      <point x="394" y="934"/>
      <point x="388" y="915" type="qcurve" smooth="yes"/>
      <point x="383" y="896"/>
      <point x="383" y="873" type="qcurve" smooth="yes"/>
      <point x="384" y="851"/>
      <point x="384" y="832" type="qcurve"/>
    </contour>
    <contour>
      <point x="448" y="128" type="line"/>
      <point x="448" y="640" type="line"/>
      <point x="768" y="640" type="line"/>
      <point x="768" y="832" type="line"/>
      <point x="704" y="832" type="line"/>
      <point x="704" y="704" type="line"/>
      <point x="192" y="704" type="line"/>
      <point x="192" y="832" type="line"/>
      <point x="128" y="832" type="line"/>
      <point x="128" y="128" type="line"/>
    </contour>
    <contour>
      <point x="896" y="576" type="line"/>
      <point x="512" y="576" type="line"/>
      <point x="512" y="64" type="line"/>
      <point x="896" y="64" type="line"/>
    </contour>
  </outline>
</glyph>
<glyph name="uniE175" format="2">
  <advance width="1024"/>
  <unicode hex="E175"/>
  <outline>
    <contour>
      <point x="1024" y="384" type="line"/>
      <point x="960" y="384" type="line"/>
      <point x="960" y="448" type="line"/>
      <point x="1024" y="448" type="line"/>
    </contour>
    <contour>
      <point x="1024" y="576" type="line"/>
      <point x="960" y="576" type="line"/>
      <point x="960" y="640" type="line"/>
      <point x="1024" y="640" type="line"/>
    </contour>
    <contour>
      <point x="832" y="576" type="line"/>
      <point x="0" y="576" type="line"/>
      <point x="0" y="640" type="line"/>
      <point x="832" y="640" type="line"/>
    </contour>
    <contour>
      <point x="1024" y="768" type="line"/>
      <point x="960" y="768" type="line"/>
      <point x="960" y="832" type="line"/>
      <point x="1024" y="832" type="line"/>
    </contour>
    <contour>
      <point x="832" y="832" type="line"/>
      <point x="832" y="768" type="line"/>
      <point x="0" y="768" type="line"/>
      <point x="0" y="832" type="line"/>
    </contour>
    <contour>
      <point x="832" y="384" type="line"/>
      <point x="0" y="384" type="line"/>
      <point x="0" y="448" type="line"/>
      <point x="832" y="448" type="line"/>
    </contour>
    <contour>
      <point x="1024" y="192" type="line"/>
      <point x="960" y="192" type="line"/>
      <point x="960" y="256" type="line"/>
      <point x="1024" y="256" type="line"/>
    </contour>
    <contour>
      <point x="832" y="192" type="line"/>
      <point x="0" y="192" type="line"/>
      <point x="0" y="256" type="line"/>
      <point x="832" y="256" type="line"/>
    </contour>
  </outline>
</glyph>
<glyph name="uniE177" format="2">
  <advance width="1024"/>
  <unicode hex="E177"/>
  <outline>
    <contour>
      <point x="960" y="896" type="line"/>
      <point x="960" y="192" type="line"/>
      <point x="0" y="192" type="line"/>
      <point x="0" y="896" type="line"/>
    </contour>
    <contour>
      <point x="64" y="256" type="line"/>
      <point x="64" y="256" type="line"/>
      <point x="448" y="256" type="line"/>
      <point x="448" y="320" type="line"/>
      <point x="512" y="320" type="line"/>
      <point x="512" y="256" type="line"/>
      <point x="896" y="256" type="line"/>
      <point x="896" y="832" type="line"/>
      <point x="512" y="832" type="line"/>
      <point x="512" y="768" type="line"/>
      <point x="448" y="768" type="line"/>
      <point x="448" y="832" type="line"/>
      <point x="64" y="832" type="line"/>
    </contour>
    <contour>
      <point x="384" y="511" type="line"/>
      <point x="227" y="511" type="line"/>
      <point x="273" y="465" type="line"/>
      <point x="239" y="431" type="line"/>
      <point x="126" y="543" type="line"/>
      <point x="239" y="657" type="line"/>
      <point x="273" y="623" type="line"/>
      <point x="226" y="575" type="line"/>
      <point x="384" y="575" type="line"/>
    </contour>
    <contour>
      <point x="512" y="576" type="line"/>
      <point x="448" y="576" type="line"/>
      <point x="448" y="704" type="line"/>
      <point x="512" y="704" type="line"/>
    </contour>
    <contour>
      <point x="512" y="384" type="line"/>
      <point x="448" y="384" type="line"/>
      <point x="448" y="512" type="line"/>
      <point x="512" y="512" type="line"/>
    </contour>
  </outline>
</glyph>
<glyph name="uniE179" format="2">
  <advance width="1024"/>
  <unicode hex="E179"/>
  <outline>
    <contour>
      <point x="0" y="320" type="line"/>
      <point x="0" y="512" type="line"/>
      <point x="192" y="512" type="line"/>
      <point x="192" y="320" type="line"/>
    </contour>
    <contour>
      <point x="64" y="448" type="line"/>
      <point x="64" y="384" type="line"/>
      <point x="128" y="384" type="line"/>
      <point x="128" y="448" type="line"/>
    </contour>
    <contour>
      <point x="0" y="576" type="line"/>
      <point x="0" y="768" type="line"/>
      <point x="192" y="768" type="line"/>
      <point x="192" y="576" type="line"/>
    </contour>
    <contour>
      <point x="64" y="704" type="line"/>
      <point x="64" y="640" type="line"/>
      <point x="128" y="640" type="line"/>
      <point x="128" y="704" type="line"/>
    </contour>
    <contour>
      <point x="0" y="832" type="line"/>
      <point x="0" y="1024" type="line"/>
      <point x="192" y="1024" type="line"/>
      <point x="192" y="832" type="line"/>
    </contour>
    <contour>
      <point x="64" y="960" type="line"/>
      <point x="64" y="896" type="line"/>
      <point x="128" y="896" type="line"/>
      <point x="128" y="960" type="line"/>
    </contour>
    <contour>
      <point x="320" y="640" type="line"/>
      <point x="320" y="704" type="line"/>
      <point x="896" y="704" type="line"/>
      <point x="896" y="640" type="line"/>
    </contour>
    <contour>
      <point x="768" y="448" type="line"/>
      <point x="768" y="384" type="line"/>
      <point x="320" y="384" type="line"/>
      <point x="320" y="448" type="line"/>
    </contour>
    <contour>
      <point x="320" y="960" type="line"/>
      <point x="1024" y="960" type="line"/>
      <point x="1024" y="896" type="line"/>
      <point x="320" y="896" type="line"/>
    </contour>
    <contour>
      <point x="0" y="64" type="line"/>
      <point x="0" y="256" type="line"/>
      <point x="192" y="256" type="line"/>
      <point x="192" y="64" type="line"/>
    </contour>
    <contour>
      <point x="64" y="192" type="line"/>
      <point x="64" y="128" type="line"/>
      <point x="128" y="128" type="line"/>
      <point x="128" y="192" type="line"/>
    </contour>
    <contour>
      <point x="320" y="128" type="line"/>
      <point x="320" y="192" type="line"/>
      <point x="896" y="192" type="line"/>
      <point x="896" y="128" type="line"/>
    </contour>
  </outline>
</glyph>
<glyph name="uniE17B" format="2">
  <advance width="1024"/>
  <unicode hex="E17B"/>
  <outline>
    <contour>
      <point x="512" y="512" type="line"/>
      <point x="512" y="448" type="line"/>
      <point x="576" y="448" type="line"/>
      <point x="576" y="320" type="line"/>
      <point x="704" y="320" type="line"/>
      <point x="704" y="256" type="line"/>
      <point x="960" y="256" type="line"/>
      <point x="960" y="192" type="line"/>
      <point x="704" y="192" type="line"/>
      <point x="704" y="128" type="line"/>
      <point x="256" y="128" type="line"/>
      <point x="256" y="192" type="line"/>
      <point x="0" y="192" type="line"/>
      <point x="0" y="256" type="line"/>
      <point x="256" y="256" type="line"/>
      <point x="256" y="320" type="line"/>
      <point x="384" y="320" type="line"/>
      <point x="384" y="448" type="line"/>
      <point x="448" y="448" type="line"/>
      <point x="448" y="512" type="line"/>
      <point x="0" y="512" type="line"/>
      <point x="0" y="832" type="line" smooth="yes"/>
      <point x="0" y="845"/>
      <point x="5" y="857" type="qcurve" smooth="yes"/>
      <point x="10" y="868"/>
      <point x="19" y="877" type="qcurve" smooth="yes"/>
      <point x="27" y="886"/>
      <point x="39" y="891" type="qcurve" smooth="yes"/>
      <point x="50" y="896"/>
      <point x="64" y="896" type="qcurve" smooth="yes"/>
      <point x="896" y="896" type="line" smooth="yes"/>
      <point x="909" y="896"/>
      <point x="921" y="891" type="qcurve" smooth="yes"/>
      <point x="932" y="886"/>
      <point x="941" y="877" type="qcurve" smooth="yes"/>
      <point x="950" y="869"/>
      <point x="955" y="857" type="qcurve" smooth="yes"/>
      <point x="960" y="846"/>
      <point x="960" y="832" type="qcurve" smooth="yes"/>
      <point x="960" y="512" type="line"/>
    </contour>
    <contour>
      <point x="512" y="256" type="line"/>
      <point x="512" y="384" type="line"/>
      <point x="448" y="384" type="line"/>
      <point x="448" y="256" type="line"/>
      <point x="320" y="256" type="line"/>
      <point x="320" y="192" type="line"/>
      <point x="640" y="192" type="line"/>
      <point x="640" y="256" type="line"/>
    </contour>
    <contour>
      <point x="64" y="576" type="line"/>
      <point x="896" y="576" type="line"/>
      <point x="896" y="832" type="line"/>
      <point x="64" y="832" type="line"/>
    </contour>
    <contour>
      <point x="800" y="768" type="qcurve" smooth="yes"/>
      <point x="813" y="768"/>
      <point x="822" y="759" type="qcurve" smooth="yes"/>
      <point x="832" y="749"/>
      <point x="832" y="736" type="qcurve" smooth="yes"/>
      <point x="832" y="723"/>
      <point x="823" y="714" type="qcurve" smooth="yes"/>
      <point x="813" y="704"/>
      <point x="800" y="704" type="qcurve" smooth="yes"/>
      <point x="787" y="704"/>
      <point x="778" y="713" type="qcurve" smooth="yes"/>
      <point x="768" y="723"/>
      <point x="768" y="736" type="qcurve" smooth="yes"/>
      <point x="768" y="749"/>
      <point x="777" y="758" type="qcurve" smooth="yes"/>
      <point x="787" y="768"/>
    </contour>
  </outline>
</glyph>
<glyph name="uniE17C" format="2">
  <advance width="1024"/>
  <unicode hex="E17C"/>
  <outline>
    <contour>
      <point x="593" y="433" type="line"/>
      <point x="512" y="515" type="line"/>
      <point x="512" y="192" type="line"/>
      <point x="448" y="192" type="line"/>
      <point x="448" y="515" type="line"/>
      <point x="367" y="434" type="line"/>
      <point x="322" y="478" type="line"/>
      <point x="480" y="637" type="line"/>
      <point x="638" y="479" type="line"/>
    </contour>
    <contour>
      <point x="64" y="832" type="line"/>
      <point x="896" y="832" type="line"/>
      <point x="896" y="192" type="line"/>
      <point x="576" y="192" type="line"/>
      <point x="576" y="256" type="line"/>
      <point x="831" y="256" type="line"/>
      <point x="831" y="768" type="line"/>
      <point x="128" y="768" type="line"/>
      <point x="128" y="256" type="line"/>
      <point x="384" y="256" type="line"/>
      <point x="384" y="192" type="line"/>
      <point x="64" y="192" type="line"/>
    </contour>
  </outline>
</glyph>
<glyph name="uniE182" format="2">
  <advance width="1024"/>
  <unicode hex="E182"/>
  <outline>
    <contour>
      <point x="384" y="125" type="line"/>
      <point x="537" y="278" type="line"/>
      <point x="582" y="234" type="line"/>
      <point x="352" y="3" type="line"/>
      <point x="122" y="233" type="line"/>
      <point x="166" y="278" type="line"/>
      <point x="320" y="125" type="line"/>
      <point x="320" y="1024" type="line"/>
      <point x="384" y="1024" type="line"/>
    </contour>
    <contour>
      <point x="768" y="1024" type="line"/>
      <point x="832" y="1024" type="line"/>
      <point x="832" y="192" type="line"/>
      <point x="768" y="192" type="line"/>
    </contour>
    <contour>
      <point x="768" y="0" type="line"/>
      <point x="768" y="64" type="line"/>
      <point x="832" y="64" type="line"/>
      <point x="832" y="0" type="line"/>
    </contour>
  </outline>
</glyph>
<glyph name="uniE183" format="2">
  <advance width="1024"/>
  <unicode hex="E183"/>
  <outline>
    <contour>
      <point x="768" y="1024" type="line"/>
      <point x="768" y="960" type="line"/>
      <point x="192" y="960" type="line"/>
      <point x="192" y="1024" type="line"/>
    </contour>
    <contour>
      <point x="790" y="535" type="line"/>
      <point x="746" y="490" type="line"/>
      <point x="512" y="724" type="line"/>
      <point x="512" y="0" type="line"/>
      <point x="448" y="0" type="line"/>
      <point x="448" y="724" type="line"/>
      <point x="215" y="490" type="line"/>
      <point x="170" y="534" type="line"/>
      <point x="480" y="847" type="line"/>
    </contour>
  </outline>
</glyph>
<glyph name="uniE186" format="2">
  <advance width="1024"/>
  <unicode hex="E186"/>
  <outline>
    <contour>
      <point x="832" y="128" type="line"/>
      <point x="832" y="64" type="line"/>
      <point x="128" y="64" type="line"/>
      <point x="128" y="128" type="line"/>
    </contour>
    <contour>
      <point x="236" y="192" type="line"/>
      <point x="169" y="192" type="line"/>
      <point x="446" y="1024" type="line"/>
      <point x="513" y="1024" type="line"/>
      <point x="791" y="192" type="line"/>
      <point x="724" y="192" type="line"/>
      <point x="639" y="448" type="line"/>
      <point x="322" y="448" type="line"/>
    </contour>
    <contour>
      <point x="343" y="512" type="line"/>
      <point x="617" y="512" type="line"/>
      <point x="480" y="922" type="line"/>
    </contour>
  </outline>
</glyph>
<glyph name="uniE187" format="2">
  <advance width="1024"/>
  <unicode hex="E187"/>
  <outline>
    <contour>
      <point x="960" y="960" type="line"/>
      <point x="960" y="64" type="line"/>
      <point x="768" y="64" type="line"/>
      <point x="768" y="118"/>
      <point x="749" y="165" type="qcurve" smooth="yes"/>
      <point x="729" y="212"/>
      <point x="695" y="246" type="qcurve" smooth="yes"/>
      <point x="660" y="281"/>
      <point x="613" y="300" type="qcurve" smooth="yes"/>
      <point x="567" y="320"/>
      <point x="512" y="320" type="qcurve" smooth="yes"/>
      <point x="459" y="320"/>
      <point x="412" y="300" type="qcurve" smooth="yes"/>
      <point x="365" y="280"/>
      <point x="331" y="246" type="qcurve" smooth="yes"/>
      <point x="296" y="211"/>
      <point x="276" y="164" type="qcurve" smooth="yes"/>
      <point x="256" y="118"/>
      <point x="256" y="64" type="qcurve"/>
      <point x="64" y="64" type="line"/>
      <point x="64" y="960" type="line"/>
    </contour>
    <contour>
      <point x="896" y="896" type="line"/>
      <point x="128" y="896" type="line"/>
      <point x="128" y="128" type="line"/>
      <point x="198" y="128" type="line"/>
      <point x="205" y="165"/>
      <point x="222" y="200" type="qcurve" smooth="yes"/>
      <point x="238" y="235"/>
      <point x="261" y="264" type="qcurve" smooth="yes"/>
      <point x="285" y="294"/>
      <point x="315" y="317" type="qcurve" smooth="yes"/>
      <point x="345" y="341"/>
      <point x="380" y="356" type="qcurve"/>
      <point x="352" y="373"/>
      <point x="329" y="397" type="qcurve" smooth="yes"/>
      <point x="306" y="421"/>
      <point x="289" y="450" type="qcurve" smooth="yes"/>
      <point x="273" y="478"/>
      <point x="265" y="510" type="qcurve" smooth="yes"/>
      <point x="256" y="542"/>
      <point x="256" y="576" type="qcurve" smooth="yes"/>
      <point x="256" y="629"/>
      <point x="276" y="676" type="qcurve" smooth="yes"/>
      <point x="296" y="722"/>
      <point x="331" y="757" type="qcurve" smooth="yes"/>
      <point x="365" y="792"/>
      <point x="412" y="812" type="qcurve" smooth="yes"/>
      <point x="459" y="832"/>
      <point x="512" y="832" type="qcurve" smooth="yes"/>
      <point x="565" y="832"/>
      <point x="612" y="812" type="qcurve" smooth="yes"/>
      <point x="658" y="792"/>
      <point x="693" y="757" type="qcurve" smooth="yes"/>
      <point x="728" y="723"/>
      <point x="748" y="676" type="qcurve" smooth="yes"/>
      <point x="768" y="629"/>
      <point x="768" y="576" type="qcurve" smooth="yes"/>
      <point x="768" y="543"/>
      <point x="760" y="511" type="qcurve" smooth="yes"/>
      <point x="751" y="479"/>
      <point x="735" y="451" type="qcurve" smooth="yes"/>
      <point x="719" y="422"/>
      <point x="696" y="398" type="qcurve" smooth="yes"/>
      <point x="673" y="374"/>
      <point x="645" y="357" type="qcurve"/>
      <point x="680" y="341"/>
      <point x="710" y="318" type="qcurve" smooth="yes"/>
      <point x="740" y="295"/>
      <point x="763" y="265" type="qcurve" smooth="yes"/>
      <point x="786" y="236"/>
      <point x="802" y="201" type="qcurve" smooth="yes"/>
      <point x="818" y="166"/>
      <point x="826" y="128" type="qcurve"/>
      <point x="896" y="128" type="line"/>
    </contour>
    <contour>
      <point x="512" y="384" type="qcurve" smooth="yes"/>
      <point x="551" y="384"/>
      <point x="586" y="399" type="qcurve" smooth="yes"/>
      <point x="621" y="414"/>
      <point x="647" y="440" type="qcurve" smooth="yes"/>
      <point x="673" y="466"/>
      <point x="689" y="501" type="qcurve" smooth="yes"/>
      <point x="704" y="536"/>
      <point x="704" y="576" type="qcurve" smooth="yes"/>
      <point x="704" y="615"/>
      <point x="689" y="650" type="qcurve" smooth="yes"/>
      <point x="674" y="685"/>
      <point x="648" y="711" type="qcurve" smooth="yes"/>
      <point x="622" y="737"/>
      <point x="587" y="753" type="qcurve" smooth="yes"/>
      <point x="552" y="768"/>
      <point x="512" y="768" type="qcurve" smooth="yes"/>
      <point x="473" y="768"/>
      <point x="438" y="753" type="qcurve" smooth="yes"/>
      <point x="403" y="738"/>
      <point x="377" y="712" type="qcurve" smooth="yes"/>
      <point x="351" y="686"/>
      <point x="335" y="651" type="qcurve" smooth="yes"/>
      <point x="320" y="616"/>
      <point x="320" y="576" type="qcurve" smooth="yes"/>
      <point x="320" y="537"/>
      <point x="335" y="502" type="qcurve" smooth="yes"/>
      <point x="350" y="467"/>
      <point x="376" y="441" type="qcurve" smooth="yes"/>
      <point x="402" y="415"/>
      <point x="437" y="399" type="qcurve" smooth="yes"/>
      <point x="472" y="384"/>
    </contour>
  </outline>
</glyph>
<glyph name="uniE18A" format="2">
  <advance width="1024"/>
  <unicode hex="E18A"/>
  <outline>
    <contour>
      <point x="512" y="1024" type="line"/>
      <point x="1024" y="512" type="line"/>
      <point x="512" y="0" type="line"/>
      <point x="0" y="512" type="line"/>
    </contour>
    <contour>
      <point x="68" y="512" type="line"/>
      <point x="512" y="68" type="line"/>
      <point x="956" y="512" type="line"/>
      <point x="512" y="956" type="line"/>
    </contour>
  </outline>
</glyph>
<glyph name="uniE18C" format="2">
  <advance width="1024"/>
  <unicode hex="E18C"/>
  <outline>
    <contour>
      <point x="638" y="286" type="line"/>
      <point x="593" y="242" type="line"/>
      <point x="512" y="323" type="line"/>
      <point x="512" y="0" type="line"/>
      <point x="448" y="0" type="line"/>
      <point x="448" y="323" type="line"/>
      <point x="366" y="242" type="line"/>
      <point x="322" y="287" type="line"/>
      <point x="480" y="445" type="line"/>
    </contour>
    <contour>
      <point x="896" y="512" type="line"/>
      <point x="64" y="512" type="line"/>
      <point x="64" y="1024" type="line"/>
      <point x="896" y="1024" type="line"/>
    </contour>
    <contour>
      <point x="128" y="576" type="line"/>
      <point x="832" y="576" type="line"/>
      <point x="832" y="960" type="line"/>
      <point x="128" y="960" type="line"/>
    </contour>
  </outline>
</glyph>
<glyph name="uniE18D" format="2">
  <advance width="1024"/>
  <unicode hex="E18D"/>
  <outline>
    <contour>
      <point x="261" y="298" type="line"/>
      <point x="480" y="517" type="line"/>
      <point x="698" y="299" type="line"/>
      <point x="662" y="262" type="line"/>
      <point x="512" y="410" type="line"/>
      <point x="512" y="0" type="line"/>
      <point x="448" y="0" type="line"/>
      <point x="448" y="410" type="line"/>
      <point x="299" y="262" type="line"/>
    </contour>
    <contour>
      <point x="256" y="1024" type="line"/>
      <point x="704" y="1024" type="line"/>
      <point x="704" y="576" type="line"/>
      <point x="256" y="576" type="line"/>
    </contour>
    <contour>
      <point x="640" y="640" type="line"/>
      <point x="640" y="960" type="line"/>
      <point x="320" y="960" type="line"/>
      <point x="320" y="640" type="line"/>
    </contour>
  </outline>
</glyph>
<glyph name="uniE18E" format="2">
  <advance width="1024"/>
  <unicode hex="E18E"/>
  <outline>
    <contour>
      <point x="973" y="406" type="qcurve" smooth="yes"/>
      <point x="981" y="406"/>
      <point x="981" y="398" type="qcurve" smooth="yes"/>
      <point x="981" y="360" type="line" smooth="yes"/>
      <point x="981" y="353"/>
      <point x="973" y="353" type="qcurve" smooth="yes"/>
      <point x="934" y="353"/>
      <point x="896" y="354" type="qcurve" smooth="yes"/>
      <point x="858" y="354"/>
      <point x="819" y="354" type="qcurve" smooth="yes"/>
      <point x="517" y="354" type="line"/>
      <point x="517" y="263" type="line" smooth="yes"/>
      <point x="517" y="218"/>
      <point x="517" y="174" type="qcurve" smooth="yes"/>
      <point x="517" y="129"/>
      <point x="517" y="84" type="qcurve" smooth="yes"/>
      <point x="517" y="67"/>
      <point x="513" y="50" type="qcurve" smooth="yes"/>
      <point x="509" y="32"/>
      <point x="496" y="21" type="qcurve" smooth="yes"/>
      <point x="487" y="14"/>
      <point x="472" y="9" type="qcurve" smooth="yes"/>
      <point x="458" y="5"/>
      <point x="441" y="3" type="qcurve" smooth="yes"/>
      <point x="425" y="1"/>
      <point x="410" y="1" type="qcurve" smooth="yes"/>
      <point x="394" y="0"/>
      <point x="384" y="0" type="qcurve" smooth="yes"/>
      <point x="345" y="0" type="line"/>
      <point x="345" y="0" type="line"/>
      <point x="325" y="1" type="line" smooth="yes"/>
      <point x="305" y="3"/>
      <point x="316" y="6" type="qcurve" smooth="yes"/>
      <point x="327" y="10"/>
      <point x="312" y="17" type="qcurve" smooth="yes"/>
      <point x="297" y="23"/>
      <point x="306" y="34" type="qcurve" smooth="yes"/>
      <point x="316" y="45"/>
      <point x="292" y="61" type="qcurve"/>
      <point x="321" y="58"/>
      <point x="351" y="56" type="qcurve" smooth="yes"/>
      <point x="380" y="54"/>
      <point x="410" y="54" type="qcurve" smooth="yes"/>
      <point x="424" y="54"/>
      <point x="434" y="56" type="qcurve" smooth="yes"/>
      <point x="443" y="57"/>
      <point x="450" y="62" type="qcurve" smooth="yes"/>
      <point x="456" y="67"/>
      <point x="459" y="76" type="qcurve" smooth="yes"/>
      <point x="462" y="85"/>
      <point x="462" y="100" type="qcurve" smooth="yes"/>
      <point x="462" y="354" type="line"/>
      <point x="163" y="354" type="line" smooth="yes"/>
      <point x="124" y="354"/>
      <point x="86" y="354" type="qcurve" smooth="yes"/>
      <point x="47" y="353"/>
      <point x="8" y="353" type="qcurve" smooth="yes"/>
      <point x="0" y="353"/>
      <point x="0" y="360" type="qcurve" smooth="yes"/>
      <point x="0" y="397" type="line" smooth="yes"/>
      <point x="0" y="406"/>
      <point x="8" y="406" type="qcurve" smooth="yes"/>
      <point x="47" y="406"/>
      <point x="85" y="405" type="qcurve" smooth="yes"/>
      <point x="124" y="404"/>
      <point x="163" y="404" type="qcurve" smooth="yes"/>
      <point x="462" y="404" type="line"/>
      <point x="462" y="433"/>
      <point x="462" y="464" type="qcurve" smooth="yes"/>
      <point x="461" y="495"/>
      <point x="455" y="524" type="qcurve"/>
      <point x="468" y="522"/>
      <point x="482" y="519" type="qcurve" smooth="yes"/>
      <point x="496" y="516"/>
      <point x="509" y="512" type="qcurve"/>
      <point x="561" y="541"/>
      <point x="609" y="576" type="qcurve" smooth="yes"/>
      <point x="657" y="611"/>
      <point x="700" y="652" type="qcurve"/>
      <point x="341" y="652" type="line" smooth="yes"/>
      <point x="303" y="652"/>
      <point x="264" y="652" type="qcurve" smooth="yes"/>
      <point x="226" y="651"/>
      <point x="188" y="651" type="qcurve" smooth="yes"/>
      <point x="179" y="651"/>
      <point x="179" y="658" type="qcurve" smooth="yes"/>
      <point x="179" y="694" type="line" smooth="yes"/>
      <point x="179" y="702"/>
      <point x="187" y="702" type="qcurve" smooth="yes"/>
      <point x="226" y="702"/>
      <point x="264" y="701" type="qcurve" smooth="yes"/>
      <point x="302" y="700"/>
      <point x="341" y="700" type="qcurve" smooth="yes"/>
      <point x="695" y="700" type="line" smooth="yes"/>
      <point x="703" y="700"/>
      <point x="711" y="700" type="qcurve" smooth="yes"/>
      <point x="719" y="701"/>
      <point x="727" y="704" type="qcurve" smooth="yes"/>
      <point x="730" y="705"/>
      <point x="733" y="707" type="qcurve" smooth="yes"/>
      <point x="735" y="708"/>
      <point x="739" y="708" type="qcurve" smooth="yes"/>
      <point x="743" y="708"/>
      <point x="752" y="702" type="qcurve" smooth="yes"/>
      <point x="760" y="695"/>
      <point x="769" y="686" type="qcurve" smooth="yes"/>
      <point x="777" y="678"/>
      <point x="783" y="669" type="qcurve" smooth="yes"/>
      <point x="789" y="660"/>
      <point x="789" y="655" type="qcurve" smooth="yes"/>
      <point x="789" y="649"/>
      <point x="786" y="645" type="qcurve" smooth="yes"/>
      <point x="782" y="642"/>
      <point x="777" y="640" type="qcurve" smooth="yes"/>
      <point x="765" y="635"/>
      <point x="754" y="627" type="qcurve" smooth="yes"/>
      <point x="744" y="620"/>
      <point x="734" y="612" type="qcurve" smooth="yes"/>
      <point x="682" y="572"/>
      <point x="629" y="536" type="qcurve" smooth="yes"/>
      <point x="575" y="500"/>
      <point x="518" y="467" type="qcurve"/>
      <point x="517" y="457"/>
      <point x="517" y="447" type="qcurve" smooth="yes"/>
      <point x="517" y="404" type="line"/>
      <point x="818" y="404" type="line" smooth="yes"/>
      <point x="857" y="404"/>
      <point x="896" y="405" type="qcurve" smooth="yes"/>
      <point x="934" y="405"/>
    </contour>
    <contour>
      <point x="25" y="658" type="qcurve" smooth="yes"/>
      <point x="25" y="689"/>
      <point x="26" y="720" type="qcurve" smooth="yes"/>
      <point x="26" y="750"/>
      <point x="26" y="781" type="qcurve" smooth="yes"/>
      <point x="26" y="806"/>
      <point x="26" y="830" type="qcurve" smooth="yes"/>
      <point x="26" y="855"/>
      <point x="25" y="879" type="qcurve" smooth="yes"/>
      <point x="25" y="887"/>
      <point x="32" y="887" type="qcurve" smooth="yes"/>
      <point x="73" y="887"/>
      <point x="114" y="886" type="qcurve" smooth="yes"/>
      <point x="154" y="885"/>
      <point x="195" y="885" type="qcurve" smooth="yes"/>
      <point x="448" y="885" type="line"/>
      <point x="448" y="955" type="line"/>
      <point x="448" y="955" type="line"/>
      <point x="441" y="1024" type="line"/>
      <point x="455" y="1023"/>
      <point x="471" y="1022" type="qcurve" smooth="yes"/>
      <point x="487" y="1021"/>
      <point x="502" y="1018" type="qcurve" smooth="yes"/>
      <point x="506" y="1017"/>
      <point x="510" y="1015" type="qcurve" smooth="yes"/>
      <point x="514" y="1014"/>
      <point x="514" y="1009" type="qcurve" smooth="yes"/>
      <point x="514" y="1006"/>
      <point x="512" y="998" type="qcurve" smooth="yes"/>
      <point x="509" y="991"/>
      <point x="508" y="988" type="qcurve" smooth="yes"/>
      <point x="505" y="983"/>
      <point x="504" y="971" type="qcurve" smooth="yes"/>
      <point x="503" y="959"/>
      <point x="503" y="946" type="qcurve" smooth="yes"/>
      <point x="502" y="933"/>
      <point x="502" y="921" type="qcurve" smooth="yes"/>
      <point x="502" y="885" type="line"/>
      <point x="773" y="885" type="line" smooth="yes"/>
      <point x="814" y="885"/>
      <point x="854" y="886" type="qcurve" smooth="yes"/>
      <point x="895" y="886"/>
      <point x="935" y="887" type="qcurve" smooth="yes"/>
      <point x="943" y="887"/>
      <point x="943" y="880" type="qcurve" smooth="yes"/>
      <point x="943" y="866"/>
      <point x="942" y="852" type="qcurve" smooth="yes"/>
      <point x="941" y="838"/>
      <point x="941" y="825" type="qcurve" smooth="yes"/>
      <point x="941" y="782" type="line" smooth="yes"/>
      <point x="941" y="751"/>
      <point x="942" y="720" type="qcurve" smooth="yes"/>
      <point x="942" y="690"/>
      <point x="943" y="659" type="qcurve" smooth="yes"/>
      <point x="943" y="651"/>
      <point x="936" y="651" type="qcurve" smooth="yes"/>
      <point x="896" y="651" type="line" smooth="yes"/>
      <point x="888" y="651"/>
      <point x="888" y="658" type="qcurve" smooth="yes"/>
      <point x="888" y="837" type="line"/>
      <point x="80" y="837" type="line"/>
      <point x="80" y="659" type="line" smooth="yes"/>
      <point x="80" y="651"/>
      <point x="72" y="651" type="qcurve" smooth="yes"/>
      <point x="32" y="651" type="line" smooth="yes"/>
      <point x="25" y="651"/>
    </contour>
  </outline>
</glyph>
<glyph name="uniE18F" format="2">
  <advance width="1024"/>
  <unicode hex="E18F"/>
  <outline>
    <contour>
      <point x="928" y="832" type="line" smooth="yes"/>
      <point x="948" y="832"/>
      <point x="965" y="825" type="qcurve" smooth="yes"/>
      <point x="983" y="817"/>
      <point x="996" y="804" type="qcurve" smooth="yes"/>
      <point x="1009" y="791"/>
      <point x="1016" y="774" type="qcurve" smooth="yes"/>
      <point x="1024" y="756"/>
      <point x="1024" y="736" type="qcurve" smooth="yes"/>
      <point x="1024" y="288" type="line" smooth="yes"/>
      <point x="1024" y="268"/>
      <point x="1017" y="251" type="qcurve" smooth="yes"/>
      <point x="1009" y="233"/>
      <point x="996" y="220" type="qcurve" smooth="yes"/>
      <point x="983" y="207"/>
      <point x="966" y="200" type="qcurve" smooth="yes"/>
      <point x="948" y="192"/>
      <point x="928" y="192" type="qcurve" smooth="yes"/>
      <point x="96" y="192" type="line" smooth="yes"/>
      <point x="76" y="192"/>
      <point x="59" y="199" type="qcurve" smooth="yes"/>
      <point x="41" y="207"/>
      <point x="28" y="220" type="qcurve" smooth="yes"/>
      <point x="15" y="233"/>
      <point x="8" y="250" type="qcurve" smooth="yes"/>
      <point x="0" y="268"/>
      <point x="0" y="288" type="qcurve" smooth="yes"/>
      <point x="0" y="736" type="line" smooth="yes"/>
      <point x="0" y="756"/>
      <point x="7" y="773" type="qcurve" smooth="yes"/>
      <point x="15" y="791"/>
      <point x="28" y="804" type="qcurve" smooth="yes"/>
      <point x="41" y="817"/>
      <point x="58" y="824" type="qcurve" smooth="yes"/>
      <point x="76" y="832"/>
      <point x="96" y="832" type="qcurve" smooth="yes"/>
    </contour>
    <contour>
      <point x="960" y="736" type="line" smooth="yes"/>
      <point x="960" y="749"/>
      <point x="951" y="758" type="qcurve" smooth="yes"/>
      <point x="941" y="768"/>
      <point x="928" y="768" type="qcurve" smooth="yes"/>
      <point x="96" y="768" type="line" smooth="yes"/>
      <point x="83" y="768"/>
      <point x="74" y="759" type="qcurve" smooth="yes"/>
      <point x="64" y="749"/>
      <point x="64" y="736" type="qcurve" smooth="yes"/>
      <point x="64" y="288" type="line" smooth="yes"/>
      <point x="64" y="275"/>
      <point x="73" y="266" type="qcurve" smooth="yes"/>
      <point x="83" y="256"/>
      <point x="96" y="256" type="qcurve" smooth="yes"/>
      <point x="928" y="256" type="line" smooth="yes"/>
      <point x="941" y="256"/>
      <point x="950" y="265" type="qcurve" smooth="yes"/>
      <point x="960" y="275"/>
      <point x="960" y="288" type="qcurve" smooth="yes"/>
    </contour>
    <contour>
      <point x="224" y="448" type="qcurve" smooth="yes"/>
      <point x="237" y="448"/>
      <point x="246" y="439" type="qcurve" smooth="yes"/>
      <point x="256" y="429"/>
      <point x="256" y="416" type="qcurve" smooth="yes"/>
      <point x="256" y="403"/>
      <point x="247" y="394" type="qcurve" smooth="yes"/>
      <point x="237" y="384"/>
      <point x="224" y="384" type="qcurve" smooth="yes"/>
      <point x="211" y="384"/>
      <point x="202" y="393" type="qcurve" smooth="yes"/>
      <point x="192" y="403"/>
      <point x="192" y="416" type="qcurve" smooth="yes"/>
      <point x="192" y="429"/>
      <point x="201" y="438" type="qcurve" smooth="yes"/>
      <point x="211" y="448"/>
    </contour>
    <contour>
      <point x="416" y="448" type="qcurve" smooth="yes"/>
      <point x="429" y="448"/>
      <point x="438" y="439" type="qcurve" smooth="yes"/>
      <point x="448" y="429"/>
      <point x="448" y="416" type="qcurve" smooth="yes"/>
      <point x="448" y="403"/>
      <point x="439" y="394" type="qcurve" smooth="yes"/>
      <point x="429" y="384"/>
      <point x="416" y="384" type="qcurve" smooth="yes"/>
      <point x="403" y="384"/>
      <point x="394" y="393" type="qcurve" smooth="yes"/>
      <point x="384" y="403"/>
      <point x="384" y="416" type="qcurve" smooth="yes"/>
      <point x="384" y="429"/>
      <point x="393" y="438" type="qcurve" smooth="yes"/>
      <point x="403" y="448"/>
    </contour>
    <contour>
      <point x="608" y="448" type="qcurve" smooth="yes"/>
      <point x="621" y="448"/>
      <point x="630" y="439" type="qcurve" smooth="yes"/>
      <point x="640" y="429"/>
      <point x="640" y="416" type="qcurve" smooth="yes"/>
      <point x="640" y="403"/>
      <point x="631" y="394" type="qcurve" smooth="yes"/>
      <point x="621" y="384"/>
      <point x="608" y="384" type="qcurve" smooth="yes"/>
      <point x="595" y="384"/>
      <point x="586" y="393" type="qcurve" smooth="yes"/>
      <point x="576" y="403"/>
      <point x="576" y="416" type="qcurve" smooth="yes"/>
      <point x="576" y="429"/>
      <point x="585" y="438" type="qcurve" smooth="yes"/>
      <point x="595" y="448"/>
    </contour>
    <contour>
      <point x="800" y="448" type="qcurve" smooth="yes"/>
      <point x="813" y="448"/>
      <point x="822" y="439" type="qcurve" smooth="yes"/>
      <point x="832" y="429"/>
      <point x="832" y="416" type="qcurve" smooth="yes"/>
      <point x="832" y="403"/>
      <point x="823" y="394" type="qcurve" smooth="yes"/>
      <point x="813" y="384"/>
      <point x="800" y="384" type="qcurve" smooth="yes"/>
      <point x="787" y="384"/>
      <point x="778" y="393" type="qcurve" smooth="yes"/>
      <point x="768" y="403"/>
      <point x="768" y="416" type="qcurve" smooth="yes"/>
      <point x="768" y="429"/>
      <point x="777" y="438" type="qcurve" smooth="yes"/>
      <point x="787" y="448"/>
    </contour>
  </outline>
</glyph>
<glyph name="uniE191" format="2">
  <advance width="1024"/>
  <unicode hex="E191"/>
  <outline>
    <contour>
      <point x="0" y="896" type="line"/>
      <point x="1024" y="896" type="line"/>
      <point x="1024" y="128" type="line"/>
      <point x="0" y="128" type="line"/>
    </contour>
    <contour>
      <point x="960" y="192" type="line"/>
      <point x="960" y="832" type="line"/>
      <point x="64" y="832" type="line"/>
      <point x="64" y="192" type="line"/>
    </contour>
    <contour>
      <point x="896" y="768" type="line"/>
      <point x="896" y="256" type="line"/>
      <point x="128" y="256" type="line"/>
      <point x="128" y="768" type="line"/>
    </contour>
    <contour>
      <point x="832" y="320" type="line"/>
      <point x="832" y="704" type="line"/>
      <point x="192" y="704" type="line"/>
      <point x="192" y="320" type="line"/>
    </contour>
    <contour>
      <point x="640" y="640" type="line"/>
      <point x="640" y="384" type="line"/>
      <point x="384" y="384" type="line"/>
      <point x="384" y="640" type="line"/>
    </contour>
    <contour>
      <point x="576" y="448" type="line"/>
      <point x="576" y="576" type="line"/>
      <point x="448" y="576" type="line"/>
      <point x="448" y="448" type="line"/>
    </contour>
  </outline>
</glyph>
<glyph name="uniE192" format="2">
  <advance width="1024"/>
  <unicode hex="E192"/>
  <outline>
    <contour>
      <point x="1024" y="237" type="line"/>
      <point x="1024" y="0" type="line"/>
      <point x="768" y="0" type="line"/>
      <point x="768" y="128" type="line"/>
      <point x="640" y="128" type="line"/>
      <point x="640" y="256" type="line"/>
      <point x="512" y="256" type="line"/>
      <point x="512" y="359" type="line"/>
      <point x="475" y="340"/>
      <point x="435" y="330" type="qcurve" smooth="yes"/>
      <point x="394" y="320"/>
      <point x="352" y="320" type="qcurve" smooth="yes"/>
      <point x="304" y="320"/>
      <point x="259" y="332" type="qcurve" smooth="yes"/>
      <point x="214" y="345"/>
      <point x="175" y="368" type="qcurve" smooth="yes"/>
      <point x="136" y="391"/>
      <point x="103" y="423" type="qcurve" smooth="yes"/>
      <point x="71" y="455"/>
      <point x="48" y="494" type="qcurve" smooth="yes"/>
      <point x="25" y="533"/>
      <point x="13" y="578" type="qcurve" smooth="yes"/>
      <point x="0" y="623"/>
      <point x="0" y="672" type="qcurve" smooth="yes"/>
      <point x="0" y="720"/>
      <point x="12" y="765" type="qcurve" smooth="yes"/>
      <point x="25" y="810"/>
      <point x="48" y="849" type="qcurve" smooth="yes"/>
      <point x="71" y="888"/>
      <point x="103" y="921" type="qcurve" smooth="yes"/>
      <point x="135" y="953"/>
      <point x="174" y="976" type="qcurve" smooth="yes"/>
      <point x="213" y="999"/>
      <point x="258" y="1011" type="qcurve" smooth="yes"/>
      <point x="303" y="1024"/>
      <point x="352" y="1024" type="qcurve" smooth="yes"/>
      <point x="400" y="1024"/>
      <point x="445" y="1012" type="qcurve" smooth="yes"/>
      <point x="490" y="999"/>
      <point x="529" y="976" type="qcurve" smooth="yes"/>
      <point x="568" y="953"/>
      <point x="601" y="921" type="qcurve" smooth="yes"/>
      <point x="633" y="889"/>
      <point x="656" y="850" type="qcurve" smooth="yes"/>
      <point x="679" y="811"/>
      <point x="691" y="766" type="qcurve" smooth="yes"/>
      <point x="704" y="721"/>
      <point x="704" y="672" type="qcurve" smooth="yes"/>
      <point x="704" y="647"/>
      <point x="700" y="622" type="qcurve" smooth="yes"/>
      <point x="696" y="597"/>
      <point x="689" y="573" type="qcurve"/>
    </contour>
    <contour>
      <point x="960" y="211" type="line"/>
      <point x="615" y="555" type="line"/>
      <point x="626" y="584"/>
      <point x="633" y="613" type="qcurve" smooth="yes"/>
      <point x="640" y="641"/>
      <point x="640" y="672" type="qcurve" smooth="yes"/>
      <point x="640" y="731"/>
      <point x="617" y="784" type="qcurve" smooth="yes"/>
      <point x="595" y="836"/>
      <point x="556" y="875" type="qcurve" smooth="yes"/>
      <point x="517" y="914"/>
      <point x="464" y="937" type="qcurve" smooth="yes"/>
      <point x="412" y="960"/>
      <point x="352" y="960" type="qcurve" smooth="yes"/>
      <point x="293" y="960"/>
      <point x="240" y="937" type="qcurve" smooth="yes"/>
      <point x="188" y="915"/>
      <point x="149" y="876" type="qcurve" smooth="yes"/>
      <point x="110" y="837"/>
      <point x="87" y="784" type="qcurve" smooth="yes"/>
      <point x="64" y="732"/>
      <point x="64" y="672" type="qcurve" smooth="yes"/>
      <point x="64" y="613"/>
      <point x="87" y="560" type="qcurve" smooth="yes"/>
      <point x="109" y="508"/>
      <point x="148" y="469" type="qcurve" smooth="yes"/>
      <point x="187" y="430"/>
      <point x="240" y="407" type="qcurve" smooth="yes"/>
      <point x="292" y="384"/>
      <point x="352" y="384" type="qcurve" smooth="yes"/>
      <point x="400" y="384"/>
      <point x="447" y="400" type="qcurve" smooth="yes"/>
      <point x="494" y="417"/>
      <point x="531" y="448" type="qcurve"/>
      <point x="576" y="448" type="line"/>
      <point x="576" y="320" type="line"/>
      <point x="704" y="320" type="line"/>
      <point x="704" y="192" type="line"/>
      <point x="832" y="192" type="line"/>
      <point x="832" y="64" type="line"/>
      <point x="960" y="64" type="line"/>
    </contour>
    <contour>
      <point x="256" y="832" type="qcurve" smooth="yes"/>
      <point x="269" y="832"/>
      <point x="281" y="827" type="qcurve" smooth="yes"/>
      <point x="292" y="822"/>
      <point x="301" y="813" type="qcurve" smooth="yes"/>
      <point x="310" y="805"/>
      <point x="315" y="793" type="qcurve" smooth="yes"/>
      <point x="320" y="782"/>
      <point x="320" y="768" type="qcurve" smooth="yes"/>
      <point x="320" y="755"/>
      <point x="315" y="743" type="qcurve" smooth="yes"/>
      <point x="310" y="732"/>
      <point x="301" y="723" type="qcurve" smooth="yes"/>
      <point x="293" y="714"/>
      <point x="281" y="709" type="qcurve" smooth="yes"/>
      <point x="270" y="704"/>
      <point x="256" y="704" type="qcurve" smooth="yes"/>
      <point x="243" y="704"/>
      <point x="231" y="709" type="qcurve" smooth="yes"/>
      <point x="220" y="714"/>
      <point x="211" y="723" type="qcurve" smooth="yes"/>
      <point x="202" y="731"/>
      <point x="197" y="743" type="qcurve" smooth="yes"/>
      <point x="192" y="754"/>
      <point x="192" y="768" type="qcurve" smooth="yes"/>
      <point x="192" y="781"/>
      <point x="197" y="793" type="qcurve" smooth="yes"/>
      <point x="202" y="804"/>
      <point x="211" y="813" type="qcurve" smooth="yes"/>
      <point x="219" y="822"/>
      <point x="231" y="827" type="qcurve" smooth="yes"/>
      <point x="242" y="832"/>
    </contour>
  </outline>
</glyph>
<glyph name="uniE193" format="2">
  <advance width="1024"/>
  <unicode hex="E193"/>
  <outline>
    <contour>
      <point x="1024" y="1024" type="line"/>
      <point x="1024" y="768" type="line"/>
      <point x="967" y="768"/>
      <point x="930" y="751" type="qcurve" smooth="yes"/>
      <point x="894" y="734"/>
      <point x="872" y="705" type="qcurve" smooth="yes"/>
      <point x="851" y="677"/>
      <point x="842" y="638" type="qcurve" smooth="yes"/>
      <point x="833" y="600"/>
      <point x="831" y="557" type="qcurve" smooth="yes"/>
      <point x="829" y="515"/>
      <point x="830" y="470" type="qcurve" smooth="yes"/>
      <point x="832" y="426"/>
      <point x="832" y="384" type="qcurve"/>
      <point x="704" y="384" type="line"/>
      <point x="704" y="192" type="line"/>
      <point x="320" y="0" type="line"/>
      <point x="320" y="384" type="line"/>
      <point x="192" y="384" type="line"/>
      <point x="192" y="425"/>
      <point x="194" y="470" type="qcurve" smooth="yes"/>
      <point x="195" y="514"/>
      <point x="193" y="557" type="qcurve" smooth="yes"/>
      <point x="191" y="600"/>
      <point x="182" y="638" type="qcurve" smooth="yes"/>
      <point x="174" y="676"/>
      <point x="152" y="705" type="qcurve" smooth="yes"/>
      <point x="131" y="734"/>
      <point x="94" y="751" type="qcurve" smooth="yes"/>
      <point x="58" y="768"/>
      <point x="0" y="768" type="qcurve"/>
      <point x="0" y="1024" type="line"/>
      <point x="64" y="1024" type="line"/>
      <point x="64" y="832" type="line"/>
      <point x="960" y="832" type="line"/>
      <point x="960" y="1024" type="line"/>
    </contour>
    <contour>
      <point x="640" y="384" type="line"/>
      <point x="384" y="384" type="line"/>
      <point x="384" y="104" type="line"/>
      <point x="640" y="231" type="line"/>
    </contour>
    <contour>
      <point x="768" y="448" type="line"/>
      <point x="768" y="492"/>
      <point x="767" y="535" type="qcurve" smooth="yes"/>
      <point x="766" y="578"/>
      <point x="772" y="618" type="qcurve" smooth="yes"/>
      <point x="777" y="659"/>
      <point x="793" y="696" type="qcurve" smooth="yes"/>
      <point x="809" y="734"/>
      <point x="843" y="768" type="qcurve"/>
      <point x="181" y="768" type="line"/>
      <point x="214" y="734"/>
      <point x="230" y="696" type="qcurve" smooth="yes"/>
      <point x="246" y="659"/>
      <point x="252" y="619" type="qcurve" smooth="yes"/>
      <point x="258" y="579"/>
      <point x="257" y="536" type="qcurve" smooth="yes"/>
      <point x="256" y="493"/>
      <point x="256" y="448" type="qcurve"/>
    </contour>
  </outline>
</glyph>
<glyph name="uniE194" format="2">
  <advance width="1024"/>
  <unicode hex="E194"/>
  <outline>
    <contour>
      <point x="800" y="448" type="qcurve" smooth="yes"/>
      <point x="846" y="448"/>
      <point x="887" y="431" type="qcurve" smooth="yes"/>
      <point x="928" y="413"/>
      <point x="958" y="383" type="qcurve" smooth="yes"/>
      <point x="989" y="352"/>
      <point x="1006" y="311" type="qcurve" smooth="yes"/>
      <point x="1024" y="271"/>
      <point x="1024" y="224" type="qcurve" smooth="yes"/>
      <point x="1024" y="178"/>
      <point x="1007" y="137" type="qcurve" smooth="yes"/>
      <point x="989" y="96"/>
      <point x="959" y="66" type="qcurve" smooth="yes"/>
      <point x="928" y="35"/>
      <point x="887" y="18" type="qcurve" smooth="yes"/>
      <point x="847" y="0"/>
      <point x="800" y="0" type="qcurve" smooth="yes"/>
      <point x="754" y="0"/>
      <point x="713" y="17" type="qcurve" smooth="yes"/>
      <point x="672" y="35"/>
      <point x="642" y="65" type="qcurve" smooth="yes"/>
      <point x="611" y="96"/>
      <point x="594" y="137" type="qcurve" smooth="yes"/>
      <point x="576" y="177"/>
      <point x="576" y="224" type="qcurve" smooth="yes"/>
      <point x="576" y="270"/>
      <point x="593" y="311" type="qcurve" smooth="yes"/>
      <point x="611" y="352"/>
      <point x="641" y="382" type="qcurve" smooth="yes"/>
      <point x="672" y="413"/>
      <point x="713" y="430" type="qcurve" smooth="yes"/>
      <point x="753" y="448"/>
    </contour>
    <contour>
      <point x="640" y="224" type="qcurve" smooth="yes"/>
      <point x="640" y="191"/>
      <point x="652" y="162" type="qcurve" smooth="yes"/>
      <point x="665" y="133"/>
      <point x="687" y="111" type="qcurve" smooth="yes"/>
      <point x="708" y="89"/>
      <point x="738" y="77" type="qcurve" smooth="yes"/>
      <point x="767" y="64"/>
      <point x="800" y="64" type="qcurve" smooth="yes"/>
      <point x="823" y="64"/>
      <point x="846" y="71" type="qcurve" smooth="yes"/>
      <point x="868" y="77"/>
      <point x="888" y="90" type="qcurve"/>
      <point x="667" y="312" type="line"/>
      <point x="654" y="293"/>
      <point x="647" y="270" type="qcurve" smooth="yes"/>
      <point x="640" y="248"/>
    </contour>
    <contour>
      <point x="933" y="136" type="line"/>
      <point x="946" y="155"/>
      <point x="953" y="178" type="qcurve" smooth="yes"/>
      <point x="960" y="200"/>
      <point x="960" y="224" type="qcurve" smooth="yes"/>
      <point x="960" y="257"/>
      <point x="947" y="286" type="qcurve" smooth="yes"/>
      <point x="935" y="315"/>
      <point x="913" y="337" type="qcurve" smooth="yes"/>
      <point x="891" y="358"/>
      <point x="862" y="371" type="qcurve" smooth="yes"/>
      <point x="833" y="384"/>
      <point x="800" y="384" type="qcurve" smooth="yes"/>
      <point x="777" y="384"/>
      <point x="754" y="377" type="qcurve" smooth="yes"/>
      <point x="732" y="371"/>
      <point x="712" y="358" type="qcurve"/>
    </contour>
    <contour>
      <point x="256" y="640" type="line"/>
      <point x="0" y="640" type="line"/>
      <point x="0" y="896" type="line"/>
      <point x="64" y="896" type="line"/>
      <point x="64" y="759" type="line"/>
      <point x="97" y="819"/>
      <point x="146" y="869" type="qcurve" smooth="yes"/>
      <point x="194" y="918"/>
      <point x="252" y="952" type="qcurve" smooth="yes"/>
      <point x="310" y="987"/>
      <point x="376" y="1005" type="qcurve" smooth="yes"/>
      <point x="442" y="1024"/>
      <point x="512" y="1024" type="qcurve" smooth="yes"/>
      <point x="582" y="1024"/>
      <point x="648" y="1006" type="qcurve" smooth="yes"/>
      <point x="713" y="988"/>
      <point x="770" y="954" type="qcurve" smooth="yes"/>
      <point x="827" y="921"/>
      <point x="874" y="874" type="qcurve" smooth="yes"/>
      <point x="920" y="827"/>
      <point x="954" y="770" type="qcurve" smooth="yes"/>
      <point x="987" y="714"/>
      <point x="1006" y="648" type="qcurve" smooth="yes"/>
      <point x="1024" y="583"/>
      <point x="1024" y="512" type="qcurve" smooth="yes"/>
      <point x="1024" y="493"/>
      <point x="1022" y="473" type="qcurve" smooth="yes"/>
      <point x="1021" y="454"/>
      <point x="1018" y="435" type="qcurve"/>
      <point x="1005" y="448"/>
      <point x="990" y="460" type="qcurve" smooth="yes"/>
      <point x="975" y="472"/>
      <point x="959" y="482" type="qcurve"/>
      <point x="959" y="490"/>
      <point x="959" y="497" type="qcurve" smooth="yes"/>
      <point x="960" y="504"/>
      <point x="960" y="512" type="qcurve" smooth="yes"/>
      <point x="960" y="573"/>
      <point x="944" y="631" type="qcurve" smooth="yes"/>
      <point x="928" y="688"/>
      <point x="899" y="738" type="qcurve" smooth="yes"/>
      <point x="870" y="787"/>
      <point x="829" y="828" type="qcurve" smooth="yes"/>
      <point x="788" y="869"/>
      <point x="738" y="899" type="qcurve" smooth="yes"/>
      <point x="688" y="928"/>
      <point x="631" y="944" type="qcurve" smooth="yes"/>
      <point x="574" y="960"/>
      <point x="512" y="960" type="qcurve" smooth="yes"/>
      <point x="448" y="960"/>
      <point x="387" y="942" type="qcurve" smooth="yes"/>
      <point x="326" y="924"/>
      <point x="274" y="890" type="qcurve" smooth="yes"/>
      <point x="221" y="857"/>
      <point x="179" y="810" type="qcurve" smooth="yes"/>
      <point x="137" y="763"/>
      <point x="109" y="704" type="qcurve"/>
      <point x="256" y="704" type="line"/>
    </contour>
    <contour>
      <point x="541" y="66" type="qcurve"/>
      <point x="551" y="50"/>
      <point x="564" y="35" type="qcurve" smooth="yes"/>
      <point x="576" y="20"/>
      <point x="589" y="7" type="qcurve"/>
      <point x="571" y="4"/>
      <point x="551" y="2" type="qcurve" smooth="yes"/>
      <point x="532" y="0"/>
      <point x="512" y="0" type="qcurve" smooth="yes"/>
      <point x="455" y="0"/>
      <point x="400" y="12" type="qcurve" smooth="yes"/>
      <point x="346" y="25"/>
      <point x="296" y="48" type="qcurve" smooth="yes"/>
      <point x="247" y="71"/>
      <point x="203" y="105" type="qcurve" smooth="yes"/>
      <point x="159" y="138"/>
      <point x="123" y="180" type="qcurve" smooth="yes"/>
      <point x="88" y="222"/>
      <point x="61" y="271" type="qcurve" smooth="yes"/>
      <point x="34" y="320"/>
      <point x="19" y="375" type="qcurve"/>
      <point x="80" y="392" type="line"/>
      <point x="100" y="320"/>
      <point x="142" y="260" type="qcurve" smooth="yes"/>
      <point x="184" y="200"/>
      <point x="241" y="156" type="qcurve" smooth="yes"/>
      <point x="298" y="113"/>
      <point x="367" y="88" type="qcurve" smooth="yes"/>
      <point x="437" y="64"/>
      <point x="512" y="64" type="qcurve" smooth="yes"/>
      <point x="519" y="64"/>
      <point x="527" y="64" type="qcurve" smooth="yes"/>
      <point x="534" y="65"/>
    </contour>
  </outline>
</glyph>
<glyph name="uniE196" format="2">
  <advance width="1024"/>
  <unicode hex="E196"/>
  <outline>
    <contour>
      <point x="736" y="448" type="qcurve" smooth="yes"/>
      <point x="782" y="448"/>
      <point x="823" y="431" type="qcurve" smooth="yes"/>
      <point x="864" y="413"/>
      <point x="894" y="383" type="qcurve" smooth="yes"/>
      <point x="925" y="352"/>
      <point x="942" y="311" type="qcurve" smooth="yes"/>
      <point x="960" y="271"/>
      <point x="960" y="224" type="qcurve" smooth="yes"/>
      <point x="960" y="178"/>
      <point x="943" y="137" type="qcurve" smooth="yes"/>
      <point x="925" y="96"/>
      <point x="895" y="66" type="qcurve" smooth="yes"/>
      <point x="864" y="35"/>
      <point x="823" y="18" type="qcurve" smooth="yes"/>
      <point x="783" y="0"/>
      <point x="736" y="0" type="qcurve" smooth="yes"/>
      <point x="690" y="0"/>
      <point x="649" y="17" type="qcurve" smooth="yes"/>
      <point x="608" y="35"/>
      <point x="578" y="65" type="qcurve" smooth="yes"/>
      <point x="547" y="96"/>
      <point x="530" y="137" type="qcurve" smooth="yes"/>
      <point x="512" y="177"/>
      <point x="512" y="224" type="qcurve" smooth="yes"/>
      <point x="512" y="270"/>
      <point x="529" y="311" type="qcurve" smooth="yes"/>
      <point x="547" y="352"/>
      <point x="577" y="382" type="qcurve" smooth="yes"/>
      <point x="608" y="413"/>
      <point x="649" y="430" type="qcurve" smooth="yes"/>
      <point x="689" y="448"/>
    </contour>
    <contour>
      <point x="576" y="224" type="qcurve" smooth="yes"/>
      <point x="576" y="191"/>
      <point x="588" y="162" type="qcurve" smooth="yes"/>
      <point x="601" y="133"/>
      <point x="623" y="111" type="qcurve" smooth="yes"/>
      <point x="644" y="89"/>
      <point x="674" y="77" type="qcurve" smooth="yes"/>
      <point x="703" y="64"/>
      <point x="736" y="64" type="qcurve" smooth="yes"/>
      <point x="759" y="64"/>
      <point x="782" y="71" type="qcurve" smooth="yes"/>
      <point x="804" y="77"/>
      <point x="824" y="90" type="qcurve"/>
      <point x="603" y="312" type="line"/>
      <point x="590" y="293"/>
      <point x="583" y="270" type="qcurve" smooth="yes"/>
      <point x="576" y="248"/>
    </contour>
    <contour>
      <point x="869" y="136" type="line"/>
      <point x="882" y="155"/>
      <point x="889" y="178" type="qcurve" smooth="yes"/>
      <point x="896" y="200"/>
      <point x="896" y="224" type="qcurve" smooth="yes"/>
      <point x="896" y="257"/>
      <point x="883" y="286" type="qcurve" smooth="yes"/>
      <point x="871" y="315"/>
      <point x="849" y="337" type="qcurve" smooth="yes"/>
      <point x="827" y="358"/>
      <point x="798" y="371" type="qcurve" smooth="yes"/>
      <point x="769" y="384"/>
      <point x="736" y="384" type="qcurve" smooth="yes"/>
      <point x="713" y="384"/>
      <point x="690" y="377" type="qcurve" smooth="yes"/>
      <point x="668" y="371"/>
      <point x="648" y="358" type="qcurve"/>
    </contour>
    <contour>
      <point x="995" y="650" type="line"/>
      <point x="979" y="634"/>
      <point x="963" y="620" type="qcurve" smooth="yes"/>
      <point x="947" y="606"/>
      <point x="930" y="597" type="qcurve" smooth="yes"/>
      <point x="914" y="587"/>
      <point x="894" y="582" type="qcurve" smooth="yes"/>
      <point x="874" y="577"/>
      <point x="849" y="577" type="qcurve" smooth="yes"/>
      <point x="832" y="577"/>
      <point x="817" y="579" type="qcurve"/>
      <point x="750" y="512" type="line"/>
      <point x="659" y="512" type="line"/>
      <point x="797" y="651" type="line"/>
      <point x="810" y="647"/>
      <point x="823" y="644" type="qcurve" smooth="yes"/>
      <point x="835" y="641"/>
      <point x="849" y="641" type="qcurve" smooth="yes"/>
      <point x="876" y="641"/>
      <point x="901" y="653" type="qcurve"/>
      <point x="654" y="901" type="line"/>
      <point x="641" y="877"/>
      <point x="641" y="849" type="qcurve" smooth="yes"/>
      <point x="641" y="836"/>
      <point x="644" y="823" type="qcurve" smooth="yes"/>
      <point x="647" y="811"/>
      <point x="651" y="798" type="qcurve"/>
      <point x="405" y="552" type="line"/>
      <point x="393" y="557"/>
      <point x="382" y="561" type="qcurve" smooth="yes"/>
      <point x="371" y="566"/>
      <point x="360" y="569" type="qcurve" smooth="yes"/>
      <point x="349" y="572"/>
      <point x="337" y="574" type="qcurve" smooth="yes"/>
      <point x="326" y="575"/>
      <point x="312" y="575" type="qcurve" smooth="yes"/>
      <point x="284" y="575"/>
      <point x="257" y="567" type="qcurve" smooth="yes"/>
      <point x="230" y="559"/>
      <point x="207" y="543" type="qcurve"/>
      <point x="448" y="302" type="line"/>
      <point x="448" y="211" type="line"/>
      <point x="352" y="307" type="line"/>
      <point x="68" y="23" type="line"/>
      <point x="0" y="0" type="line"/>
      <point x="22" y="68" type="line"/>
      <point x="307" y="352" type="line"/>
      <point x="114" y="545" type="line"/>
      <point x="136" y="567" type="line" smooth="yes"/>
      <point x="171" y="602"/>
      <point x="217" y="621" type="qcurve" smooth="yes"/>
      <point x="263" y="639"/>
      <point x="313" y="639" type="qcurve" smooth="yes"/>
      <point x="332" y="639"/>
      <point x="352" y="636" type="qcurve" smooth="yes"/>
      <point x="371" y="633"/>
      <point x="390" y="627" type="qcurve"/>
      <point x="579" y="816" type="line"/>
      <point x="577" y="832"/>
      <point x="577" y="849" type="qcurve" smooth="yes"/>
      <point x="577" y="873"/>
      <point x="582" y="893" type="qcurve" smooth="yes"/>
      <point x="587" y="913"/>
      <point x="596" y="930" type="qcurve" smooth="yes"/>
      <point x="606" y="947"/>
      <point x="620" y="963" type="qcurve" smooth="yes"/>
      <point x="633" y="978"/>
      <point x="650" y="995" type="qcurve"/>
    </contour>
  </outline>
</glyph>
<glyph name="uniE198" format="2">
  <advance width="1024"/>
  <unicode hex="E198"/>
  <outline>
    <contour>
      <point x="146" y="704" type="line"/>
      <point x="338" y="896" type="line"/>
      <point x="384" y="896" type="line"/>
      <point x="384" y="128" type="line"/>
      <point x="339" y="128" type="line"/>
      <point x="147" y="320" type="line"/>
      <point x="0" y="320" type="line"/>
      <point x="0" y="704" type="line"/>
    </contour>
    <contour>
      <point x="320" y="238" type="line"/>
      <point x="320" y="786" type="line"/>
      <point x="174" y="640" type="line"/>
      <point x="64" y="640" type="line"/>
      <point x="64" y="384" type="line"/>
      <point x="173" y="384" type="line"/>
    </contour>
    <contour>
      <point x="886" y="649" type="line"/>
      <point x="750" y="512" type="line"/>
      <point x="886" y="375" type="line"/>
      <point x="842" y="330" type="line"/>
      <point x="704" y="466" type="line"/>
      <point x="567" y="330" type="line"/>
      <point x="522" y="374" type="line"/>
      <point x="658" y="512" type="line"/>
      <point x="522" y="649" type="line"/>
      <point x="566" y="694" type="line"/>
      <point x="704" y="558" type="line"/>
      <point x="841" y="694" type="line"/>
    </contour>
  </outline>
</glyph>
<glyph name="uniE199" format="2">
  <advance width="1024"/>
  <unicode hex="E199"/>
  <outline>
    <contour>
      <point x="651" y="1024" type="line"/>
      <point x="718" y="1024" type="line"/>
      <point x="377" y="0" type="line"/>
      <point x="310" y="0" type="line"/>
    </contour>
  </outline>
</glyph>
<glyph name="uniE19A" format="2">
  <advance width="1024"/>
  <unicode hex="E19A"/>
  <outline>
    <contour>
      <point x="832" y="1024" type="line"/>
      <point x="832" y="448" type="line" smooth="yes"/>
      <point x="832" y="382"/>
      <point x="807" y="323" type="qcurve" smooth="yes"/>
      <point x="782" y="265"/>
      <point x="739" y="222" type="qcurve" smooth="yes"/>
      <point x="695" y="178"/>
      <point x="637" y="153" type="qcurve" smooth="yes"/>
      <point x="579" y="128"/>
      <point x="512" y="128" type="qcurve" smooth="yes"/>
      <point x="446" y="128"/>
      <point x="387" y="153" type="qcurve" smooth="yes"/>
      <point x="329" y="178"/>
      <point x="286" y="221" type="qcurve" smooth="yes"/>
      <point x="242" y="265"/>
      <point x="217" y="323" type="qcurve" smooth="yes"/>
      <point x="192" y="381"/>
      <point x="192" y="448" type="qcurve" smooth="yes"/>
      <point x="192" y="1024" type="line"/>
      <point x="256" y="1024" type="line"/>
      <point x="256" y="448" type="line" smooth="yes"/>
      <point x="256" y="395"/>
      <point x="276" y="349" type="qcurve" smooth="yes"/>
      <point x="296" y="302"/>
      <point x="331" y="267" type="qcurve" smooth="yes"/>
      <point x="366" y="233"/>
      <point x="412" y="212" type="qcurve" smooth="yes"/>
      <point x="459" y="192"/>
      <point x="512" y="192" type="qcurve" smooth="yes"/>
      <point x="565" y="192"/>
      <point x="611" y="212" type="qcurve" smooth="yes"/>
      <point x="658" y="232"/>
      <point x="693" y="267" type="qcurve" smooth="yes"/>
      <point x="727" y="302"/>
      <point x="748" y="348" type="qcurve" smooth="yes"/>
      <point x="768" y="395"/>
      <point x="768" y="448" type="qcurve" smooth="yes"/>
      <point x="768" y="1024" type="line"/>
    </contour>
    <contour>
      <point x="192" y="64" type="line"/>
      <point x="832" y="64" type="line"/>
      <point x="832" y="0" type="line"/>
      <point x="192" y="0" type="line"/>
    </contour>
  </outline>
</glyph>
<glyph name="uniE19B" format="2">
  <advance width="1024"/>
  <unicode hex="E19B"/>
  <outline>
    <contour>
      <point x="592" y="544" type="qcurve"/>
      <point x="641" y="544"/>
      <point x="685" y="525" type="qcurve" smooth="yes"/>
      <point x="729" y="507"/>
      <point x="762" y="474" type="qcurve" smooth="yes"/>
      <point x="794" y="441"/>
      <point x="813" y="397" type="qcurve" smooth="yes"/>
      <point x="832" y="354"/>
      <point x="832" y="304" type="qcurve" smooth="yes"/>
      <point x="832" y="255"/>
      <point x="813" y="211" type="qcurve" smooth="yes"/>
      <point x="795" y="167"/>
      <point x="762" y="134" type="qcurve" smooth="yes"/>
      <point x="729" y="102"/>
      <point x="685" y="83" type="qcurve" smooth="yes"/>
      <point x="642" y="64"/>
      <point x="592" y="64" type="qcurve" smooth="yes"/>
      <point x="192" y="64" type="line"/>
      <point x="192" y="960" type="line"/>
      <point x="592" y="960" type="line" smooth="yes"/>
      <point x="635" y="960"/>
      <point x="673" y="944" type="qcurve" smooth="yes"/>
      <point x="711" y="928"/>
      <point x="739" y="899" type="qcurve" smooth="yes"/>
      <point x="767" y="871"/>
      <point x="784" y="833" type="qcurve" smooth="yes"/>
      <point x="800" y="795"/>
      <point x="800" y="752" type="qcurve" smooth="yes"/>
      <point x="800" y="709"/>
      <point x="784" y="671" type="qcurve" smooth="yes"/>
      <point x="768" y="633"/>
      <point x="739" y="605" type="qcurve" smooth="yes"/>
      <point x="711" y="577"/>
      <point x="673" y="560" type="qcurve" smooth="yes"/>
      <point x="635" y="544"/>
    </contour>
    <contour>
      <point x="384" y="576" type="line"/>
      <point x="480" y="576" type="line" smooth="yes"/>
      <point x="506" y="576"/>
      <point x="529" y="586" type="qcurve" smooth="yes"/>
      <point x="553" y="596"/>
      <point x="570" y="614" type="qcurve" smooth="yes"/>
      <point x="587" y="631"/>
      <point x="598" y="654" type="qcurve" smooth="yes"/>
      <point x="608" y="677"/>
      <point x="608" y="704" type="qcurve" smooth="yes"/>
      <point x="608" y="730"/>
      <point x="598" y="753" type="qcurve" smooth="yes"/>
      <point x="588" y="777"/>
      <point x="570" y="794" type="qcurve" smooth="yes"/>
      <point x="553" y="811"/>
      <point x="530" y="822" type="qcurve" smooth="yes"/>
      <point x="506" y="832"/>
      <point x="480" y="832" type="qcurve" smooth="yes"/>
      <point x="384" y="832" type="line"/>
    </contour>
    <contour>
      <point x="512" y="192" type="line" smooth="yes"/>
      <point x="538" y="192"/>
      <point x="561" y="202" type="qcurve" smooth="yes"/>
      <point x="585" y="212"/>
      <point x="602" y="230" type="qcurve" smooth="yes"/>
      <point x="619" y="247"/>
      <point x="630" y="270" type="qcurve" smooth="yes"/>
      <point x="640" y="293"/>
      <point x="640" y="320" type="qcurve" smooth="yes"/>
      <point x="640" y="346"/>
      <point x="630" y="369" type="qcurve" smooth="yes"/>
      <point x="620" y="393"/>
      <point x="602" y="410" type="qcurve" smooth="yes"/>
      <point x="585" y="427"/>
      <point x="562" y="438" type="qcurve" smooth="yes"/>
      <point x="538" y="448"/>
      <point x="512" y="448" type="qcurve" smooth="yes"/>
      <point x="384" y="448" type="line"/>
      <point x="384" y="192" type="line"/>
    </contour>
  </outline>
</glyph>
<glyph name="uniE19F" format="2">
  <advance width="1024"/>
  <unicode hex="E19F"/>
  <outline>
    <contour>
      <point x="928" y="704" type="line" smooth="yes"/>
      <point x="947" y="704"/>
      <point x="965" y="697" type="qcurve" smooth="yes"/>
      <point x="982" y="689"/>
      <point x="996" y="676" type="qcurve" smooth="yes"/>
      <point x="1009" y="663"/>
      <point x="1016" y="646" type="qcurve" smooth="yes"/>
      <point x="1024" y="628"/>
      <point x="1024" y="608" type="qcurve" smooth="yes"/>
      <point x="1024" y="592"/>
      <point x="1019" y="578" type="qcurve" smooth="yes"/>
      <point x="891" y="194" type="line" smooth="yes"/>
      <point x="886" y="179"/>
      <point x="877" y="167" type="qcurve" smooth="yes"/>
      <point x="868" y="155"/>
      <point x="856" y="146" type="qcurve" smooth="yes"/>
      <point x="844" y="138"/>
      <point x="830" y="133" type="qcurve" smooth="yes"/>
      <point x="816" y="128"/>
      <point x="800" y="128" type="qcurve" smooth="yes"/>
      <point x="544" y="128" type="line" smooth="yes"/>
      <point x="455" y="128"/>
      <point x="372" y="162" type="qcurve" smooth="yes"/>
      <point x="336" y="177"/>
      <point x="299" y="184" type="qcurve" smooth="yes"/>
      <point x="263" y="192"/>
      <point x="224" y="192" type="qcurve" smooth="yes"/>
      <point x="0" y="192" type="line"/>
      <point x="0" y="640" type="line"/>
      <point x="208" y="640" type="line" smooth="yes"/>
      <point x="241" y="640"/>
      <point x="270" y="652" type="qcurve" smooth="yes"/>
      <point x="298" y="664"/>
      <point x="321" y="687" type="qcurve" smooth="yes"/>
      <point x="632" y="997" type="line" smooth="yes"/>
      <point x="645" y="1010"/>
      <point x="657" y="1017" type="qcurve" smooth="yes"/>
      <point x="670" y="1024"/>
      <point x="688" y="1024" type="qcurve" smooth="yes"/>
      <point x="704" y="1024"/>
      <point x="719" y="1018" type="qcurve" smooth="yes"/>
      <point x="733" y="1012"/>
      <point x="744" y="1001" type="qcurve" smooth="yes"/>
      <point x="755" y="990"/>
      <point x="762" y="975" type="qcurve" smooth="yes"/>
      <point x="768" y="961"/>
      <point x="768" y="944" type="qcurve" smooth="yes"/>
      <point x="768" y="904"/>
      <point x="759" y="867" type="qcurve" smooth="yes"/>
      <point x="750" y="830"/>
      <point x="733" y="794" type="qcurve" smooth="yes"/>
      <point x="723" y="773"/>
      <point x="716" y="750" type="qcurve" smooth="yes"/>
      <point x="709" y="728"/>
      <point x="706" y="704" type="qcurve"/>
    </contour>
    <contour>
      <point x="800" y="192" type="line" smooth="yes"/>
      <point x="810" y="192"/>
      <point x="818" y="198" type="qcurve" smooth="yes"/>
      <point x="827" y="204"/>
      <point x="830" y="214" type="qcurve" smooth="yes"/>
      <point x="833" y="221"/>
      <point x="840" y="241" type="qcurve" smooth="yes"/>
      <point x="846" y="261"/>
      <point x="856" y="289" type="qcurve" smooth="yes"/>
      <point x="865" y="317"/>
      <point x="877" y="351" type="qcurve" smooth="yes"/>
      <point x="888" y="385"/>
      <point x="900" y="419" type="qcurve" smooth="yes"/>
      <point x="911" y="454"/>
      <point x="922" y="487" type="qcurve" smooth="yes"/>
      <point x="933" y="519"/>
      <point x="941" y="546" type="qcurve" smooth="yes"/>
      <point x="950" y="572"/>
      <point x="955" y="589" type="qcurve" smooth="yes"/>
      <point x="960" y="605"/>
      <point x="960" y="608" type="qcurve" smooth="yes"/>
      <point x="960" y="621"/>
      <point x="951" y="630" type="qcurve" smooth="yes"/>
      <point x="941" y="640"/>
      <point x="928" y="640" type="qcurve" smooth="yes"/>
      <point x="640" y="640" type="line"/>
      <point x="640" y="666"/>
      <point x="641" y="689" type="qcurve" smooth="yes"/>
      <point x="642" y="712"/>
      <point x="646" y="733" type="qcurve" smooth="yes"/>
      <point x="650" y="755"/>
      <point x="657" y="776" type="qcurve" smooth="yes"/>
      <point x="664" y="798"/>
      <point x="675" y="822" type="qcurve" smooth="yes"/>
      <point x="689" y="851"/>
      <point x="697" y="881" type="qcurve" smooth="yes"/>
      <point x="704" y="911"/>
      <point x="704" y="944" type="qcurve" smooth="yes"/>
      <point x="704" y="951"/>
      <point x="700" y="955" type="qcurve" smooth="yes"/>
      <point x="695" y="960"/>
      <point x="688" y="960" type="qcurve" smooth="yes"/>
      <point x="685" y="960"/>
      <point x="683" y="958" type="qcurve" smooth="yes"/>
      <point x="679" y="954" type="line"/>
      <point x="367" y="642" type="line" smooth="yes"/>
      <point x="351" y="626"/>
      <point x="333" y="614" type="qcurve" smooth="yes"/>
      <point x="315" y="602"/>
      <point x="294" y="593" type="qcurve" smooth="yes"/>
      <point x="254" y="576"/>
      <point x="209" y="576" type="qcurve" smooth="yes"/>
      <point x="64" y="576" type="line"/>
      <point x="64" y="256" type="line"/>
      <point x="224" y="256" type="line" smooth="yes"/>
      <point x="313" y="256"/>
      <point x="396" y="222" type="qcurve" smooth="yes"/>
      <point x="468" y="192"/>
      <point x="544" y="192" type="qcurve" smooth="yes"/>
    </contour>
  </outline>
</glyph>
<glyph name="uniE1A2" format="2">
  <advance width="1024"/>
  <unicode hex="E1A2"/>
  <outline>
    <contour>
      <point x="1024" y="960" type="line"/>
      <point x="1024" y="896" type="line"/>
      <point x="0" y="896" type="line"/>
      <point x="0" y="960" type="line"/>
    </contour>
    <contour>
      <point x="1024" y="128" type="line"/>
      <point x="0" y="128" type="line"/>
      <point x="0" y="192" type="line"/>
      <point x="1024" y="192" type="line"/>
    </contour>
    <contour>
      <point x="1024" y="512" type="line"/>
      <point x="0" y="512" type="line"/>
      <point x="0" y="576" type="line"/>
      <point x="1024" y="576" type="line"/>
    </contour>
    <contour>
      <point x="768" y="704" type="line"/>
      <point x="0" y="704" type="line"/>
      <point x="0" y="768" type="line"/>
      <point x="768" y="768" type="line"/>
    </contour>
    <contour>
      <point x="768" y="320" type="line"/>
      <point x="0" y="320" type="line"/>
      <point x="0" y="384" type="line"/>
      <point x="768" y="384" type="line"/>
    </contour>
  </outline>
</glyph>
